{"glyphs":{"0":{"ha":811,"x_min":72,"x_max":739,"o":"m 406 889 q 311 863 349 889 q 251 783 274 836 q 220 649 229 729 q 211 458 211 568 q 220 268 211 349 q 251 134 229 188 q 311 54 274 81 q 406 28 349 28 q 500 54 463 28 q 560 134 538 81 q 591 268 582 188 q 600 458 600 349 q 591 649 600 568 q 560 783 582 729 q 500 863 538 836 q 406 889 463 889 m 406 944 q 560 910 497 944 q 663 811 624 875 q 721 658 703 747 q 739 458 739 568 q 721 259 739 349 q 663 106 703 169 q 560 7 624 42 q 406 -28 497 -28 q 251 7 314 -28 q 148 106 188 42 q 90 259 108 169 q 72 458 72 349 q 90 658 72 568 q 148 811 108 747 q 251 910 188 875 q 406 944 314 944 z "},"1":{"ha":424,"x_min":19,"x_max":304,"o":"m 304 0 l 179 0 l 179 778 l 44 690 l 19 722 l 235 917 l 304 917 l 304 0 z "},"2":{"ha":736,"x_min":57,"x_max":668,"o":"m 467 56 q 595 92 550 56 q 640 201 640 128 l 668 201 l 668 111 q 663 70 668 90 q 645 35 658 50 q 609 10 632 19 q 550 0 586 0 l 57 0 l 57 69 q 251 256 167 176 q 392 403 335 335 q 478 538 449 472 q 508 681 508 603 q 494 772 508 732 q 454 837 479 811 q 397 876 429 863 q 328 889 364 889 q 182 828 244 889 q 99 653 119 768 l 71 653 q 75 753 71 706 q 104 833 79 801 q 214 912 142 879 q 369 944 286 944 q 460 935 411 944 q 550 896 508 925 q 619 815 592 867 q 647 681 647 764 q 606 517 647 592 q 497 371 565 443 q 340 223 429 299 q 154 56 250 147 l 467 56 z "},"3":{"ha":736,"x_min":56,"x_max":682,"o":"m 265 514 q 340 526 301 524 q 390 528 378 528 q 470 517 421 528 q 567 478 519 507 q 648 396 614 449 q 682 257 682 343 q 648 110 682 165 q 565 24 614 54 q 462 -17 515 -7 q 369 -28 408 -28 q 190 13 265 -28 q 56 121 114 53 l 78 146 q 193 58 131 88 q 335 28 256 28 q 414 41 376 28 q 481 83 451 54 q 526 154 510 111 q 543 257 543 197 q 526 352 543 311 q 484 419 510 393 q 426 459 458 446 q 363 472 393 472 q 310 471 331 472 q 272 467 289 469 q 237 460 254 464 q 196 451 219 457 l 160 510 l 536 861 l 279 861 q 151 825 196 861 q 106 715 106 789 l 78 715 l 78 806 q 83 847 78 826 q 101 882 88 867 q 137 907 114 897 q 196 917 160 917 l 638 917 l 638 861 l 265 514 z "},"4":{"ha":758,"x_min":25,"x_max":719,"o":"m 594 292 l 719 292 l 719 236 l 594 236 l 594 0 l 469 0 l 469 236 l 25 236 l 25 292 l 483 917 l 594 917 l 594 292 m 469 292 l 469 783 l 108 292 l 469 292 z "},"5":{"ha":736,"x_min":58,"x_max":683,"o":"m 350 528 q 460 517 401 528 q 569 476 519 506 q 651 393 618 446 q 683 257 683 340 q 649 113 683 168 q 564 26 614 57 q 458 -17 514 -6 q 357 -28 401 -28 q 184 11 253 -28 q 58 118 115 50 l 85 142 q 199 56 138 83 q 336 28 260 28 q 415 41 378 28 q 482 83 453 54 q 528 154 511 111 q 544 257 544 197 q 485 419 544 367 q 322 472 426 472 q 260 470 290 472 q 204 465 229 468 l 149 458 l 93 514 l 107 917 l 628 917 l 628 861 l 221 861 l 208 521 q 253 524 229 522 q 298 526 272 525 q 350 528 324 528 z "},"6":{"ha":746,"x_min":72,"x_max":690,"o":"m 204 472 q 218 268 204 353 q 256 130 232 183 q 315 52 281 76 q 392 28 350 28 q 462 49 431 28 q 515 107 493 71 q 547 189 536 143 q 558 285 558 235 q 514 473 558 404 q 371 542 469 542 q 279 523 318 542 q 204 472 240 504 m 72 458 q 157 822 72 700 q 419 944 242 944 q 540 931 488 944 q 635 903 593 918 l 628 875 q 548 885 596 881 q 447 889 500 889 q 339 864 385 889 q 263 792 293 839 q 219 681 233 746 q 204 535 204 615 q 290 579 240 561 q 413 597 339 597 q 538 575 485 597 q 624 512 590 553 q 674 413 658 471 q 690 285 690 356 q 672 169 690 225 q 617 69 654 113 q 523 -1 579 25 q 392 -28 467 -28 q 149 95 225 -28 q 72 458 72 218 z "},"7":{"ha":658,"x_min":36,"x_max":640,"o":"m 293 0 l 168 0 l 515 861 l 238 861 q 109 825 154 861 q 64 715 64 789 l 36 715 l 36 806 q 41 847 36 826 q 59 882 46 867 q 95 907 72 897 q 154 917 118 917 l 640 917 l 640 861 l 293 0 z "},"8":{"ha":769,"x_min":65,"x_max":704,"o":"m 669 722 q 655 646 669 681 q 616 583 640 611 q 560 532 592 554 q 496 493 529 510 q 572 444 535 469 q 639 388 610 419 q 686 315 668 356 q 704 222 704 275 q 678 107 704 154 q 609 30 653 60 q 508 -14 565 0 q 385 -28 450 -28 q 262 -15 319 -28 q 160 28 204 -1 q 91 101 117 57 q 65 208 65 146 q 84 300 65 260 q 134 371 103 340 q 206 424 165 401 q 288 465 246 447 q 217 510 251 486 q 157 562 183 533 q 115 626 131 590 q 100 708 100 663 q 123 822 100 776 q 185 894 146 867 q 276 933 224 921 q 385 944 328 944 q 494 933 442 944 q 585 896 546 922 q 647 827 624 869 q 669 722 669 785 m 572 194 q 554 274 572 239 q 506 338 536 308 q 435 390 475 367 q 350 438 394 414 q 292 403 319 422 q 243 358 264 385 q 210 294 222 331 q 197 208 197 258 q 213 127 197 161 q 254 71 228 93 q 315 38 281 49 q 385 28 349 28 q 455 38 421 28 q 515 69 489 49 q 556 122 540 90 q 572 194 572 153 m 232 736 q 249 672 232 703 q 294 616 265 642 q 358 568 322 590 q 433 528 394 546 q 506 601 475 558 q 538 722 538 644 q 524 804 538 772 q 488 855 510 836 q 438 881 465 874 q 385 889 411 889 q 331 882 358 889 q 282 857 304 875 q 246 810 260 839 q 232 736 232 781 z "},"9":{"ha":744,"x_min":54,"x_max":672,"o":"m 540 444 q 526 649 540 564 q 488 787 513 733 q 429 865 464 840 q 353 889 394 889 q 283 867 314 889 q 230 810 251 846 q 197 728 208 774 q 186 632 186 682 q 231 444 186 513 q 374 375 275 375 q 465 394 426 375 q 540 444 504 413 m 672 458 q 588 94 672 217 q 325 -28 503 -28 q 204 -15 257 -28 q 110 14 151 -1 l 117 42 q 197 32 149 36 q 297 28 244 28 q 406 53 360 28 q 481 124 451 78 q 526 236 511 171 q 540 382 540 301 q 455 338 504 356 q 332 319 406 319 q 206 342 258 319 q 120 405 154 364 q 70 503 86 446 q 54 632 54 561 q 72 748 54 692 q 128 848 90 804 q 222 918 165 892 q 353 944 278 944 q 596 821 519 944 q 672 458 672 697 z "}," ":{"ha":347,"x_min":0,"x_max":0,"o":""},"!":{"ha":325,"x_min":88,"x_max":238,"o":"m 203 215 l 122 215 l 97 917 l 228 917 l 203 215 m 163 131 q 215 109 193 131 q 238 57 238 88 q 215 3 238 25 q 163 -19 193 -19 q 110 3 132 -19 q 88 57 88 25 q 110 109 88 88 q 163 131 132 131 z "},"\"":{"ha":508,"x_min":74,"x_max":435,"o":"m 338 542 l 296 917 l 435 917 l 393 542 l 338 542 m 115 542 l 74 917 l 213 917 l 171 542 l 115 542 z "},"#":{"ha":928,"x_min":43,"x_max":883,"o":"m 175 0 l 224 243 l 43 243 l 43 326 l 243 326 l 293 576 l 126 576 l 126 660 l 311 660 l 369 938 l 460 938 l 401 660 l 603 660 l 661 938 l 751 938 l 693 660 l 883 660 l 883 576 l 675 576 l 624 326 l 800 326 l 800 243 l 606 243 l 557 0 l 467 0 l 515 243 l 314 243 l 265 0 l 175 0 m 332 326 l 535 326 l 585 576 l 383 576 l 332 326 z "},"$":{"ha":731,"x_min":68,"x_max":674,"o":"m 328 -111 l 328 -21 q 231 -1 278 -15 q 148 33 185 13 q 90 83 111 54 q 68 146 68 111 l 68 294 l 93 294 q 172 106 114 168 q 328 33 231 44 l 328 408 l 231 467 q 105 574 142 519 q 68 706 68 628 q 87 801 68 758 q 140 875 106 844 q 222 923 174 906 q 328 942 269 940 l 328 1021 l 383 1021 l 383 939 q 476 922 431 935 q 557 888 521 908 q 615 838 593 867 q 638 775 638 810 l 638 626 l 613 626 q 535 813 592 753 q 383 883 479 872 l 383 532 l 501 463 q 578 412 546 436 q 632 360 611 388 q 663 303 653 333 q 674 233 674 272 q 597 46 674 115 q 383 -24 519 -24 l 383 -111 l 328 -111 m 383 375 l 383 32 q 448 43 417 33 q 503 71 479 53 q 540 115 526 89 q 554 174 554 140 q 516 278 554 235 q 401 365 478 321 l 383 375 m 176 746 q 186 692 176 715 q 215 647 196 668 q 262 607 233 626 q 328 565 290 588 l 328 886 q 271 874 299 885 q 222 845 243 864 q 189 801 201 826 q 176 746 176 776 z "},"%":{"ha":936,"x_min":44,"x_max":892,"o":"m 100 0 l 732 917 l 836 917 l 204 0 l 100 0 m 808 181 q 690 319 808 319 q 572 181 572 319 q 690 42 572 42 q 808 181 808 42 m 892 181 q 838 42 892 92 q 690 -7 785 -7 q 542 42 596 -7 q 489 181 489 92 q 542 319 489 269 q 690 368 596 368 q 838 319 785 368 q 892 181 892 269 m 364 736 q 246 875 364 875 q 128 736 128 875 q 246 597 128 597 q 364 736 364 597 m 447 736 q 394 598 447 647 q 246 549 340 549 q 98 598 151 549 q 44 736 44 647 q 98 874 44 825 q 246 924 151 924 q 394 874 340 924 q 447 736 447 825 z "},"&":{"ha":856,"x_min":58,"x_max":822,"o":"m 58 194 q 75 273 58 238 q 119 340 92 308 q 183 398 147 371 q 257 453 219 425 q 185 531 217 488 q 135 617 157 567 q 114 728 114 668 q 181 886 114 828 q 364 944 249 944 q 533 889 474 944 q 593 750 593 833 q 576 663 593 701 q 532 591 560 624 q 467 529 504 558 q 390 472 431 500 l 669 167 q 722 229 699 199 q 761 285 744 260 q 794 340 779 314 l 822 319 q 792 261 810 292 q 753 201 776 235 q 699 135 729 168 l 822 0 l 669 0 l 614 60 q 499 -3 564 22 q 350 -28 433 -28 q 222 -10 276 -28 q 131 37 168 7 q 76 107 94 67 q 58 194 58 147 m 376 21 q 492 40 440 21 q 585 92 543 60 l 299 404 q 221 317 251 364 q 190 208 190 271 q 376 21 190 21 m 246 728 q 260 650 246 686 q 293 586 275 614 q 327 541 311 558 q 347 521 343 524 q 438 616 400 565 q 475 736 475 667 q 465 811 475 781 q 438 860 454 842 q 401 888 421 879 q 364 896 382 896 q 322 888 343 896 q 284 859 301 879 q 256 807 267 839 q 246 728 246 775 z "},"'":{"ha":286,"x_min":74,"x_max":213,"o":"m 115 542 l 74 917 l 213 917 l 171 542 l 115 542 z "},"(":{"ha":429,"x_min":47,"x_max":408,"o":"m 47 333 q 70 525 47 438 q 138 688 93 613 q 247 829 182 763 q 394 958 311 896 l 408 938 q 295 807 340 878 q 223 659 250 736 q 184 499 196 582 q 172 333 172 417 q 184 167 172 250 q 223 8 196 85 q 295 -140 250 -69 q 408 -271 340 -211 l 394 -292 q 247 -162 311 -229 q 138 -21 182 -96 q 70 142 93 54 q 47 333 47 229 z "},")":{"ha":429,"x_min":21,"x_max":382,"o":"m 382 333 q 359 142 382 229 q 292 -21 336 54 q 183 -162 247 -96 q 35 -292 118 -229 l 21 -271 q 134 -140 89 -211 q 206 8 179 -69 q 245 167 233 85 q 257 333 257 250 q 245 499 257 417 q 206 659 233 582 q 134 807 179 736 q 21 938 89 878 l 35 958 q 183 829 118 896 q 292 688 247 763 q 359 525 336 613 q 382 333 382 438 z "},"*":{"ha":589,"x_min":65,"x_max":524,"o":"m 239 917 l 350 917 l 308 708 l 468 854 l 524 757 l 322 688 l 524 618 l 468 521 l 308 667 l 350 458 l 239 458 l 281 667 l 121 521 l 65 618 l 267 688 l 65 757 l 121 854 l 281 708 l 239 917 z "},"+":{"ha":736,"x_min":49,"x_max":688,"o":"m 326 417 l 49 417 l 49 500 l 326 500 l 326 778 l 410 778 l 410 500 l 688 500 l 688 417 l 410 417 l 410 139 l 326 139 l 326 417 z "},",":{"ha":329,"x_min":78,"x_max":251,"o":"m 85 -194 q 167 -114 138 -158 q 196 -7 196 -69 l 154 -21 q 100 1 122 -21 q 78 56 78 24 q 101 115 78 92 q 161 139 125 139 q 227 114 203 139 q 251 42 251 89 q 212 -110 251 -47 q 99 -215 172 -174 l 85 -194 z "},"-":{"ha":538,"x_min":92,"x_max":446,"o":"m 92 417 l 446 417 l 446 319 l 92 319 l 92 417 z "},".":{"ha":306,"x_min":78,"x_max":228,"o":"m 153 132 q 206 110 185 132 q 228 57 228 88 q 206 3 228 25 q 153 -19 183 -19 q 100 3 122 -19 q 78 57 78 25 q 100 110 78 88 q 153 132 122 132 z "},"/":{"ha":611,"x_min":32,"x_max":579,"o":"m 32 0 l 478 917 l 579 917 l 133 0 l 32 0 z "},":":{"ha":335,"x_min":92,"x_max":243,"o":"m 168 640 q 222 618 200 640 q 243 565 243 596 q 222 512 243 533 q 168 490 200 490 q 115 512 138 490 q 93 565 93 533 q 115 618 93 596 q 168 640 138 640 m 167 132 q 221 110 199 132 q 243 57 243 88 q 221 3 243 25 q 167 -19 199 -19 q 114 3 136 -19 q 92 57 92 25 q 114 110 92 88 q 167 132 136 132 z "},";":{"ha":358,"x_min":92,"x_max":265,"o":"m 182 640 q 235 619 213 640 q 257 567 257 597 q 235 513 257 535 q 182 492 213 492 q 128 513 150 492 q 106 567 106 535 q 128 619 106 597 q 182 640 150 640 m 97 -194 q 180 -110 150 -153 q 210 0 210 -68 q 193 -13 204 -6 q 161 -21 182 -21 q 110 1 129 -21 q 92 56 92 24 q 116 113 92 86 q 182 139 140 139 q 242 110 218 139 q 265 28 265 81 q 231 -101 265 -46 q 113 -214 196 -157 l 97 -194 z "},"<":{"ha":858,"x_min":42,"x_max":764,"o":"m 185 465 l 764 215 l 764 132 l 42 444 l 42 486 l 764 799 l 764 715 l 185 465 z "},"=":{"ha":913,"x_min":92,"x_max":821,"o":"m 92 625 l 821 625 l 821 542 l 92 542 l 92 625 m 92 375 l 821 375 l 821 292 l 92 292 l 92 375 z "},">":{"ha":858,"x_min":94,"x_max":817,"o":"m 94 715 l 94 799 l 817 486 l 817 444 l 94 132 l 94 215 l 674 465 l 94 715 z "},"?":{"ha":664,"x_min":42,"x_max":619,"o":"m 314 133 q 368 111 346 133 q 390 57 390 89 q 367 4 390 26 q 314 -18 344 -18 q 260 4 282 -18 q 239 57 239 26 q 260 111 239 89 q 314 133 282 133 m 286 217 q 303 316 288 274 q 340 392 318 358 q 386 456 361 426 q 432 519 411 486 q 467 590 453 551 q 481 681 481 628 q 466 772 481 732 q 426 837 451 811 q 369 876 401 863 q 300 889 336 889 q 153 828 217 889 q 69 653 90 768 l 42 653 q 46 753 42 706 q 76 833 50 801 q 186 912 114 879 q 342 944 258 944 q 432 935 383 944 q 522 896 481 925 q 592 815 564 867 q 619 681 619 764 q 599 578 619 622 q 549 497 579 533 q 483 430 518 461 q 417 367 447 399 q 365 299 386 335 q 342 217 343 263 l 286 217 z "},"@":{"ha":1189,"x_min":56,"x_max":1139,"o":"m 715 340 l 674 340 q 510 302 569 340 q 451 201 451 264 q 463 143 451 168 q 492 101 474 118 q 533 77 510 85 q 583 69 557 69 q 665 95 635 69 q 715 153 694 121 l 715 340 m 597 -250 q 378 -211 478 -250 q 206 -97 278 -172 q 95 90 135 -22 q 56 347 56 201 q 95 605 56 493 q 206 792 135 717 q 378 906 278 867 q 597 944 478 944 q 817 906 717 944 q 988 795 917 868 q 1099 616 1060 722 q 1139 375 1139 510 q 1123 224 1139 292 q 1074 108 1107 156 q 990 33 1040 60 q 868 7 939 7 q 774 27 810 7 q 722 83 738 47 l 715 83 q 647 32 694 57 q 521 7 600 7 q 457 16 492 7 q 392 47 422 25 q 340 107 361 69 q 319 201 319 144 q 349 296 319 258 q 426 356 378 333 q 539 387 475 378 q 674 396 603 396 l 715 396 q 704 515 715 468 q 674 587 693 561 q 627 622 654 613 q 569 632 600 632 q 472 607 511 632 q 417 514 432 582 l 354 514 q 358 581 354 550 q 389 639 363 613 q 424 661 401 651 q 475 676 447 671 q 534 685 503 682 q 597 688 565 688 q 688 677 644 688 q 766 635 732 667 q 820 547 800 604 q 840 396 840 489 l 840 146 q 857 88 840 114 q 910 63 874 63 q 975 84 943 63 q 1031 146 1007 106 q 1069 244 1054 186 q 1083 375 1083 301 q 1049 596 1083 500 q 950 757 1014 692 q 797 856 886 822 q 597 889 707 889 q 398 855 488 889 q 244 753 308 821 q 146 584 181 686 q 111 347 111 482 q 146 110 111 211 q 244 -59 181 8 q 398 -160 308 -126 q 597 -194 488 -194 q 839 -165 733 -194 q 1028 -76 944 -135 l 1056 -118 q 860 -213 972 -176 q 597 -250 749 -250 z "},"A":{"ha":882,"x_min":31,"x_max":919,"o":"m 919 0 q 864 -7 896 -7 q 809 -1 840 -7 q 745 23 778 4 q 681 78 713 42 q 628 174 650 114 l 593 264 l 204 264 l 93 0 l 31 0 l 419 917 l 461 917 l 767 174 q 798 108 783 135 q 831 64 813 81 q 869 39 849 47 q 919 28 890 31 l 919 0 m 225 319 l 565 319 l 399 722 l 225 319 z "},"B":{"ha":864,"x_min":22,"x_max":807,"o":"m 272 438 l 272 68 q 338 53 304 58 q 404 49 372 49 q 599 99 531 49 q 668 243 668 149 q 601 388 668 338 q 404 438 535 438 l 272 438 m 404 493 q 485 505 446 493 q 556 540 525 517 q 607 599 588 564 q 626 681 626 633 q 603 766 626 731 q 543 824 579 801 q 463 858 507 847 q 376 868 418 868 q 322 864 350 868 q 272 854 293 860 l 272 493 l 404 493 m 383 917 q 503 909 438 917 q 626 876 569 901 q 720 802 682 850 q 758 674 758 754 q 715 558 758 611 q 578 472 672 504 q 690 441 646 461 q 760 392 733 421 q 797 328 786 364 q 807 250 807 292 q 772 123 807 172 q 681 47 736 74 q 558 10 626 19 q 425 0 490 0 l 147 0 l 147 750 q 130 851 147 813 q 50 889 113 889 l 22 889 l 22 917 l 383 917 z "},"C":{"ha":924,"x_min":61,"x_max":874,"o":"m 818 625 q 720 825 792 761 q 533 889 649 889 q 405 866 465 889 q 299 791 344 843 q 226 654 253 739 q 200 444 200 569 q 219 292 200 367 q 278 158 238 217 q 381 64 318 100 q 533 28 444 28 q 713 78 638 28 q 846 222 788 128 l 874 201 q 799 92 840 136 q 711 22 758 49 q 609 -17 664 -6 q 492 -28 554 -28 q 313 9 393 -28 q 177 110 233 46 q 91 260 121 174 q 61 444 61 346 q 95 640 61 549 q 188 799 129 731 q 324 906 246 867 q 492 944 403 944 q 690 912 607 944 q 811 833 774 879 q 842 744 838 801 q 846 625 846 688 l 818 625 z "},"D":{"ha":993,"x_min":22,"x_max":932,"o":"m 276 67 q 418 49 358 49 q 561 77 494 49 q 676 159 628 106 q 753 288 725 213 q 781 458 781 364 q 753 626 781 550 q 678 756 726 701 q 562 839 629 810 q 415 868 494 868 q 349 863 385 868 q 276 846 314 857 l 276 67 m 386 917 q 626 885 524 917 q 797 794 729 853 q 898 652 864 736 q 932 464 932 568 q 899 277 932 363 q 803 131 867 192 q 644 35 739 69 q 422 0 549 0 l 147 0 l 147 750 q 130 851 147 813 q 50 889 113 889 l 22 889 l 22 917 l 386 917 z "},"E":{"ha":819,"x_min":22,"x_max":779,"o":"m 614 917 q 673 907 650 917 q 709 882 696 897 q 727 847 722 867 q 732 806 732 826 l 732 701 l 704 701 q 659 823 704 785 q 531 861 614 861 l 272 861 l 272 500 l 647 500 l 647 444 l 272 444 l 272 56 l 515 56 q 665 90 610 56 q 751 208 719 125 l 779 201 l 731 69 q 694 19 719 38 q 626 0 668 0 l 147 0 l 147 750 q 130 851 147 813 q 50 889 113 889 l 22 889 l 22 917 l 614 917 z "},"F":{"ha":732,"x_min":22,"x_max":694,"o":"m 576 917 q 635 907 613 917 q 672 882 658 897 q 690 847 685 867 q 694 806 694 826 l 694 701 l 667 701 q 622 823 667 785 q 493 861 576 861 l 272 861 l 272 493 l 586 493 l 586 438 l 272 438 l 272 0 l 147 0 l 147 750 q 130 851 147 813 q 50 889 113 889 l 22 889 l 22 917 l 576 917 z "},"G":{"ha":1000,"x_min":61,"x_max":978,"o":"m 533 889 q 381 853 444 889 q 278 758 318 817 q 219 625 238 700 q 200 472 200 550 q 226 262 200 347 q 299 124 253 176 q 405 50 344 72 q 533 28 465 28 q 658 41 608 28 q 749 76 708 54 l 749 318 q 755 376 749 347 q 785 428 761 404 q 854 466 808 451 q 978 481 900 481 l 978 453 q 924 444 944 453 q 892 417 903 435 q 877 376 881 400 q 874 321 874 351 l 874 60 q 717 -7 799 14 q 533 -28 635 -28 q 342 11 429 -28 q 193 118 256 50 q 96 277 131 186 q 61 472 61 368 q 91 657 61 571 q 177 807 121 743 q 313 908 233 871 q 492 944 393 944 q 703 912 618 944 q 825 833 788 879 q 845 795 838 818 q 856 747 853 772 q 859 696 858 722 q 860 646 860 669 l 832 646 q 733 828 806 767 q 533 889 660 889 z "},"H":{"ha":963,"x_min":22,"x_max":939,"o":"m 814 167 q 831 66 814 104 q 911 28 849 28 l 939 28 l 939 0 l 814 0 q 753 6 778 0 q 715 31 729 13 q 694 82 700 50 q 689 167 689 114 l 689 444 l 272 444 l 272 0 l 147 0 l 147 750 q 130 851 147 813 q 50 889 113 889 l 22 889 l 22 917 l 147 917 q 208 910 183 917 q 247 885 232 904 q 267 834 261 867 q 272 750 272 801 l 272 500 l 689 500 l 689 917 l 814 917 l 814 167 z "},"I":{"ha":396,"x_min":124,"x_max":374,"o":"m 124 917 l 249 917 l 249 167 q 266 66 249 104 q 346 28 283 28 l 374 28 l 374 0 l 249 0 q 188 6 213 0 q 149 31 164 13 q 129 82 135 50 q 124 167 124 114 l 124 917 z "},"J":{"ha":363,"x_min":-12,"x_max":244,"o":"m -12 -162 q 88 -90 56 -162 q 119 108 119 -18 l 119 917 l 244 917 l 244 108 q 233 -26 244 31 q 192 -119 221 -83 q 113 -173 163 -156 q -12 -190 63 -190 l -12 -162 z "},"K":{"ha":940,"x_min":22,"x_max":953,"o":"m 147 917 q 208 910 183 917 q 247 885 232 904 q 267 834 261 867 q 272 750 272 801 l 272 479 l 564 771 q 615 823 590 797 q 666 869 639 849 q 726 903 693 890 q 800 917 758 917 l 869 917 l 869 882 q 769 862 813 882 q 668 785 725 842 l 397 514 l 717 181 q 837 77 774 121 q 953 26 900 33 l 953 0 q 916 -10 938 -6 q 863 -14 894 -14 q 802 -8 833 -14 q 734 17 771 -1 q 656 68 697 36 q 564 153 614 100 l 272 458 l 272 0 l 147 0 l 147 750 q 130 851 147 813 q 50 889 113 889 l 22 889 l 22 917 l 147 917 z "},"L":{"ha":775,"x_min":22,"x_max":765,"o":"m 272 56 l 765 56 l 765 0 l 147 0 l 147 750 q 130 851 147 813 q 50 889 113 889 l 22 889 l 22 917 l 147 917 q 208 910 183 917 q 247 885 232 904 q 267 834 261 867 q 272 750 272 801 l 272 56 z "},"M":{"ha":1188,"x_min":119,"x_max":1168,"o":"m 1168 -62 q 1043 -45 1093 -62 q 964 8 993 -28 q 923 101 935 44 q 911 236 911 158 l 911 771 l 564 0 l 536 0 l 175 785 l 175 0 l 119 0 l 119 917 l 251 917 l 585 194 l 911 917 l 1036 917 l 1036 236 q 1068 38 1036 110 q 1168 -35 1100 -35 l 1168 -62 z "},"N":{"ha":951,"x_min":14,"x_max":833,"o":"m 153 750 q 126 851 153 813 q 28 889 100 889 l 14 889 l 14 917 l 104 917 q 216 894 172 917 q 292 833 260 872 l 778 229 l 778 917 l 833 917 l 833 -14 l 806 -14 l 208 729 l 208 0 l 153 0 l 153 750 z "},"O":{"ha":989,"x_min":64,"x_max":925,"o":"m 786 458 q 766 637 786 557 q 708 773 746 717 q 617 859 671 829 q 494 889 563 889 q 372 859 426 889 q 281 773 318 829 q 223 637 243 717 q 203 458 203 557 q 223 280 203 360 q 281 144 243 200 q 372 58 318 88 q 494 28 426 28 q 617 58 563 28 q 708 144 671 88 q 766 280 746 200 q 786 458 786 360 m 64 458 q 94 649 64 560 q 180 803 124 738 q 316 907 236 869 q 494 944 396 944 q 673 907 593 944 q 809 803 753 869 q 895 649 865 738 q 925 458 925 560 q 895 267 925 356 q 809 113 865 179 q 673 10 753 47 q 494 -28 593 -28 q 316 10 396 -28 q 180 113 236 47 q 94 267 124 179 q 64 458 64 356 z "},"P":{"ha":767,"x_min":22,"x_max":731,"o":"m 376 424 q 442 435 406 424 q 513 472 479 446 q 569 541 546 499 q 592 646 592 583 q 569 751 592 708 q 513 819 546 793 q 442 857 479 846 q 376 868 406 868 q 322 864 350 868 q 272 854 293 860 l 272 438 q 322 428 293 432 q 376 424 350 424 m 272 0 l 147 0 l 147 750 q 130 851 147 813 q 50 889 113 889 l 22 889 l 22 917 l 383 917 q 488 908 428 917 q 601 872 547 900 q 693 788 656 843 q 731 639 731 732 q 713 537 731 579 q 668 465 696 494 q 606 418 640 436 q 538 391 572 400 q 474 378 504 382 q 425 375 444 375 l 272 375 l 272 0 z "},"Q":{"ha":992,"x_min":65,"x_max":940,"o":"m 65 458 q 95 649 65 560 q 181 803 125 738 q 317 907 238 869 q 496 944 397 944 q 674 907 594 944 q 810 803 754 869 q 897 649 867 738 q 926 458 926 560 q 905 295 926 372 q 842 156 883 218 q 742 51 801 94 q 610 -12 683 7 q 663 -110 626 -65 q 747 -187 700 -154 q 844 -238 793 -219 q 940 -257 896 -257 l 940 -285 q 790 -272 865 -285 q 644 -227 715 -258 q 503 -142 572 -196 q 371 -10 435 -89 q 243 55 300 11 q 147 160 186 99 q 86 298 107 222 q 65 458 65 374 m 788 458 q 767 637 788 557 q 710 773 747 717 q 618 859 672 829 q 496 889 564 889 q 374 859 428 889 q 282 773 319 829 q 224 637 244 717 q 204 458 204 557 q 224 280 204 360 q 282 144 244 200 q 374 58 319 88 q 496 28 428 28 q 618 58 564 28 q 710 144 672 88 q 767 280 747 200 q 788 458 788 360 z "},"R":{"ha":826,"x_min":22,"x_max":842,"o":"m 376 472 q 442 483 406 472 q 513 517 479 494 q 569 577 546 540 q 592 667 592 614 q 569 760 592 721 q 513 822 546 799 q 442 857 479 846 q 376 868 406 868 q 322 864 350 868 q 272 854 293 860 l 272 486 q 322 476 293 481 q 376 472 350 472 m 369 424 l 272 424 l 272 0 l 147 0 l 147 750 q 130 851 147 813 q 50 889 113 889 l 22 889 l 22 917 l 383 917 q 488 909 428 917 q 601 875 547 901 q 693 799 656 849 q 731 667 731 750 q 710 565 731 607 q 656 497 689 524 q 584 454 624 469 q 508 431 544 439 l 654 188 q 703 114 681 143 q 749 66 726 85 q 793 39 771 47 q 842 28 815 31 l 842 0 q 808 -10 831 -6 q 758 -14 785 -14 q 691 -4 722 -14 q 631 29 660 6 q 572 92 601 53 q 508 188 542 131 l 369 424 z "},"S":{"ha":740,"x_min":75,"x_max":681,"o":"m 681 233 q 660 128 681 175 q 603 47 640 81 q 512 -6 565 13 q 392 -24 458 -24 q 278 -12 335 -24 q 177 22 222 0 q 103 76 132 44 q 75 146 75 107 l 75 294 l 100 294 q 192 93 124 154 q 379 32 261 32 q 448 41 415 32 q 506 68 481 50 q 546 113 531 86 q 561 174 561 139 q 523 278 561 235 q 408 365 485 321 l 238 467 q 112 574 149 519 q 75 706 75 628 q 94 803 75 760 q 149 877 114 846 q 234 925 185 908 q 344 942 283 942 q 449 931 396 942 q 546 898 503 919 q 617 845 589 876 q 644 775 644 814 l 644 626 l 619 626 q 529 826 596 767 q 344 886 463 886 q 285 876 314 886 q 233 849 256 867 q 197 804 211 831 q 183 746 183 778 q 193 692 183 715 q 222 647 203 668 q 271 606 242 626 q 338 564 300 586 l 508 463 q 585 412 553 436 q 639 360 618 388 q 670 303 660 333 q 681 233 681 272 z "},"T":{"ha":810,"x_min":29,"x_max":793,"o":"m 793 917 l 793 861 l 481 861 l 481 0 l 356 0 l 356 861 l 231 861 q 102 823 147 861 q 57 701 57 785 l 29 701 l 29 806 q 34 847 29 826 q 52 882 39 867 q 88 907 65 897 q 147 917 111 917 l 793 917 z "},"U":{"ha":954,"x_min":13,"x_max":846,"o":"m 138 750 q 120 851 138 813 q 40 889 103 889 l 13 889 l 13 917 l 138 917 q 198 910 174 917 q 237 885 222 904 q 257 834 251 867 q 263 750 263 801 l 263 354 q 275 223 263 281 q 317 125 288 165 q 392 63 346 85 q 508 42 439 42 q 642 63 588 42 q 729 127 696 83 q 776 238 763 171 q 790 396 790 304 l 790 917 l 846 917 l 846 396 q 831 217 846 294 q 776 89 815 140 q 667 12 736 38 q 492 -14 599 -14 q 322 12 390 -14 q 213 89 254 38 q 155 217 172 140 q 138 396 138 294 l 138 750 z "},"V":{"ha":889,"x_min":-40,"x_max":858,"o":"m 486 194 q 544 326 521 275 q 581 413 567 378 q 606 471 596 447 q 625 517 615 494 q 646 568 635 540 q 676 640 657 596 q 722 751 694 685 q 792 917 750 817 l 858 917 l 460 -14 l 435 -14 l 113 754 q 81 820 96 793 q 49 864 67 847 q 10 889 31 881 q -40 900 -11 897 l -40 928 q -19 929 -35 928 q 7 931 -3 931 q 64 925 32 931 q 128 901 96 919 q 192 849 161 883 q 249 754 224 814 l 486 194 z "},"W":{"ha":1203,"x_min":-44,"x_max":1157,"o":"m 108 754 q 81 820 94 793 q 49 864 67 847 q 9 889 32 881 q -44 900 -14 897 l -44 928 q -23 929 -39 928 q 3 931 -7 931 q 65 926 32 931 q 129 903 97 921 q 190 849 161 885 q 240 754 219 814 l 426 218 l 575 658 l 542 754 q 514 820 528 793 q 483 864 500 847 q 442 889 465 881 q 389 900 419 897 l 389 928 q 410 929 394 928 q 436 931 426 931 q 498 926 465 931 q 563 903 531 921 q 624 849 594 885 q 674 754 653 814 l 860 218 l 1097 917 l 1157 917 l 839 -14 l 811 -14 l 606 571 l 406 -14 l 378 -14 l 108 754 z "},"X":{"ha":926,"x_min":-12,"x_max":946,"o":"m 126 0 l 57 0 l 404 451 l 210 736 q 172 788 192 763 q 128 835 153 814 q 69 872 103 857 q -12 889 35 886 l -12 917 l 154 917 q 216 903 188 917 q 268 867 244 889 q 311 817 292 844 q 349 764 331 790 l 488 556 l 765 917 l 835 917 l 522 507 l 744 181 q 783 128 763 154 q 829 81 804 103 q 883 45 854 60 q 946 28 913 31 l 946 0 l 800 0 q 738 14 767 0 q 686 50 710 28 q 642 99 663 72 q 606 153 622 126 l 439 403 l 126 0 z "},"Y":{"ha":872,"x_min":-35,"x_max":853,"o":"m 500 451 l 790 917 l 853 917 l 528 389 l 528 0 l 403 0 l 403 379 l 167 736 q 126 794 146 767 q 82 841 106 821 q 30 874 58 861 q -35 889 1 886 l -35 917 l 90 917 q 160 903 129 917 q 215 869 190 890 q 260 820 240 847 q 299 764 281 793 l 500 451 z "},"Z":{"ha":821,"x_min":33,"x_max":797,"o":"m 797 917 l 207 56 l 776 56 l 776 0 l 33 0 l 33 28 l 610 861 l 276 861 q 148 823 193 861 q 103 701 103 785 l 75 701 l 75 806 q 80 847 75 826 q 98 882 85 867 q 134 907 111 897 q 193 917 157 917 l 797 917 z "},"[":{"ha":439,"x_min":104,"x_max":403,"o":"m 403 -278 l 104 -278 l 104 944 l 403 944 l 403 889 l 215 889 l 215 -222 l 403 -222 l 403 -278 z "},"\\":{"ha":611,"x_min":32,"x_max":579,"o":"m 478 0 l 32 917 l 133 917 l 579 0 l 478 0 z "},"]":{"ha":439,"x_min":36,"x_max":335,"o":"m 36 -222 l 224 -222 l 224 889 l 36 889 l 36 944 l 335 944 l 335 -278 l 36 -278 l 36 -222 z "},"^":{"ha":681,"x_min":28,"x_max":653,"o":"m 326 944 l 354 944 l 653 458 l 560 458 l 340 815 l 121 458 l 28 458 l 326 944 z "},"_":{"ha":600,"x_min":22,"x_max":578,"o":"m 578 -83 l 22 -83 l 22 0 l 578 0 l 578 -83 z "},"`":{"ha":278,"x_min":28,"x_max":250,"o":"m 28 944 l 167 944 l 250 667 l 181 667 l 28 944 z "},"a":{"ha":668,"x_min":54,"x_max":575,"o":"m 450 319 l 408 319 q 245 281 304 319 q 186 181 186 243 q 197 122 186 147 q 226 81 208 97 q 268 56 244 64 q 318 49 292 49 q 399 74 369 49 q 450 132 429 100 l 450 319 m 506 0 l 457 63 l 450 63 q 382 11 429 36 q 256 -14 335 -14 q 192 -5 226 -14 q 126 26 157 4 q 75 86 96 49 q 54 181 54 124 q 83 275 54 238 q 161 335 113 313 q 274 366 210 357 q 408 375 338 375 l 450 375 q 439 494 450 447 q 408 566 428 540 q 362 601 389 592 q 304 611 335 611 q 206 586 246 611 q 151 493 167 561 l 89 493 q 93 560 89 529 q 124 618 97 592 q 159 640 136 631 q 210 656 182 650 q 269 664 238 661 q 332 667 300 667 q 423 656 379 667 q 501 615 467 646 q 555 526 535 583 q 575 375 575 468 l 575 0 l 506 0 z "},"b":{"ha":726,"x_min":-25,"x_max":663,"o":"m 225 125 q 280 67 246 93 q 371 42 314 42 q 442 64 413 42 q 492 124 472 86 q 522 215 513 163 q 531 326 531 267 q 521 438 531 386 q 490 528 511 490 q 437 589 469 567 q 357 611 404 611 q 291 598 325 611 q 225 569 257 585 l 225 125 m 100 750 q 83 851 100 813 q 3 889 65 889 l -25 889 l -25 917 l 100 917 q 160 910 136 917 q 199 885 185 904 q 219 834 214 867 q 225 750 225 801 l 225 625 q 299 653 257 640 q 399 667 340 667 q 516 640 467 667 q 598 567 565 613 q 647 459 631 521 q 663 326 663 397 q 647 194 663 256 q 599 86 631 132 q 522 13 568 40 q 413 -14 475 -14 q 290 11 335 -14 q 225 63 246 36 l 218 63 l 169 0 l 100 0 l 100 750 z "},"c":{"ha":671,"x_min":63,"x_max":625,"o":"m 368 667 q 492 656 442 667 q 569 618 543 644 q 590 590 582 606 q 600 554 597 575 q 603 505 603 533 q 604 438 604 476 l 576 438 q 520 569 571 526 q 396 611 469 611 q 306 589 343 611 q 243 528 268 567 q 206 438 218 490 q 194 326 194 386 q 206 215 194 267 q 243 124 218 163 q 306 64 268 86 q 396 42 343 42 q 515 71 469 42 q 597 153 561 100 l 625 132 q 515 19 578 53 q 368 -14 451 -14 q 233 13 290 -14 q 138 86 175 40 q 81 194 100 132 q 63 326 63 256 q 81 459 63 397 q 138 567 100 521 q 233 640 175 613 q 368 667 290 667 z "},"d":{"ha":728,"x_min":65,"x_max":628,"o":"m 503 569 q 437 598 471 585 q 371 611 403 611 q 291 589 324 611 q 238 528 258 567 q 207 438 217 490 q 197 326 197 386 q 206 215 197 267 q 235 124 215 163 q 285 64 256 86 q 357 42 315 42 q 410 49 388 42 q 451 67 433 56 q 480 94 468 79 q 503 125 492 110 l 503 569 m 628 0 l 558 0 l 510 63 l 503 63 q 477 36 492 50 q 440 11 463 22 q 388 -7 418 0 q 315 -14 357 -14 q 206 13 253 -14 q 127 86 158 40 q 81 194 96 132 q 65 326 65 256 q 81 459 65 397 q 130 567 97 521 q 212 640 163 613 q 329 667 261 667 q 429 653 388 667 q 503 625 471 640 l 503 750 q 485 851 503 813 q 406 889 468 889 l 378 889 l 378 917 l 503 917 q 563 910 539 917 q 602 885 588 904 q 622 834 617 867 q 628 750 628 801 l 628 0 z "},"e":{"ha":678,"x_min":63,"x_max":618,"o":"m 615 306 l 194 306 q 207 200 194 249 q 244 116 219 151 q 303 61 268 81 q 382 42 338 42 q 495 71 450 42 q 576 153 540 100 l 604 132 q 495 19 557 53 q 354 -14 433 -14 q 226 13 281 -14 q 135 86 172 40 q 81 194 99 132 q 63 326 63 256 q 81 459 63 397 q 136 567 100 521 q 224 640 172 613 q 340 667 275 667 q 550 588 482 667 q 618 361 618 508 l 615 306 m 486 361 q 450 547 486 482 q 340 611 414 611 q 282 592 308 611 q 236 540 256 574 q 206 461 217 507 q 194 361 194 415 l 486 361 z "},"f":{"ha":468,"x_min":29,"x_max":536,"o":"m 363 875 q 319 866 339 875 q 283 836 299 857 q 260 781 268 815 q 251 694 251 746 l 251 653 l 446 653 l 446 597 l 251 597 l 251 0 l 126 0 l 126 597 l 29 597 l 29 653 l 126 653 l 126 694 q 148 813 126 767 q 203 885 169 860 q 281 921 238 911 q 369 931 325 931 q 488 910 456 931 q 514 883 503 899 q 536 847 525 868 l 494 813 q 363 875 453 875 z "},"g":{"ha":683,"x_min":36,"x_max":647,"o":"m 78 458 q 99 558 78 518 q 155 622 119 599 q 239 656 190 646 q 342 667 288 667 l 599 667 l 599 632 l 508 618 l 508 611 q 578 551 550 590 q 606 458 606 511 q 585 358 606 399 q 528 294 564 318 q 444 260 493 271 q 342 250 396 250 q 196 201 196 250 q 342 153 196 153 q 460 140 404 153 q 557 102 515 128 q 623 35 599 76 q 647 -62 647 -6 q 624 -163 647 -122 q 559 -230 600 -204 q 463 -267 518 -256 q 342 -278 407 -278 q 221 -267 276 -278 q 124 -230 165 -256 q 60 -163 83 -204 q 36 -62 36 -122 q 81 51 36 6 q 189 118 126 97 q 151 149 168 129 q 133 201 133 169 q 150 250 133 233 q 182 278 167 267 q 109 344 140 299 q 78 458 78 390 m 279 104 q 194 44 226 83 q 161 -62 161 6 q 212 -184 161 -146 q 342 -222 263 -222 q 472 -184 421 -222 q 522 -62 522 -146 q 356 97 522 76 l 279 104 m 481 458 q 440 580 481 542 q 342 618 400 618 q 288 610 313 618 q 244 583 263 601 q 214 533 225 564 q 203 458 203 503 q 214 383 203 414 q 244 334 225 353 q 288 307 263 315 q 342 299 313 299 q 396 307 371 299 q 440 334 421 315 q 469 383 458 353 q 481 458 481 414 z "},"h":{"ha":735,"x_min":-25,"x_max":642,"o":"m 225 597 q 297 645 251 624 q 406 667 343 667 q 492 656 450 667 q 568 617 535 646 q 622 540 601 589 q 642 417 642 492 l 642 0 l 517 0 l 517 417 q 503 504 517 468 q 469 563 490 540 q 420 594 447 585 q 364 604 393 604 q 287 582 322 604 q 225 531 251 560 l 225 0 l 100 0 l 100 750 q 83 851 100 813 q 3 889 65 889 l -25 889 l -25 917 l 100 917 q 160 910 136 917 q 199 885 185 904 q 219 834 214 867 q 225 750 225 801 l 225 597 z "},"i":{"ha":342,"x_min":-4,"x_max":246,"o":"m 246 0 l 121 0 l 121 486 q 103 587 121 549 q 24 625 86 625 l -4 625 l -4 653 l 121 653 q 181 647 157 653 q 220 622 206 640 q 240 570 235 603 q 246 486 246 538 l 246 0 m 238 799 q 220 753 238 769 q 174 736 203 736 q 119 763 142 736 q 96 825 96 789 q 113 871 96 854 q 160 888 131 888 q 215 861 192 888 q 238 799 238 835 z "},"j":{"ha":342,"x_min":-11,"x_max":246,"o":"m 121 486 q 103 587 121 549 q 24 625 86 625 l -4 625 l -4 653 l 121 653 q 181 647 157 653 q 220 622 206 640 q 240 570 235 603 q 246 486 246 538 l 246 35 q 234 -100 246 -43 q 193 -193 222 -157 q 114 -247 164 -229 q -11 -264 64 -264 l -11 -236 q 89 -164 57 -236 q 121 35 121 -92 l 121 486 m 238 799 q 220 753 238 769 q 174 736 203 736 q 119 763 142 736 q 96 825 96 789 q 113 871 96 854 q 160 888 131 888 q 215 861 192 888 q 238 799 238 835 z "},"k":{"ha":674,"x_min":-25,"x_max":663,"o":"m 225 340 l 399 563 q 471 628 431 603 q 579 653 511 653 l 621 653 l 621 618 q 550 603 585 618 q 489 556 515 588 l 336 361 l 510 139 q 585 60 550 86 q 663 26 621 33 l 663 0 q 633 -10 651 -6 q 593 -14 614 -14 q 490 10 540 -14 q 392 97 439 35 l 225 319 l 225 0 l 100 0 l 100 750 q 83 851 100 813 q 3 889 65 889 l -25 889 l -25 917 l 100 917 q 160 910 136 917 q 199 885 185 904 q 219 834 214 867 q 225 750 225 801 l 225 340 z "},"l":{"ha":336,"x_min":-19,"x_max":231,"o":"m 231 0 l 106 0 l 106 750 q 88 851 106 813 q 8 889 71 889 l -19 889 l -19 917 l 106 917 q 166 910 142 917 q 205 885 190 904 q 225 834 219 867 q 231 750 231 801 l 231 0 z "},"m":{"ha":1090,"x_min":-4,"x_max":996,"o":"m 246 597 q 318 645 272 624 q 426 667 364 667 q 523 647 479 667 q 593 569 567 628 q 686 642 629 617 q 801 667 743 667 q 876 656 840 667 q 938 617 911 646 q 980 540 964 589 q 996 417 996 492 l 996 0 l 871 0 l 871 417 q 842 563 871 521 q 760 604 813 604 q 717 596 739 604 q 676 574 696 588 q 640 545 657 561 q 614 514 624 529 q 620 468 619 499 q 621 417 621 438 l 621 0 l 496 0 l 496 417 q 467 563 496 521 q 385 604 438 604 q 308 582 343 604 q 246 531 272 560 l 246 0 l 121 0 l 121 486 q 103 587 121 549 q 24 625 86 625 l -4 625 l -4 653 l 121 653 q 201 638 174 653 q 239 597 228 624 l 246 597 z "},"n":{"ha":756,"x_min":-4,"x_max":663,"o":"m 121 486 q 103 587 121 549 q 24 625 86 625 l -4 625 l -4 653 l 121 653 q 201 638 174 653 q 239 597 228 624 l 246 597 q 318 645 272 624 q 426 667 364 667 q 513 656 471 667 q 589 617 556 646 q 642 540 622 589 q 663 417 663 492 l 663 0 l 538 0 l 538 417 q 524 504 538 468 q 490 563 511 540 q 441 594 468 585 q 385 604 414 604 q 308 582 343 604 q 246 531 272 560 l 246 0 l 121 0 l 121 486 z "},"o":{"ha":736,"x_min":63,"x_max":674,"o":"m 542 326 q 529 438 542 386 q 494 528 517 490 q 439 589 471 567 q 368 611 407 611 q 297 589 329 611 q 242 528 265 567 q 207 438 219 490 q 194 326 194 386 q 207 215 194 267 q 242 124 219 163 q 297 64 265 86 q 368 42 329 42 q 439 64 407 42 q 494 124 471 86 q 529 215 517 163 q 542 326 542 267 m 63 326 q 83 459 63 397 q 142 567 103 521 q 238 640 182 613 q 368 667 294 667 q 497 640 440 667 q 594 567 554 613 q 653 459 633 521 q 674 326 674 397 q 653 194 674 256 q 594 86 633 132 q 497 13 554 40 q 368 -14 440 -14 q 238 13 294 -14 q 142 86 182 40 q 83 194 103 132 q 63 326 63 256 z "},"p":{"ha":747,"x_min":-4,"x_max":683,"o":"m 246 83 q 312 55 278 68 q 378 42 346 42 q 458 64 425 42 q 511 124 490 86 q 542 215 532 163 q 551 326 551 267 q 542 438 551 386 q 513 528 533 490 q 463 589 493 567 q 392 611 433 611 q 340 604 363 611 q 301 585 318 597 q 269 558 283 574 q 246 528 256 543 l 246 83 m 121 486 q 103 587 121 549 q 24 625 86 625 l -4 625 l -4 653 l 121 653 q 201 638 174 653 q 239 590 228 622 l 246 590 q 311 642 267 617 q 433 667 356 667 q 542 640 496 667 q 620 567 589 613 q 667 459 651 521 q 683 326 683 397 q 667 194 683 256 q 619 86 651 132 q 537 13 586 40 q 419 -14 488 -14 q 319 -1 361 -14 q 246 28 278 13 l 246 -264 l 121 -264 l 121 486 z "},"q":{"ha":728,"x_min":65,"x_max":628,"o":"m 503 528 q 478 558 492 543 q 448 585 465 574 q 408 604 431 597 q 357 611 386 611 q 285 589 315 611 q 235 528 256 567 q 206 438 215 490 q 197 326 197 386 q 207 215 197 267 q 238 124 217 163 q 291 64 258 86 q 371 42 324 42 q 437 55 403 42 q 503 83 471 68 l 503 528 m 503 28 q 429 -1 471 13 q 329 -14 388 -14 q 212 13 261 -14 q 130 86 163 40 q 81 194 97 132 q 65 326 65 256 q 81 459 65 397 q 127 567 96 521 q 206 640 158 613 q 315 667 253 667 q 438 642 393 667 q 503 590 482 617 l 510 590 l 558 653 l 628 653 l 628 -264 l 503 -264 l 503 28 z "},"r":{"ha":551,"x_min":0,"x_max":535,"o":"m 111 486 q 94 587 111 549 q 14 625 76 625 l 0 625 l 0 653 l 111 653 q 191 638 164 653 q 229 590 218 622 l 236 590 q 299 642 257 617 q 403 667 340 667 q 447 662 424 667 q 486 646 471 657 q 513 619 501 635 q 535 583 524 604 l 479 542 q 434 573 464 563 q 368 583 404 583 q 292 565 326 583 q 236 514 257 546 l 236 0 l 111 0 l 111 486 z "},"s":{"ha":619,"x_min":68,"x_max":561,"o":"m 561 167 q 542 89 561 122 q 492 33 524 56 q 415 -2 460 10 q 318 -14 369 -14 q 182 1 235 -14 q 103 42 129 15 q 72 101 76 68 q 68 188 68 135 l 96 188 q 154 81 107 119 q 290 42 201 42 q 406 69 369 42 q 443 139 443 97 q 412 209 443 181 q 318 264 381 238 l 235 299 q 112 374 156 331 q 68 486 68 418 q 85 564 68 531 q 133 620 103 597 q 206 655 164 643 q 297 667 247 667 q 428 652 376 667 q 506 611 479 638 q 536 551 532 585 q 540 465 540 518 l 513 465 q 455 572 501 533 q 325 611 408 611 q 222 583 257 611 q 186 514 186 556 q 215 448 186 478 q 297 396 244 418 l 381 361 q 515 282 469 325 q 561 167 561 239 z "},"t":{"ha":469,"x_min":29,"x_max":467,"o":"m 126 597 l 29 597 l 29 653 l 126 653 l 126 778 l 196 861 l 251 861 l 251 653 l 418 653 l 418 597 l 251 597 l 251 167 q 349 42 251 42 q 408 50 385 42 q 453 69 432 58 l 467 42 q 441 24 456 33 q 406 6 426 14 q 357 -8 385 -3 q 293 -14 329 -14 q 173 29 219 -14 q 126 167 126 72 l 126 597 z "},"u":{"ha":743,"x_min":-10,"x_max":643,"o":"m 643 0 l 574 0 l 525 56 l 518 56 q 446 8 492 29 q 338 -14 400 -14 q 251 -3 293 -14 q 175 35 208 7 q 122 113 142 64 q 101 236 101 161 l 101 486 q 84 587 101 549 q 4 625 67 625 l -10 625 l -10 653 l 101 653 q 162 647 138 653 q 201 622 186 640 q 221 570 215 603 q 226 486 226 538 l 226 236 q 240 148 226 183 q 274 90 253 113 q 323 58 296 68 q 379 49 350 49 q 456 71 421 49 q 518 122 492 93 l 518 653 l 643 653 l 643 0 z "},"v":{"ha":690,"x_min":-7,"x_max":665,"o":"m 401 194 l 596 653 l 665 653 l 381 -14 l 353 -14 l 138 493 q 106 558 121 532 q 74 601 90 585 q 38 626 57 618 q -7 636 18 635 l -7 664 q 15 665 -1 664 q 40 667 31 667 q 103 660 71 667 q 167 634 136 653 q 225 581 197 615 q 276 493 253 547 l 401 194 z "},"w":{"ha":1040,"x_min":-7,"x_max":1014,"o":"m 764 201 l 944 653 l 1014 653 l 743 -14 l 715 -14 l 542 417 l 368 -14 l 340 -14 l 139 493 q 76 602 107 571 q -7 636 44 633 l -7 664 q 15 665 -1 664 q 42 667 32 667 q 108 659 75 667 q 169 632 140 651 q 224 578 199 613 q 271 493 250 544 l 389 201 l 507 500 q 445 603 475 572 q 368 636 415 633 l 368 664 q 390 665 374 664 q 417 667 407 667 q 483 659 450 667 q 544 632 515 651 q 599 578 574 613 q 646 493 625 544 l 764 201 z "},"x":{"ha":678,"x_min":11,"x_max":671,"o":"m 303 257 l 122 0 l 53 0 l 275 313 l 154 514 q 11 625 96 614 l 11 653 l 129 653 q 216 623 176 653 q 286 542 256 593 l 372 396 l 553 653 l 622 653 l 400 340 l 521 139 q 671 28 579 38 l 671 0 l 546 0 q 459 30 499 0 q 389 111 419 60 l 303 257 z "},"y":{"ha":714,"x_min":-14,"x_max":674,"o":"m 361 -14 l 139 528 q 78 607 118 581 q -14 639 39 633 l -14 667 l 104 667 q 208 638 167 667 q 271 556 249 608 l 429 171 l 604 653 l 674 653 l 403 -90 q 359 -184 382 -147 q 310 -242 336 -221 q 254 -270 285 -262 q 188 -278 224 -278 l 146 -278 l 146 -236 q 204 -230 176 -236 q 255 -208 232 -224 q 297 -163 278 -192 q 333 -90 317 -135 l 361 -14 z "},"z":{"ha":647,"x_min":61,"x_max":603,"o":"m 603 653 l 228 56 l 603 56 l 603 0 l 61 0 l 61 26 l 422 597 l 263 597 q 131 564 174 597 q 89 472 89 531 l 61 472 l 61 542 q 66 583 61 563 q 84 618 71 603 q 120 643 97 633 q 179 653 143 653 l 603 653 z "},"{":{"ha":422,"x_min":15,"x_max":383,"o":"m 15 354 q 81 374 54 360 q 124 410 107 389 q 147 458 140 432 q 154 514 154 485 l 154 708 q 206 864 154 801 q 383 958 258 926 l 383 917 q 324 892 347 906 q 288 861 301 879 q 270 819 275 843 q 265 764 265 794 l 265 528 q 229 399 265 444 q 119 333 193 354 q 229 267 193 313 q 265 139 265 222 l 265 -97 q 270 -153 265 -129 q 288 -194 275 -176 q 324 -226 301 -212 q 383 -250 347 -240 l 383 -292 q 206 -199 258 -261 q 154 -42 154 -136 l 154 153 q 147 208 154 182 q 124 256 140 235 q 81 292 107 278 q 15 313 54 307 l 15 354 z "},"|":{"ha":333,"x_min":104,"x_max":229,"o":"m 229 944 l 229 -264 l 104 -264 l 104 944 l 229 944 z "},"}":{"ha":422,"x_min":39,"x_max":407,"o":"m 407 313 q 342 292 368 307 q 299 256 315 278 q 275 208 282 235 q 268 153 268 182 l 268 -42 q 216 -199 268 -136 q 39 -292 164 -261 l 39 -250 q 98 -226 75 -240 q 134 -194 121 -212 q 152 -153 147 -176 q 157 -97 157 -129 l 157 139 q 193 267 157 222 q 303 333 229 313 q 193 399 229 354 q 157 528 157 444 l 157 764 q 152 819 157 794 q 134 861 147 843 q 98 892 121 879 q 39 917 75 906 l 39 958 q 216 864 164 926 q 268 708 268 801 l 268 514 q 275 458 268 485 q 299 410 282 432 q 342 374 315 389 q 407 354 368 360 l 407 313 z "},"~":{"ha":874,"x_min":83,"x_max":792,"o":"m 625 250 q 523 267 572 250 q 427 306 474 285 q 336 344 381 326 q 250 361 292 361 q 168 333 197 361 q 139 264 139 306 l 83 264 q 98 353 83 315 q 135 413 113 390 q 188 447 158 436 q 250 458 218 458 q 351 441 301 458 q 448 403 401 424 q 539 365 494 382 q 625 347 583 347 q 707 375 678 347 q 736 444 736 403 l 792 444 q 777 355 792 392 q 740 295 763 318 q 686 261 717 272 q 625 250 656 250 z "}," ":{"ha":347,"x_min":0,"x_max":0,"o":""},"¡":{"ha":306,"x_min":78,"x_max":228,"o":"m 218 -269 l 88 -269 l 113 432 l 193 432 l 218 -269 m 153 517 q 100 538 122 517 q 78 590 78 560 q 100 644 78 622 q 153 667 122 667 q 206 644 183 667 q 228 590 228 622 q 206 538 228 560 q 153 517 183 517 z "},"¢":{"ha":671,"x_min":56,"x_max":618,"o":"m 389 722 l 389 667 q 493 654 447 667 q 563 618 539 642 q 583 590 575 606 q 593 554 590 575 q 597 505 596 533 q 597 438 597 476 l 569 438 q 513 569 564 526 q 389 611 463 611 l 389 42 q 508 71 463 42 q 590 153 554 100 l 618 132 q 519 26 575 60 q 389 -14 463 -8 l 389 -69 l 333 -69 l 333 -14 q 210 20 263 -8 q 124 94 158 49 q 73 200 90 140 q 56 326 56 260 q 73 453 56 393 q 124 558 90 513 q 210 633 158 604 q 333 667 263 661 l 333 722 l 389 722 m 188 326 q 197 229 188 275 q 224 147 206 183 q 269 84 242 110 q 333 49 297 58 l 333 604 q 269 568 297 593 q 224 506 242 543 q 197 424 206 469 q 188 326 188 378 z "},"£":{"ha":733,"x_min":44,"x_max":669,"o":"m 163 639 q 183 790 163 732 q 237 878 203 847 q 315 920 271 910 q 406 931 358 931 q 468 928 436 931 q 528 919 500 925 q 578 904 556 914 q 614 882 601 894 q 644 824 640 856 q 649 757 649 793 l 586 757 q 531 850 571 825 q 433 875 492 875 q 375 865 401 875 q 329 830 349 856 q 299 758 310 804 q 288 639 288 711 l 288 500 l 482 500 l 482 444 l 288 444 l 288 306 q 267 147 288 206 q 211 56 247 88 l 468 56 q 597 94 551 56 q 642 215 642 132 l 669 215 l 669 111 q 665 70 669 90 q 647 35 660 50 q 610 10 633 19 q 551 0 588 0 l 44 0 l 44 35 q 95 60 74 43 q 132 110 117 78 q 155 190 147 142 q 163 306 163 238 l 163 444 l 65 444 l 65 500 l 163 500 l 163 639 z "},"¤":{"ha":800,"x_min":47,"x_max":756,"o":"m 408 458 q 490 472 451 460 q 556 510 528 485 q 600 574 583 535 q 617 667 617 613 q 599 756 617 718 q 553 819 582 794 q 485 856 524 844 q 401 868 446 868 q 347 864 375 868 q 297 854 318 860 l 297 458 l 408 458 m 658 278 l 297 278 l 297 0 l 172 0 l 172 278 l 89 278 l 89 333 l 172 333 l 172 403 l 89 403 l 89 458 l 172 458 l 172 750 q 155 851 172 813 q 75 889 138 889 l 47 889 l 47 917 l 408 917 q 539 904 476 917 q 649 863 601 892 q 726 785 697 833 q 756 667 756 738 q 726 541 756 592 q 649 460 697 490 q 539 416 601 429 q 408 403 476 403 l 297 403 l 297 333 l 658 333 l 658 278 z "},"¥":{"ha":954,"x_min":33,"x_max":921,"o":"m 568 451 l 858 917 l 921 917 l 596 389 l 596 368 l 728 368 l 728 313 l 596 313 l 596 257 l 728 257 l 728 201 l 596 201 l 596 0 l 471 0 l 471 201 l 339 201 l 339 257 l 471 257 l 471 313 l 339 313 l 339 368 l 471 368 l 471 379 l 235 736 q 194 794 214 767 q 150 841 174 821 q 98 874 126 861 q 33 889 69 886 l 33 917 l 158 917 q 228 903 197 917 q 283 869 258 890 q 328 820 308 847 q 367 764 349 793 l 568 451 z "},"¦":{"ha":342,"x_min":108,"x_max":233,"o":"m 233 944 l 233 458 l 108 458 l 108 944 l 233 944 m 233 222 l 233 -264 l 108 -264 l 108 222 l 233 222 z "},"§":{"ha":600,"x_min":71,"x_max":529,"o":"m 210 750 q 233 667 210 701 q 292 606 257 633 q 369 553 328 578 q 447 499 411 528 q 506 432 482 469 q 529 340 529 394 q 490 213 529 260 q 382 139 451 165 q 472 53 435 103 q 508 -69 508 3 q 491 -163 508 -124 q 444 -228 474 -203 q 376 -266 415 -254 q 293 -278 338 -278 q 187 -263 235 -278 q 113 -222 139 -249 q 82 -162 86 -196 q 78 -76 78 -129 l 106 -76 q 155 -183 117 -144 q 251 -222 193 -222 q 352 -191 314 -222 q 390 -97 390 -160 q 367 -15 390 -49 q 308 47 343 19 q 231 100 272 75 q 153 154 189 125 q 94 221 118 183 q 71 313 71 258 q 110 440 71 392 q 217 514 149 488 q 128 599 164 549 q 92 722 92 650 q 109 816 92 776 q 156 881 126 856 q 224 919 185 907 q 307 931 263 931 q 413 916 365 931 q 488 875 461 901 q 518 815 514 849 q 522 729 522 782 l 494 729 q 445 836 483 797 q 349 875 407 875 q 248 844 286 875 q 210 750 210 813 m 271 482 q 203 441 231 469 q 175 354 175 413 q 217 253 175 296 q 329 171 260 210 q 397 212 369 183 q 425 299 425 240 q 383 400 425 357 q 271 482 340 443 z "},"¨":{"ha":431,"x_min":28,"x_max":403,"o":"m 403 1028 q 384 977 403 996 q 333 958 365 958 q 283 977 301 958 q 264 1028 264 996 q 283 1078 264 1060 q 333 1097 301 1097 q 384 1078 365 1097 q 403 1028 403 1060 m 167 1028 q 148 977 167 996 q 97 958 129 958 q 47 977 65 958 q 28 1028 28 996 q 47 1078 28 1060 q 97 1097 65 1097 q 148 1078 129 1097 q 167 1028 167 1060 z "},"©":{"ha":1097,"x_min":56,"x_max":1042,"o":"m 549 951 q 746 915 656 951 q 902 812 836 878 q 1005 656 968 746 q 1042 458 1042 565 q 1005 261 1042 351 q 902 105 968 171 q 746 2 836 39 q 549 -35 656 -35 q 351 2 442 -35 q 195 105 261 39 q 92 261 129 171 q 56 458 56 351 q 92 656 56 565 q 195 812 129 746 q 351 915 261 878 q 549 951 442 951 m 549 21 q 725 53 644 21 q 864 143 806 85 q 954 282 922 201 q 986 458 986 363 q 954 635 986 554 q 864 774 922 715 q 725 864 806 832 q 549 896 644 896 q 372 864 453 896 q 233 774 292 832 q 143 635 175 715 q 111 458 111 554 q 143 282 111 363 q 233 143 175 201 q 372 53 292 85 q 549 21 453 21 m 761 572 q 698 703 744 661 q 576 744 651 744 q 493 730 532 744 q 424 681 454 715 q 377 592 394 647 q 360 454 360 536 q 372 354 360 403 q 411 267 385 306 q 478 206 438 229 q 576 183 519 183 q 693 215 644 183 q 779 310 742 247 l 797 296 q 692 178 753 211 q 549 146 631 146 q 433 169 485 146 q 346 235 382 193 q 290 333 310 276 q 271 454 271 389 q 293 582 271 522 q 353 685 315 642 q 441 755 390 729 q 549 781 492 781 q 678 759 624 781 q 756 708 732 738 q 776 650 774 688 q 779 572 779 613 l 761 572 z "},"ª":{"ha":446,"x_min":71,"x_max":357,"o":"m 285 729 l 263 729 q 174 706 206 729 q 143 647 143 682 q 161 596 143 611 q 207 581 179 581 q 254 597 235 581 q 285 629 274 613 l 285 729 m 315 557 l 289 592 l 285 592 q 248 563 274 576 q 181 550 222 550 q 146 553 165 550 q 110 567 126 557 q 82 597 93 578 q 71 647 71 617 q 87 699 71 678 q 129 735 103 721 q 190 754 156 749 q 263 760 225 760 l 285 760 q 278 824 285 799 q 262 863 272 849 q 238 881 251 876 q 207 886 224 886 q 154 873 175 886 q 125 824 133 860 l 90 824 q 92 859 90 843 q 110 890 94 875 q 156 911 124 906 q 221 917 188 917 q 271 911 246 917 q 315 889 296 906 q 345 841 333 872 q 357 760 357 810 l 357 557 l 315 557 z "},"«":{"ha":517,"x_min":49,"x_max":438,"o":"m 382 514 l 438 514 l 354 313 l 438 111 l 382 111 l 243 313 l 382 514 m 188 313 l 319 42 l 264 42 l 49 313 l 264 583 l 319 583 l 188 313 z "},"¬":{"ha":908,"x_min":94,"x_max":817,"o":"m 733 319 l 94 319 l 94 403 l 817 403 l 817 181 l 733 181 l 733 319 z "},"­":{"ha":538,"x_min":92,"x_max":446,"o":"m 92 417 l 446 417 l 446 319 l 92 319 l 92 417 z "},"®":{"ha":1097,"x_min":56,"x_max":1042,"o":"m 549 951 q 746 915 656 951 q 902 812 836 878 q 1005 656 968 746 q 1042 458 1042 565 q 1005 261 1042 351 q 902 105 968 171 q 746 2 836 39 q 549 -35 656 -35 q 351 2 442 -35 q 195 105 261 39 q 92 261 129 171 q 56 458 56 351 q 92 656 56 565 q 195 812 129 746 q 351 915 261 878 q 549 951 442 951 m 549 21 q 725 53 644 21 q 864 143 806 85 q 954 282 922 201 q 986 458 986 363 q 954 635 986 554 q 864 774 922 715 q 725 864 806 832 q 549 896 644 896 q 372 864 453 896 q 233 774 292 832 q 143 635 175 715 q 111 458 111 554 q 143 282 111 363 q 233 143 175 201 q 372 53 292 85 q 549 21 453 21 m 522 479 q 565 486 540 479 q 610 509 589 493 q 647 549 632 525 q 661 608 661 574 q 647 667 661 643 q 610 707 632 692 q 565 729 589 722 q 522 736 540 736 q 487 733 506 736 q 454 726 468 729 l 454 489 q 487 483 468 486 q 522 479 506 479 m 521 449 l 454 449 l 454 174 l 374 174 l 374 658 q 363 724 374 699 q 311 749 351 749 l 293 749 l 293 767 l 526 767 q 594 762 556 767 q 667 740 632 757 q 727 690 703 722 q 751 603 751 657 q 738 539 751 565 q 704 495 725 513 q 658 468 683 478 q 608 454 632 458 l 708 293 q 768 216 743 238 q 826 190 793 194 l 826 174 q 768 164 811 164 q 728 170 746 164 q 692 192 710 176 q 655 232 674 207 q 614 293 636 257 l 521 449 z "},"¯":{"ha":347,"x_min":0,"x_max":0,"o":""},"°":{"ha":572,"x_min":64,"x_max":508,"o":"m 286 868 q 232 857 257 868 q 188 826 207 846 q 158 780 169 807 q 147 722 147 753 q 158 664 147 690 q 188 618 169 638 q 232 588 207 599 q 286 576 257 576 q 340 588 315 576 q 384 618 365 599 q 414 664 403 638 q 425 722 425 690 q 414 780 425 753 q 384 826 403 807 q 340 857 365 846 q 286 868 315 868 m 286 944 q 374 927 333 944 q 444 880 414 910 q 491 810 474 850 q 508 722 508 769 q 491 635 508 675 q 444 565 474 594 q 374 517 414 535 q 286 500 333 500 q 199 517 239 500 q 128 565 158 535 q 81 635 99 594 q 64 722 64 675 q 81 810 64 769 q 128 880 99 850 q 199 927 158 910 q 286 944 239 944 z "},"±":{"ha":797,"x_min":79,"x_max":718,"o":"m 79 83 l 79 167 l 357 167 l 357 417 l 79 417 l 79 500 l 357 500 l 357 778 l 440 778 l 440 500 l 718 500 l 718 417 l 440 417 l 440 167 l 718 167 l 718 83 l 79 83 z "},"²":{"ha":446,"x_min":85,"x_max":363,"o":"m 267 554 q 326 568 306 554 q 346 615 346 582 l 363 615 l 363 574 q 352 539 363 554 q 308 524 342 524 l 85 524 l 85 556 q 172 641 135 604 q 235 709 210 678 q 272 770 260 740 q 285 836 285 800 q 263 906 285 885 q 208 926 240 926 q 143 901 169 926 q 107 824 117 876 l 90 824 q 92 869 90 847 q 106 907 94 892 q 156 942 124 928 q 226 957 189 957 q 269 953 246 957 q 311 935 292 949 q 344 899 331 922 q 357 836 357 875 q 340 762 357 796 q 292 696 322 728 q 223 630 263 664 q 140 554 183 596 l 267 554 z "},"³":{"ha":432,"x_min":74,"x_max":365,"o":"m 168 760 q 201 765 185 764 q 225 765 218 765 q 271 759 246 765 q 317 739 296 753 q 351 701 338 725 q 365 642 365 676 q 349 574 365 600 q 308 533 332 547 q 256 515 283 519 q 210 510 229 510 q 131 528 161 510 q 74 578 100 546 l 88 590 q 204 540 133 540 q 267 565 242 540 q 293 642 293 590 q 267 713 293 692 q 213 735 240 735 q 178 733 197 735 q 139 726 158 732 l 119 760 l 290 914 l 174 914 q 115 900 136 914 q 94 851 94 886 l 82 851 l 82 893 q 92 928 82 913 q 136 944 103 944 l 346 944 l 346 919 l 168 760 z "},"´":{"ha":243,"x_min":28,"x_max":215,"o":"m 83 972 l 28 972 l 83 1153 l 215 1153 l 83 972 z "},"µ":{"ha":735,"x_min":103,"x_max":658,"o":"m 103 -264 l 103 653 l 228 653 l 228 326 q 237 215 228 267 q 266 124 246 163 q 316 64 286 86 q 388 42 346 42 q 478 67 444 42 q 533 125 513 93 l 533 653 l 658 653 l 658 0 l 589 0 l 540 63 l 533 63 q 509 36 522 50 q 477 11 496 22 q 433 -7 458 0 q 374 -14 407 -14 q 228 49 290 -14 l 228 -264 l 103 -264 z "},"¶":{"ha":835,"x_min":39,"x_max":775,"o":"m 358 403 q 232 420 290 403 q 131 471 174 438 q 63 552 88 504 q 39 660 39 600 q 63 767 39 719 q 131 849 88 815 q 232 899 174 882 q 358 917 290 917 l 775 917 l 775 861 l 699 861 l 699 -264 l 574 -264 l 574 861 l 483 861 l 483 -264 l 358 -264 l 358 403 z "},"·":{"ha":319,"x_min":85,"x_max":235,"o":"m 160 535 q 213 513 192 535 q 235 460 235 490 q 213 406 235 428 q 160 383 190 383 q 107 406 129 383 q 85 460 85 428 q 107 513 85 490 q 160 535 129 535 z "},"¸":{"ha":250,"x_min":56,"x_max":250,"o":"m 125 0 l 125 -69 l 139 -69 q 218 -95 186 -69 q 250 -171 250 -121 q 218 -246 250 -219 q 139 -272 186 -272 l 56 -272 l 56 -215 l 125 -215 q 181 -171 181 -215 q 125 -125 181 -125 l 63 -125 l 63 0 l 125 0 z "},"¹":{"ha":294,"x_min":53,"x_max":197,"o":"m 197 524 l 125 524 l 125 867 l 68 833 l 53 856 l 143 944 l 197 944 l 197 524 z "},"º":{"ha":465,"x_min":72,"x_max":393,"o":"m 232 926 q 167 881 190 926 q 144 733 144 835 q 167 587 144 633 q 232 540 190 540 q 299 587 276 540 q 321 733 321 633 q 298 881 321 835 q 232 926 275 926 m 232 957 q 354 896 315 957 q 393 733 393 835 q 354 572 393 633 q 232 510 315 510 q 110 572 149 510 q 72 733 72 633 q 110 896 72 835 q 232 957 149 957 z "},"»":{"ha":517,"x_min":79,"x_max":468,"o":"m 274 313 l 135 111 l 79 111 l 163 313 l 79 514 l 135 514 l 274 313 m 197 583 l 253 583 l 468 313 l 253 42 l 197 42 l 329 313 l 197 583 z "},"¼":{"ha":828,"x_min":40,"x_max":768,"o":"m 40 0 l 672 917 l 763 917 l 131 0 l 40 0 m 219 524 l 147 524 l 147 867 l 90 833 l 75 856 l 165 944 l 219 944 l 219 524 m 711 139 l 768 139 l 768 108 l 711 108 l 711 0 l 639 0 l 639 108 l 428 108 l 428 135 l 646 422 l 711 422 l 711 139 m 639 139 l 639 354 l 475 139 l 639 139 z "},"½":{"ha":851,"x_min":40,"x_max":782,"o":"m 40 0 l 672 917 l 763 917 l 131 0 l 40 0 m 219 524 l 147 524 l 147 867 l 90 833 l 75 856 l 165 944 l 219 944 l 219 524 m 686 31 q 745 44 725 31 q 765 92 765 58 l 782 92 l 782 50 q 772 15 782 31 q 728 0 761 0 l 504 0 l 504 32 q 592 117 554 81 q 654 185 629 154 q 692 247 679 217 q 704 313 704 276 q 682 382 704 361 q 628 403 660 403 q 563 378 589 403 q 526 300 536 353 l 510 300 q 512 346 510 324 q 525 383 514 368 q 576 419 543 404 q 646 433 608 433 q 688 429 665 433 q 731 412 711 425 q 763 375 750 399 q 776 313 776 351 q 759 238 776 272 q 712 172 742 204 q 642 106 682 140 q 560 31 603 72 l 686 31 z "},"¾":{"ha":853,"x_min":58,"x_max":803,"o":"m 81 0 l 713 917 l 803 917 l 171 0 l 81 0 m 736 139 l 793 139 l 793 108 l 736 108 l 736 0 l 664 0 l 664 108 l 453 108 l 453 135 l 671 422 l 736 422 l 736 139 m 664 139 l 664 354 l 500 139 l 664 139 m 153 760 q 186 765 169 764 q 210 765 203 765 q 256 759 231 765 q 301 739 281 753 q 336 701 322 725 q 350 642 350 676 q 333 574 350 600 q 292 533 317 547 q 241 515 268 519 q 194 510 214 510 q 115 528 146 510 q 58 578 85 546 l 72 590 q 189 540 118 540 q 252 565 226 540 q 278 642 278 590 q 251 713 278 692 q 197 735 225 735 q 163 733 182 735 q 124 726 143 732 l 104 760 l 275 914 l 158 914 q 100 900 121 914 q 79 851 79 886 l 67 851 l 67 893 q 77 928 67 913 q 121 944 88 944 l 331 944 l 331 919 l 153 760 z "},"¿":{"ha":657,"x_min":40,"x_max":618,"o":"m 360 517 q 306 539 328 517 q 283 593 283 561 q 306 646 283 624 q 360 668 329 668 q 413 646 392 668 q 435 593 435 624 q 413 539 435 561 q 360 517 392 517 m 388 433 q 370 334 386 376 q 331 258 354 292 q 281 194 307 224 q 232 131 254 164 q 194 60 210 99 q 179 -31 179 21 q 194 -122 179 -83 q 233 -187 208 -161 q 291 -226 258 -212 q 360 -239 324 -239 q 506 -178 443 -239 q 590 -3 569 -118 l 618 -3 q 614 -103 618 -56 q 583 -183 610 -151 q 474 -262 546 -229 q 318 -294 401 -294 q 228 -285 276 -294 q 138 -246 179 -275 q 68 -165 96 -217 q 40 -31 40 -114 q 61 72 40 28 q 114 153 82 117 q 183 220 146 189 q 253 283 221 251 q 308 351 286 315 q 332 433 331 386 l 388 433 z "},"À":{"ha":882,"x_min":31,"x_max":919,"o":"m 919 0 q 864 -7 896 -7 q 809 -1 840 -7 q 745 23 778 4 q 681 78 713 42 q 628 174 650 114 l 593 264 l 204 264 l 93 0 l 31 0 l 419 917 l 461 917 l 767 174 q 798 108 783 135 q 831 64 813 81 q 869 39 849 47 q 919 28 890 31 l 919 0 m 225 319 l 565 319 l 399 722 l 225 319 m 281 1153 l 413 1153 l 468 972 l 413 972 l 281 1153 z "},"Á":{"ha":882,"x_min":31,"x_max":919,"o":"m 919 0 q 864 -7 896 -7 q 809 -1 840 -7 q 745 23 778 4 q 681 78 713 42 q 628 174 650 114 l 593 264 l 204 264 l 93 0 l 31 0 l 419 917 l 461 917 l 767 174 q 798 108 783 135 q 831 64 813 81 q 869 39 849 47 q 919 28 890 31 l 919 0 m 225 319 l 565 319 l 399 722 l 225 319 m 475 972 l 419 972 l 475 1153 l 607 1153 l 475 972 z "},"Â":{"ha":882,"x_min":31,"x_max":919,"o":"m 919 0 q 864 -7 896 -7 q 809 -1 840 -7 q 745 23 778 4 q 681 78 713 42 q 628 174 650 114 l 593 264 l 204 264 l 93 0 l 31 0 l 419 917 l 461 917 l 767 174 q 798 108 783 135 q 831 64 813 81 q 869 39 849 47 q 919 28 890 31 l 919 0 m 225 319 l 565 319 l 399 722 l 225 319 m 440 1063 l 322 951 l 253 951 l 364 1111 l 517 1111 l 628 951 l 558 951 l 440 1063 z "},"Ã":{"ha":882,"x_min":31,"x_max":919,"o":"m 919 0 q 864 -7 896 -7 q 809 -1 840 -7 q 745 23 778 4 q 681 78 713 42 q 628 174 650 114 l 593 264 l 204 264 l 93 0 l 31 0 l 419 917 l 461 917 l 767 174 q 798 108 783 135 q 831 64 813 81 q 869 39 849 47 q 919 28 890 31 l 919 0 m 225 319 l 565 319 l 399 722 l 225 319 m 290 972 q 311 1075 290 1046 q 374 1104 332 1104 q 414 1095 396 1104 q 449 1076 432 1086 q 482 1057 465 1065 q 519 1049 499 1049 q 548 1069 535 1049 q 561 1104 561 1089 l 603 1104 q 582 1001 603 1031 q 519 972 561 972 q 480 981 497 972 q 446 999 463 989 q 412 1019 429 1010 q 374 1028 394 1028 q 345 1008 358 1028 q 332 972 332 988 l 290 972 z "},"Ä":{"ha":882,"x_min":31,"x_max":919,"o":"m 919 0 q 864 -7 896 -7 q 809 -1 840 -7 q 745 23 778 4 q 681 78 713 42 q 628 174 650 114 l 593 264 l 204 264 l 93 0 l 31 0 l 419 917 l 461 917 l 767 174 q 798 108 783 135 q 831 64 813 81 q 869 39 849 47 q 919 28 890 31 l 919 0 m 225 319 l 565 319 l 399 722 l 225 319 m 628 1028 q 609 977 628 996 q 558 958 590 958 q 508 977 526 958 q 489 1028 489 996 q 508 1078 489 1060 q 558 1097 526 1097 q 609 1078 590 1097 q 628 1028 628 1060 m 392 1028 q 373 977 392 996 q 322 958 354 958 q 272 977 290 958 q 253 1028 253 996 q 272 1078 253 1060 q 322 1097 290 1097 q 373 1078 354 1097 q 392 1028 392 1060 z "},"Å":{"ha":883,"x_min":31,"x_max":919,"o":"m 322 979 q 332 1024 322 1003 q 358 1062 342 1046 q 395 1088 374 1078 q 440 1097 417 1097 q 485 1088 464 1097 q 523 1062 507 1078 q 549 1024 539 1046 q 558 979 558 1003 q 533 906 558 932 q 482 868 508 879 l 767 174 q 798 108 783 135 q 831 64 813 81 q 869 39 849 47 q 919 28 890 31 l 919 0 q 864 -7 896 -7 q 809 -1 840 -7 q 745 23 778 4 q 681 78 713 42 q 628 174 650 114 l 593 264 l 204 264 l 93 0 l 31 0 l 399 868 q 347 906 372 879 q 322 979 322 932 m 225 319 l 565 319 l 399 722 l 225 319 m 378 979 q 388 943 378 958 q 413 917 397 928 l 468 917 q 493 943 483 928 q 503 979 503 958 q 485 1030 503 1011 q 440 1049 467 1049 q 396 1030 414 1049 q 378 979 378 1011 z "},"Æ":{"ha":1201,"x_min":-19,"x_max":1161,"o":"m 996 917 q 1055 907 1032 917 q 1091 882 1078 897 q 1109 847 1104 867 q 1114 806 1114 826 l 1114 701 l 1086 701 q 1041 823 1086 785 q 913 861 996 861 l 654 861 l 654 500 l 1029 500 l 1029 444 l 654 444 l 654 56 l 897 56 q 1047 90 992 56 q 1133 208 1101 125 l 1161 201 l 1113 69 q 1076 19 1101 38 q 1008 0 1050 0 l 529 0 l 529 264 l 196 264 l 50 0 l -19 0 l 494 917 l 996 917 m 231 319 l 529 319 l 529 854 l 231 319 z "},"Ç":{"ha":924,"x_min":61,"x_max":874,"o":"m 450 -272 l 450 -215 l 519 -215 q 575 -171 575 -215 q 519 -125 575 -125 l 457 -125 l 457 -28 q 292 16 365 -22 q 168 118 219 54 q 89 265 117 182 q 61 444 61 349 q 95 640 61 549 q 188 799 129 731 q 324 906 246 867 q 492 944 403 944 q 690 912 607 944 q 811 833 774 879 q 842 744 838 801 q 846 625 846 688 l 818 625 q 720 825 792 761 q 533 889 649 889 q 405 866 465 889 q 299 791 344 843 q 226 654 253 739 q 200 444 200 569 q 219 292 200 367 q 278 158 238 217 q 381 64 318 100 q 533 28 444 28 q 713 78 638 28 q 846 222 788 128 l 874 201 q 803 98 842 140 q 722 28 765 56 q 627 -12 678 1 q 519 -28 576 -25 l 519 -69 l 533 -69 q 613 -95 581 -69 q 644 -171 644 -121 q 613 -246 644 -219 q 533 -272 581 -272 l 450 -272 z "},"È":{"ha":819,"x_min":22,"x_max":779,"o":"m 614 917 q 673 907 650 917 q 709 882 696 897 q 727 847 722 867 q 732 806 732 826 l 732 701 l 704 701 q 659 823 704 785 q 531 861 614 861 l 272 861 l 272 500 l 647 500 l 647 444 l 272 444 l 272 56 l 515 56 q 665 90 610 56 q 751 208 719 125 l 779 201 l 731 69 q 694 19 719 38 q 626 0 668 0 l 147 0 l 147 750 q 130 851 147 813 q 50 889 113 889 l 22 889 l 22 917 l 614 917 m 272 1153 l 404 1153 l 460 972 l 404 972 l 272 1153 z "},"É":{"ha":819,"x_min":22,"x_max":779,"o":"m 614 917 q 673 907 650 917 q 709 882 696 897 q 727 847 722 867 q 732 806 732 826 l 732 701 l 704 701 q 659 823 704 785 q 531 861 614 861 l 272 861 l 272 500 l 647 500 l 647 444 l 272 444 l 272 56 l 515 56 q 665 90 610 56 q 751 208 719 125 l 779 201 l 731 69 q 694 19 719 38 q 626 0 668 0 l 147 0 l 147 750 q 130 851 147 813 q 50 889 113 889 l 22 889 l 22 917 l 614 917 m 439 972 l 383 972 l 439 1153 l 571 1153 l 439 972 z "},"Ê":{"ha":819,"x_min":22,"x_max":779,"o":"m 614 917 q 673 907 650 917 q 709 882 696 897 q 727 847 722 867 q 732 806 732 826 l 732 701 l 704 701 q 659 823 704 785 q 531 861 614 861 l 272 861 l 272 500 l 647 500 l 647 444 l 272 444 l 272 56 l 515 56 q 665 90 610 56 q 751 208 719 125 l 779 201 l 731 69 q 694 19 719 38 q 626 0 668 0 l 147 0 l 147 750 q 130 851 147 813 q 50 889 113 889 l 22 889 l 22 917 l 614 917 m 418 1113 l 300 1001 l 231 1001 l 342 1161 l 494 1161 l 606 1001 l 536 1001 l 418 1113 z "},"Ë":{"ha":819,"x_min":22,"x_max":779,"o":"m 614 917 q 673 907 650 917 q 709 882 696 897 q 727 847 722 867 q 732 806 732 826 l 732 701 l 704 701 q 659 823 704 785 q 531 861 614 861 l 272 861 l 272 500 l 647 500 l 647 444 l 272 444 l 272 56 l 515 56 q 665 90 610 56 q 751 208 719 125 l 779 201 l 731 69 q 694 19 719 38 q 626 0 668 0 l 147 0 l 147 750 q 130 851 147 813 q 50 889 113 889 l 22 889 l 22 917 l 614 917 m 592 1083 q 573 1033 592 1051 q 522 1014 554 1014 q 472 1033 490 1014 q 453 1083 453 1051 q 472 1134 453 1115 q 522 1153 490 1153 q 573 1134 554 1153 q 592 1083 592 1115 m 356 1083 q 337 1033 356 1051 q 286 1014 318 1014 q 235 1033 254 1014 q 217 1083 217 1051 q 235 1134 217 1115 q 286 1153 254 1153 q 337 1134 318 1153 q 356 1083 356 1115 z "},"Ì":{"ha":396,"x_min":42,"x_max":374,"o":"m 124 917 l 249 917 l 249 167 q 266 66 249 104 q 346 28 283 28 l 374 28 l 374 0 l 249 0 q 188 6 213 0 q 149 31 164 13 q 129 82 135 50 q 124 167 124 114 l 124 917 m 42 1153 l 174 1153 l 229 972 l 174 972 l 42 1153 z "},"Í":{"ha":396,"x_min":124,"x_max":374,"o":"m 124 917 l 249 917 l 249 167 q 266 66 249 104 q 346 28 283 28 l 374 28 l 374 0 l 249 0 q 188 6 213 0 q 149 31 164 13 q 129 82 135 50 q 124 167 124 114 l 124 917 m 207 972 l 151 972 l 207 1153 l 339 1153 l 207 972 z "},"Î":{"ha":396,"x_min":0,"x_max":375,"o":"m 124 917 l 249 917 l 249 167 q 266 66 249 104 q 346 28 283 28 l 374 28 l 374 0 l 249 0 q 188 6 213 0 q 149 31 164 13 q 129 82 135 50 q 124 167 124 114 l 124 917 m 188 1076 l 69 965 l 0 965 l 111 1125 l 264 1125 l 375 965 l 306 965 l 188 1076 z "},"Ï":{"ha":396,"x_min":10,"x_max":374,"o":"m 124 917 l 249 917 l 249 167 q 266 66 249 104 q 346 28 283 28 l 374 28 l 374 0 l 249 0 q 188 6 213 0 q 149 31 164 13 q 129 82 135 50 q 124 167 124 114 l 124 917 m 363 1063 q 344 1012 363 1031 q 293 993 325 993 q 242 1012 261 993 q 224 1063 224 1031 q 242 1113 224 1094 q 293 1132 261 1132 q 344 1113 325 1132 q 363 1063 363 1094 m 149 1063 q 130 1012 149 1031 q 79 993 111 993 q 28 1012 47 993 q 10 1063 10 1031 q 28 1113 10 1094 q 79 1132 47 1132 q 130 1113 111 1132 q 149 1063 149 1094 z "},"Ð":{"ha":993,"x_min":22,"x_max":932,"o":"m 43 486 l 147 486 l 147 750 q 130 851 147 813 q 50 889 113 889 l 22 889 l 22 917 l 386 917 q 626 885 524 917 q 797 794 729 853 q 898 652 864 736 q 932 464 932 568 q 899 277 932 363 q 803 131 867 192 q 644 35 739 69 q 422 0 549 0 l 147 0 l 147 431 l 43 431 l 43 486 m 276 486 l 397 486 l 397 431 l 276 431 l 276 67 q 418 49 358 49 q 561 77 494 49 q 676 159 628 106 q 753 288 725 213 q 781 458 781 364 q 753 626 781 550 q 678 756 726 701 q 562 839 629 810 q 415 868 494 868 q 349 863 385 868 q 276 846 314 857 l 276 486 z "},"Ñ":{"ha":951,"x_min":14,"x_max":833,"o":"m 153 750 q 126 851 153 813 q 28 889 100 889 l 14 889 l 14 917 l 104 917 q 216 894 172 917 q 292 833 260 872 l 778 229 l 778 917 l 833 917 l 833 -14 l 806 -14 l 208 729 l 208 0 l 153 0 l 153 750 m 329 964 q 350 1067 329 1038 q 413 1096 371 1096 q 453 1087 435 1096 q 488 1067 471 1078 q 521 1049 504 1057 q 558 1040 538 1040 q 587 1060 574 1040 q 600 1096 600 1081 l 642 1096 q 621 993 642 1022 q 558 964 600 964 q 519 972 536 964 q 485 991 501 981 q 451 1010 468 1001 q 413 1019 433 1019 q 384 999 397 1019 q 371 964 371 979 l 329 964 z "},"Ò":{"ha":989,"x_min":64,"x_max":925,"o":"m 786 458 q 766 637 786 557 q 708 773 746 717 q 617 859 671 829 q 494 889 563 889 q 372 859 426 889 q 281 773 318 829 q 223 637 243 717 q 203 458 203 557 q 223 280 203 360 q 281 144 243 200 q 372 58 318 88 q 494 28 426 28 q 617 58 563 28 q 708 144 671 88 q 766 280 746 200 q 786 458 786 360 m 64 458 q 94 649 64 560 q 180 803 124 738 q 316 907 236 869 q 494 944 396 944 q 673 907 593 944 q 809 803 753 869 q 895 649 865 738 q 925 458 925 560 q 895 267 925 356 q 809 113 865 179 q 673 10 753 47 q 494 -28 593 -28 q 316 10 396 -28 q 180 113 236 47 q 94 267 124 179 q 64 458 64 356 m 342 1186 l 474 1186 l 529 1006 l 474 1006 l 342 1186 z "},"Ó":{"ha":989,"x_min":64,"x_max":925,"o":"m 786 458 q 766 637 786 557 q 708 773 746 717 q 617 859 671 829 q 494 889 563 889 q 372 859 426 889 q 281 773 318 829 q 223 637 243 717 q 203 458 203 557 q 223 280 203 360 q 281 144 243 200 q 372 58 318 88 q 494 28 426 28 q 617 58 563 28 q 708 144 671 88 q 766 280 746 200 q 786 458 786 360 m 64 458 q 94 649 64 560 q 180 803 124 738 q 316 907 236 869 q 494 944 396 944 q 673 907 593 944 q 809 803 753 869 q 895 649 865 738 q 925 458 925 560 q 895 267 925 356 q 809 113 865 179 q 673 10 753 47 q 494 -28 593 -28 q 316 10 396 -28 q 180 113 236 47 q 94 267 124 179 q 64 458 64 356 m 521 1000 l 465 1000 l 521 1181 l 653 1181 l 521 1000 z "},"Ô":{"ha":989,"x_min":64,"x_max":925,"o":"m 786 458 q 766 637 786 557 q 708 773 746 717 q 617 859 671 829 q 494 889 563 889 q 372 859 426 889 q 281 773 318 829 q 223 637 243 717 q 203 458 203 557 q 223 280 203 360 q 281 144 243 200 q 372 58 318 88 q 494 28 426 28 q 617 58 563 28 q 708 144 671 88 q 766 280 746 200 q 786 458 786 360 m 64 458 q 94 649 64 560 q 180 803 124 738 q 316 907 236 869 q 494 944 396 944 q 673 907 593 944 q 809 803 753 869 q 895 649 865 738 q 925 458 925 560 q 895 267 925 356 q 809 113 865 179 q 673 10 753 47 q 494 -28 593 -28 q 316 10 396 -28 q 180 113 236 47 q 94 267 124 179 q 64 458 64 356 m 488 1111 l 369 1000 l 300 1000 l 411 1160 l 564 1160 l 675 1000 l 606 1000 l 488 1111 z "},"Õ":{"ha":989,"x_min":64,"x_max":925,"o":"m 786 458 q 766 637 786 557 q 708 773 746 717 q 617 859 671 829 q 494 889 563 889 q 372 859 426 889 q 281 773 318 829 q 223 637 243 717 q 203 458 203 557 q 223 280 203 360 q 281 144 243 200 q 372 58 318 88 q 494 28 426 28 q 617 58 563 28 q 708 144 671 88 q 766 280 746 200 q 786 458 786 360 m 64 458 q 94 649 64 560 q 180 803 124 738 q 316 907 236 869 q 494 944 396 944 q 673 907 593 944 q 809 803 753 869 q 895 649 865 738 q 925 458 925 560 q 895 267 925 356 q 809 113 865 179 q 673 10 753 47 q 494 -28 593 -28 q 316 10 396 -28 q 180 113 236 47 q 94 267 124 179 q 64 458 64 356 m 336 1025 q 357 1128 336 1099 q 419 1157 378 1157 q 460 1148 442 1157 q 494 1128 478 1139 q 528 1110 511 1118 q 565 1101 544 1101 q 594 1122 581 1101 q 607 1157 607 1142 l 649 1157 q 628 1054 649 1083 q 565 1025 607 1025 q 526 1033 543 1025 q 492 1052 508 1042 q 458 1072 475 1063 q 419 1081 440 1081 q 391 1060 404 1081 q 378 1025 378 1040 l 336 1025 z "},"Ö":{"ha":989,"x_min":64,"x_max":925,"o":"m 786 458 q 766 637 786 557 q 708 773 746 717 q 617 859 671 829 q 494 889 563 889 q 372 859 426 889 q 281 773 318 829 q 223 637 243 717 q 203 458 203 557 q 223 280 203 360 q 281 144 243 200 q 372 58 318 88 q 494 28 426 28 q 617 58 563 28 q 708 144 671 88 q 766 280 746 200 q 786 458 786 360 m 64 458 q 94 649 64 560 q 180 803 124 738 q 316 907 236 869 q 494 944 396 944 q 673 907 593 944 q 809 803 753 869 q 895 649 865 738 q 925 458 925 560 q 895 267 925 356 q 809 113 865 179 q 673 10 753 47 q 494 -28 593 -28 q 316 10 396 -28 q 180 113 236 47 q 94 267 124 179 q 64 458 64 356 m 682 1090 q 663 1040 682 1058 q 613 1021 644 1021 q 562 1040 581 1021 q 543 1090 543 1058 q 562 1141 543 1122 q 613 1160 581 1160 q 663 1141 644 1160 q 682 1090 682 1122 m 446 1090 q 427 1040 446 1058 q 376 1021 408 1021 q 326 1040 344 1021 q 307 1090 307 1058 q 326 1141 307 1122 q 376 1160 344 1160 q 427 1141 408 1160 q 446 1090 446 1122 z "},"×":{"ha":651,"x_min":71,"x_max":581,"o":"m 325 404 l 129 207 l 71 267 l 267 463 l 71 660 l 129 718 l 326 521 l 522 718 l 581 658 l 385 463 l 581 265 l 522 207 l 325 404 z "},"Ø":{"ha":989,"x_min":64,"x_max":925,"o":"m 175 -28 l 226 67 q 106 235 149 133 q 64 458 64 336 q 94 649 64 560 q 180 803 124 738 q 316 907 236 869 q 494 944 396 944 q 594 933 547 944 q 681 903 640 922 l 704 944 l 806 944 l 756 854 q 881 685 836 788 q 925 458 925 583 q 895 267 925 356 q 809 113 865 179 q 673 10 753 47 q 494 -28 593 -28 q 300 17 386 -28 l 276 -28 l 175 -28 m 786 458 q 766 634 786 556 q 710 769 746 713 l 336 82 q 494 28 406 28 q 617 58 563 28 q 708 144 671 88 q 766 280 746 200 q 786 458 786 360 m 203 458 q 221 286 203 363 q 274 154 239 210 l 646 839 q 494 889 581 889 q 372 859 426 889 q 281 773 318 829 q 223 637 243 717 q 203 458 203 557 z "},"Ù":{"ha":954,"x_min":13,"x_max":846,"o":"m 138 750 q 120 851 138 813 q 40 889 103 889 l 13 889 l 13 917 l 138 917 q 198 910 174 917 q 237 885 222 904 q 257 834 251 867 q 263 750 263 801 l 263 354 q 275 223 263 281 q 317 125 288 165 q 392 63 346 85 q 508 42 439 42 q 642 63 588 42 q 729 127 696 83 q 776 238 763 171 q 790 396 790 304 l 790 917 l 846 917 l 846 396 q 831 217 846 294 q 776 89 815 140 q 667 12 736 38 q 492 -14 599 -14 q 322 12 390 -14 q 213 89 254 38 q 155 217 172 140 q 138 396 138 294 l 138 750 m 374 1125 l 506 1125 l 561 944 l 506 944 l 374 1125 z "},"Ú":{"ha":954,"x_min":13,"x_max":846,"o":"m 138 750 q 120 851 138 813 q 40 889 103 889 l 13 889 l 13 917 l 138 917 q 198 910 174 917 q 237 885 222 904 q 257 834 251 867 q 263 750 263 801 l 263 354 q 275 223 263 281 q 317 125 288 165 q 392 63 346 85 q 508 42 439 42 q 642 63 588 42 q 729 127 696 83 q 776 238 763 171 q 790 396 790 304 l 790 917 l 846 917 l 846 396 q 831 217 846 294 q 776 89 815 140 q 667 12 736 38 q 492 -14 599 -14 q 322 12 390 -14 q 213 89 254 38 q 155 217 172 140 q 138 396 138 294 l 138 750 m 513 946 l 457 946 l 513 1126 l 644 1126 l 513 946 z "},"Û":{"ha":954,"x_min":13,"x_max":846,"o":"m 138 750 q 120 851 138 813 q 40 889 103 889 l 13 889 l 13 917 l 138 917 q 198 910 174 917 q 237 885 222 904 q 257 834 251 867 q 263 750 263 801 l 263 354 q 275 223 263 281 q 317 125 288 165 q 392 63 346 85 q 508 42 439 42 q 642 63 588 42 q 729 127 696 83 q 776 238 763 171 q 790 396 790 304 l 790 917 l 846 917 l 846 396 q 831 217 846 294 q 776 89 815 140 q 667 12 736 38 q 492 -14 599 -14 q 322 12 390 -14 q 213 89 254 38 q 155 217 172 140 q 138 396 138 294 l 138 750 m 519 1043 l 401 932 l 332 932 l 443 1092 l 596 1092 l 707 932 l 638 932 l 519 1043 z "},"Ü":{"ha":954,"x_min":13,"x_max":846,"o":"m 138 750 q 120 851 138 813 q 40 889 103 889 l 13 889 l 13 917 l 138 917 q 198 910 174 917 q 237 885 222 904 q 257 834 251 867 q 263 750 263 801 l 263 354 q 275 223 263 281 q 317 125 288 165 q 392 63 346 85 q 508 42 439 42 q 642 63 588 42 q 729 127 696 83 q 776 238 763 171 q 790 396 790 304 l 790 917 l 846 917 l 846 396 q 831 217 846 294 q 776 89 815 140 q 667 12 736 38 q 492 -14 599 -14 q 322 12 390 -14 q 213 89 254 38 q 155 217 172 140 q 138 396 138 294 l 138 750 m 700 1015 q 681 965 700 983 q 631 946 663 946 q 580 965 599 946 q 561 1015 561 983 q 580 1066 561 1047 q 631 1085 599 1085 q 681 1066 663 1085 q 700 1015 700 1047 m 464 1015 q 445 965 464 983 q 394 946 426 946 q 344 965 363 946 q 325 1015 325 983 q 344 1066 325 1047 q 394 1085 363 1085 q 445 1066 426 1085 q 464 1015 464 1047 z "},"Ý":{"ha":872,"x_min":-35,"x_max":853,"o":"m 500 451 l 790 917 l 853 917 l 528 389 l 528 0 l 403 0 l 403 379 l 167 736 q 126 794 146 767 q 82 841 106 821 q 30 874 58 861 q -35 889 1 886 l -35 917 l 90 917 q 160 903 129 917 q 215 869 190 890 q 260 820 240 847 q 299 764 281 793 l 500 451 m 493 932 l 438 932 l 493 1113 l 625 1113 l 493 932 z "},"Þ":{"ha":743,"x_min":26,"x_max":707,"o":"m 568 438 q 552 547 568 497 q 501 633 536 597 q 410 688 465 668 q 276 708 354 708 l 276 167 q 410 187 354 167 q 501 242 465 207 q 552 328 536 278 q 568 438 568 378 m 276 764 q 597 682 486 764 q 707 438 707 600 q 597 193 707 275 q 276 111 486 111 l 276 -42 l 151 -42 l 151 833 q 129 908 151 886 q 54 931 107 931 l 26 931 l 26 958 l 151 958 q 250 932 224 958 q 276 833 276 906 l 276 764 z "},"ß":{"ha":769,"x_min":100,"x_max":732,"o":"m 489 764 q 458 846 489 817 q 364 875 426 875 q 260 837 296 875 q 225 694 225 799 l 225 0 l 100 0 l 100 694 q 122 813 100 767 q 181 885 143 860 q 267 921 218 911 q 371 931 317 931 q 547 892 486 931 q 607 792 607 854 q 582 701 607 735 q 527 642 557 668 q 472 589 497 617 q 447 514 447 561 q 468 449 447 476 q 521 398 489 421 q 590 353 553 375 q 658 306 626 332 q 711 247 690 281 q 732 167 732 214 q 676 29 732 72 q 531 -14 619 -14 q 431 1 478 -14 q 357 42 383 15 q 326 97 331 68 q 322 153 322 126 l 350 153 q 365 112 353 132 q 398 76 378 92 q 444 51 418 61 q 503 42 471 42 q 585 69 556 42 q 614 139 614 97 q 593 204 614 176 q 540 255 572 232 q 472 299 508 278 q 403 347 435 321 q 350 406 371 372 q 329 486 329 439 q 354 576 329 543 q 409 635 379 610 q 464 689 439 661 q 489 764 489 717 z "},"à":{"ha":668,"x_min":54,"x_max":575,"o":"m 450 319 l 408 319 q 245 281 304 319 q 186 181 186 243 q 197 122 186 147 q 226 81 208 97 q 268 56 244 64 q 318 49 292 49 q 399 74 369 49 q 450 132 429 100 l 450 319 m 506 0 l 457 63 l 450 63 q 382 11 429 36 q 256 -14 335 -14 q 192 -5 226 -14 q 126 26 157 4 q 75 86 96 49 q 54 181 54 124 q 83 275 54 238 q 161 335 113 313 q 274 366 210 357 q 408 375 338 375 l 450 375 q 439 494 450 447 q 408 566 428 540 q 362 601 389 592 q 304 611 335 611 q 206 586 246 611 q 151 493 167 561 l 89 493 q 93 560 89 529 q 124 618 97 592 q 159 640 136 631 q 210 656 182 650 q 269 664 238 661 q 332 667 300 667 q 423 656 379 667 q 501 615 467 646 q 555 526 535 583 q 575 375 575 468 l 575 0 l 506 0 m 172 910 l 304 910 l 360 729 l 304 729 l 172 910 z "},"á":{"ha":668,"x_min":54,"x_max":575,"o":"m 450 319 l 408 319 q 245 281 304 319 q 186 181 186 243 q 197 122 186 147 q 226 81 208 97 q 268 56 244 64 q 318 49 292 49 q 399 74 369 49 q 450 132 429 100 l 450 319 m 506 0 l 457 63 l 450 63 q 382 11 429 36 q 256 -14 335 -14 q 192 -5 226 -14 q 126 26 157 4 q 75 86 96 49 q 54 181 54 124 q 83 275 54 238 q 161 335 113 313 q 274 366 210 357 q 408 375 338 375 l 450 375 q 439 494 450 447 q 408 566 428 540 q 362 601 389 592 q 304 611 335 611 q 206 586 246 611 q 151 493 167 561 l 89 493 q 93 560 89 529 q 124 618 97 592 q 159 640 136 631 q 210 656 182 650 q 269 664 238 661 q 332 667 300 667 q 423 656 379 667 q 501 615 467 646 q 555 526 535 583 q 575 375 575 468 l 575 0 l 506 0 m 331 729 l 275 729 l 331 910 l 463 910 l 331 729 z "},"â":{"ha":668,"x_min":54,"x_max":575,"o":"m 450 319 l 408 319 q 245 281 304 319 q 186 181 186 243 q 197 122 186 147 q 226 81 208 97 q 268 56 244 64 q 318 49 292 49 q 399 74 369 49 q 450 132 429 100 l 450 319 m 506 0 l 457 63 l 450 63 q 382 11 429 36 q 256 -14 335 -14 q 192 -5 226 -14 q 126 26 157 4 q 75 86 96 49 q 54 181 54 124 q 83 275 54 238 q 161 335 113 313 q 274 366 210 357 q 408 375 338 375 l 450 375 q 439 494 450 447 q 408 566 428 540 q 362 601 389 592 q 304 611 335 611 q 206 586 246 611 q 151 493 167 561 l 89 493 q 93 560 89 529 q 124 618 97 592 q 159 640 136 631 q 210 656 182 650 q 269 664 238 661 q 332 667 300 667 q 423 656 379 667 q 501 615 467 646 q 555 526 535 583 q 575 375 575 468 l 575 0 l 506 0 m 333 847 l 215 736 l 146 736 l 257 896 l 410 896 l 521 736 l 451 736 l 333 847 z "},"ã":{"ha":668,"x_min":54,"x_max":575,"o":"m 450 319 l 408 319 q 245 281 304 319 q 186 181 186 243 q 197 122 186 147 q 226 81 208 97 q 268 56 244 64 q 318 49 292 49 q 399 74 369 49 q 450 132 429 100 l 450 319 m 506 0 l 457 63 l 450 63 q 382 11 429 36 q 256 -14 335 -14 q 192 -5 226 -14 q 126 26 157 4 q 75 86 96 49 q 54 181 54 124 q 83 275 54 238 q 161 335 113 313 q 274 366 210 357 q 408 375 338 375 l 450 375 q 439 494 450 447 q 408 566 428 540 q 362 601 389 592 q 304 611 335 611 q 206 586 246 611 q 151 493 167 561 l 89 493 q 93 560 89 529 q 124 618 97 592 q 159 640 136 631 q 210 656 182 650 q 269 664 238 661 q 332 667 300 667 q 423 656 379 667 q 501 615 467 646 q 555 526 535 583 q 575 375 575 468 l 575 0 l 506 0 m 171 744 q 192 847 171 818 q 254 876 213 876 q 294 867 276 876 q 329 848 313 858 q 363 829 346 838 q 400 821 379 821 q 428 841 415 821 q 442 876 442 861 l 483 876 q 463 774 483 803 q 400 744 442 744 q 360 753 378 744 q 326 772 343 761 q 292 791 310 782 q 254 800 275 800 q 226 780 239 800 q 213 744 213 760 l 171 744 z "},"ä":{"ha":668,"x_min":54,"x_max":575,"o":"m 450 319 l 408 319 q 245 281 304 319 q 186 181 186 243 q 197 122 186 147 q 226 81 208 97 q 268 56 244 64 q 318 49 292 49 q 399 74 369 49 q 450 132 429 100 l 450 319 m 506 0 l 457 63 l 450 63 q 382 11 429 36 q 256 -14 335 -14 q 192 -5 226 -14 q 126 26 157 4 q 75 86 96 49 q 54 181 54 124 q 83 275 54 238 q 161 335 113 313 q 274 366 210 357 q 408 375 338 375 l 450 375 q 439 494 450 447 q 408 566 428 540 q 362 601 389 592 q 304 611 335 611 q 206 586 246 611 q 151 493 167 561 l 89 493 q 93 560 89 529 q 124 618 97 592 q 159 640 136 631 q 210 656 182 650 q 269 664 238 661 q 332 667 300 667 q 423 656 379 667 q 501 615 467 646 q 555 526 535 583 q 575 375 575 468 l 575 0 l 506 0 m 513 806 q 494 761 513 779 q 450 743 476 743 q 406 761 424 743 q 388 806 388 779 q 406 850 388 832 q 450 868 424 868 q 494 850 476 868 q 513 806 513 832 m 276 806 q 258 761 276 779 q 214 743 240 743 q 169 761 188 743 q 151 806 151 779 q 169 850 151 832 q 214 868 188 868 q 258 850 240 868 q 276 806 276 832 z "},"å":{"ha":668,"x_min":54,"x_max":575,"o":"m 450 319 l 408 319 q 245 281 304 319 q 186 181 186 243 q 197 122 186 147 q 226 81 208 97 q 268 56 244 64 q 318 49 292 49 q 399 74 369 49 q 450 132 429 100 l 450 319 m 506 0 l 457 63 l 450 63 q 382 11 429 36 q 256 -14 335 -14 q 192 -5 226 -14 q 126 26 157 4 q 75 86 96 49 q 54 181 54 124 q 83 275 54 238 q 161 335 113 313 q 274 366 210 357 q 408 375 338 375 l 450 375 q 439 494 450 447 q 408 566 428 540 q 362 601 389 592 q 304 611 335 611 q 206 586 246 611 q 151 493 167 561 l 89 493 q 93 560 89 529 q 124 618 97 592 q 159 640 136 631 q 210 656 182 650 q 269 664 238 661 q 332 667 300 667 q 423 656 379 667 q 501 615 467 646 q 555 526 535 583 q 575 375 575 468 l 575 0 l 506 0 m 207 854 q 217 899 207 878 q 242 937 226 921 q 280 963 258 953 q 325 972 301 972 q 370 963 349 972 q 408 937 392 953 q 433 899 424 921 q 443 854 443 878 q 433 809 443 831 q 408 772 424 788 q 370 746 392 756 q 325 736 349 736 q 280 746 301 736 q 242 772 258 756 q 217 809 226 788 q 207 854 207 831 m 388 854 q 369 905 388 886 q 325 924 351 924 q 281 905 299 924 q 263 854 263 886 q 281 803 263 822 q 325 785 299 785 q 369 803 351 785 q 388 854 388 822 z "},"æ":{"ha":1054,"x_min":54,"x_max":992,"o":"m 989 306 l 575 306 q 588 200 575 249 q 624 116 600 151 q 683 61 649 81 q 763 42 718 42 q 876 71 831 42 q 957 153 921 100 l 985 132 q 876 19 938 53 q 735 -14 814 -14 q 594 16 653 -14 q 499 104 535 46 q 463 53 483 75 q 417 17 443 32 q 356 -6 390 1 q 276 -14 322 -14 q 201 -5 240 -14 q 128 26 161 4 q 75 83 96 47 q 54 174 54 119 q 83 264 54 228 q 161 322 113 300 q 274 352 210 343 q 408 361 338 361 l 450 361 q 439 488 450 439 q 408 565 428 538 q 362 601 389 592 q 304 611 335 611 q 206 586 246 611 q 151 493 167 561 l 89 493 q 93 560 89 529 q 124 618 97 592 q 159 640 136 631 q 210 656 182 650 q 269 664 238 661 q 332 667 300 667 q 456 631 406 667 q 526 542 506 594 q 597 631 547 594 q 714 667 646 667 q 924 588 856 667 q 992 361 992 508 l 989 306 m 867 361 q 831 540 867 476 q 721 604 794 604 q 663 585 689 604 q 617 535 636 567 q 586 458 597 503 q 575 361 575 413 l 867 361 m 450 306 l 408 306 q 245 269 304 306 q 186 174 186 232 q 226 80 186 111 q 318 49 265 49 q 399 74 369 49 q 450 132 429 100 l 450 306 z "},"ç":{"ha":671,"x_min":63,"x_max":625,"o":"m 368 667 q 492 656 442 667 q 569 618 543 644 q 590 590 582 606 q 600 554 597 575 q 603 505 603 533 q 604 438 604 476 l 576 438 q 520 569 571 526 q 396 611 469 611 q 306 589 343 611 q 243 528 268 567 q 206 438 218 490 q 194 326 194 386 q 206 215 194 267 q 243 124 218 163 q 306 64 268 86 q 396 42 343 42 q 515 71 469 42 q 597 153 561 100 l 625 132 q 521 24 581 57 q 390 -12 464 -7 l 390 -69 l 404 -69 q 483 -95 451 -69 q 515 -171 515 -121 q 483 -246 515 -219 q 404 -272 451 -272 l 321 -272 l 321 -215 l 390 -215 q 446 -171 446 -215 q 390 -125 446 -125 l 328 -125 l 328 -14 q 209 24 258 -6 q 127 99 160 53 q 78 203 94 144 q 63 326 63 261 q 81 459 63 397 q 138 567 100 521 q 233 640 175 613 q 368 667 290 667 z "},"è":{"ha":678,"x_min":63,"x_max":618,"o":"m 615 306 l 194 306 q 207 200 194 249 q 244 116 219 151 q 303 61 268 81 q 382 42 338 42 q 495 71 450 42 q 576 153 540 100 l 604 132 q 495 19 557 53 q 354 -14 433 -14 q 226 13 281 -14 q 135 86 172 40 q 81 194 99 132 q 63 326 63 256 q 81 459 63 397 q 136 567 100 521 q 224 640 172 613 q 340 667 275 667 q 550 588 482 667 q 618 361 618 508 l 615 306 m 486 361 q 450 547 486 482 q 340 611 414 611 q 282 592 308 611 q 236 540 256 574 q 206 461 217 507 q 194 361 194 415 l 486 361 m 188 910 l 319 910 l 375 729 l 319 729 l 188 910 z "},"é":{"ha":678,"x_min":63,"x_max":618,"o":"m 615 306 l 194 306 q 207 200 194 249 q 244 116 219 151 q 303 61 268 81 q 382 42 338 42 q 495 71 450 42 q 576 153 540 100 l 604 132 q 495 19 557 53 q 354 -14 433 -14 q 226 13 281 -14 q 135 86 172 40 q 81 194 99 132 q 63 326 63 256 q 81 459 63 397 q 136 567 100 521 q 224 640 172 613 q 340 667 275 667 q 550 588 482 667 q 618 361 618 508 l 615 306 m 486 361 q 450 547 486 482 q 340 611 414 611 q 282 592 308 611 q 236 540 256 574 q 206 461 217 507 q 194 361 194 415 l 486 361 m 354 729 l 299 729 l 354 910 l 486 910 l 354 729 z "},"ê":{"ha":678,"x_min":63,"x_max":618,"o":"m 615 306 l 194 306 q 207 200 194 249 q 244 116 219 151 q 303 61 268 81 q 382 42 338 42 q 495 71 450 42 q 576 153 540 100 l 604 132 q 495 19 557 53 q 354 -14 433 -14 q 226 13 281 -14 q 135 86 172 40 q 81 194 99 132 q 63 326 63 256 q 81 459 63 397 q 136 567 100 521 q 224 640 172 613 q 340 667 275 667 q 550 588 482 667 q 618 361 618 508 l 615 306 m 486 361 q 450 547 486 482 q 340 611 414 611 q 282 592 308 611 q 236 540 256 574 q 206 461 217 507 q 194 361 194 415 l 486 361 m 347 847 l 229 736 l 160 736 l 271 896 l 424 896 l 535 736 l 465 736 l 347 847 z "},"ë":{"ha":678,"x_min":63,"x_max":618,"o":"m 615 306 l 194 306 q 207 200 194 249 q 244 116 219 151 q 303 61 268 81 q 382 42 338 42 q 495 71 450 42 q 576 153 540 100 l 604 132 q 495 19 557 53 q 354 -14 433 -14 q 226 13 281 -14 q 135 86 172 40 q 81 194 99 132 q 63 326 63 256 q 81 459 63 397 q 136 567 100 521 q 224 640 172 613 q 340 667 275 667 q 550 588 482 667 q 618 361 618 508 l 615 306 m 486 361 q 450 547 486 482 q 340 611 414 611 q 282 592 308 611 q 236 540 256 574 q 206 461 217 507 q 194 361 194 415 l 486 361 m 514 819 q 496 775 514 793 q 451 757 478 757 q 407 775 425 757 q 389 819 389 793 q 407 864 389 846 q 451 882 425 882 q 496 864 478 882 q 514 819 514 846 m 278 819 q 260 775 278 793 q 215 757 242 757 q 171 775 189 757 q 153 819 153 793 q 171 864 153 846 q 215 882 189 882 q 260 864 242 882 q 278 819 278 846 z "},"ì":{"ha":342,"x_min":-4,"x_max":246,"o":"m 246 0 l 121 0 l 121 486 q 103 587 121 549 q 24 625 86 625 l -4 625 l -4 653 l 121 653 q 181 647 157 653 q 220 622 206 640 q 240 570 235 603 q 246 486 246 538 l 246 0 m 31 910 l 163 910 l 218 729 l 163 729 l 31 910 z "},"í":{"ha":342,"x_min":-4,"x_max":317,"o":"m 246 0 l 121 0 l 121 486 q 103 587 121 549 q 24 625 86 625 l -4 625 l -4 653 l 121 653 q 181 647 157 653 q 220 622 206 640 q 240 570 235 603 q 246 486 246 538 l 246 0 m 185 729 l 129 729 l 185 910 l 317 910 l 185 729 z "},"î":{"ha":342,"x_min":-4,"x_max":371,"o":"m 246 0 l 121 0 l 121 486 q 103 587 121 549 q 24 625 86 625 l -4 625 l -4 653 l 121 653 q 181 647 157 653 q 220 622 206 640 q 240 570 235 603 q 246 486 246 538 l 246 0 m 183 847 l 65 736 l -4 736 l 107 896 l 260 896 l 371 736 l 301 736 l 183 847 z "},"ï":{"ha":342,"x_min":-6,"x_max":350,"o":"m 246 0 l 121 0 l 121 486 q 103 587 121 549 q 24 625 86 625 l -4 625 l -4 653 l 121 653 q 181 647 157 653 q 220 622 206 640 q 240 570 235 603 q 246 486 246 538 l 246 0 m 136 813 q 119 767 136 783 q 72 750 101 750 q 17 776 40 750 q -6 839 -6 803 q 12 885 -6 868 q 58 901 29 901 q 113 875 90 901 q 136 813 136 849 m 350 813 q 333 767 350 783 q 286 750 315 750 q 231 776 254 750 q 208 839 208 803 q 226 885 208 868 q 272 901 243 901 q 327 875 304 901 q 350 813 350 849 z "},"ð":{"ha":746,"x_min":61,"x_max":672,"o":"m 353 764 l 408 819 q 342 867 376 851 q 256 882 308 882 q 221 879 239 882 q 194 874 203 876 l 183 900 q 243 925 211 919 q 311 931 275 931 q 394 916 353 931 q 471 875 435 901 l 519 931 l 561 889 l 513 840 q 629 649 586 767 q 672 375 672 532 q 652 215 672 286 q 592 92 632 143 q 496 14 553 42 q 367 -14 439 -14 q 237 13 293 -14 q 141 86 181 40 q 81 194 101 132 q 61 326 61 256 q 81 459 61 397 q 141 567 101 521 q 237 640 181 613 q 367 667 293 667 q 473 638 425 667 q 547 556 521 608 q 509 683 532 629 q 450 778 486 736 l 394 722 l 353 764 m 540 326 q 528 438 540 386 q 492 528 515 490 q 438 589 469 567 q 367 611 406 611 q 296 589 328 611 q 241 528 264 567 q 206 438 218 490 q 193 326 193 386 q 206 215 193 267 q 241 124 218 163 q 296 64 264 86 q 367 42 328 42 q 438 64 406 42 q 492 124 469 86 q 528 215 515 163 q 540 326 540 267 z "},"ñ":{"ha":756,"x_min":-4,"x_max":663,"o":"m 121 486 q 103 587 121 549 q 24 625 86 625 l -4 625 l -4 653 l 121 653 q 201 638 174 653 q 239 597 228 624 l 246 597 q 318 645 272 624 q 426 667 364 667 q 513 656 471 667 q 589 617 556 646 q 642 540 622 589 q 663 417 663 492 l 663 0 l 538 0 l 538 417 q 524 504 538 468 q 490 563 511 540 q 441 594 468 585 q 385 604 414 604 q 308 582 343 604 q 246 531 272 560 l 246 0 l 121 0 l 121 486 m 235 757 q 256 860 235 831 q 318 889 276 889 q 358 880 340 889 q 393 860 376 871 q 426 842 410 850 q 464 833 443 833 q 492 853 479 833 q 506 889 506 874 l 547 889 q 526 786 547 815 q 464 757 506 757 q 424 765 442 757 q 390 784 407 774 q 356 803 374 794 q 318 813 339 813 q 290 792 303 813 q 276 757 276 772 l 235 757 z "},"ò":{"ha":736,"x_min":63,"x_max":674,"o":"m 542 326 q 529 438 542 386 q 494 528 517 490 q 439 589 471 567 q 368 611 407 611 q 297 589 329 611 q 242 528 265 567 q 207 438 219 490 q 194 326 194 386 q 207 215 194 267 q 242 124 219 163 q 297 64 265 86 q 368 42 329 42 q 439 64 407 42 q 494 124 471 86 q 529 215 517 163 q 542 326 542 267 m 63 326 q 83 459 63 397 q 142 567 103 521 q 238 640 182 613 q 368 667 294 667 q 497 640 440 667 q 594 567 554 613 q 653 459 633 521 q 674 326 674 397 q 653 194 674 256 q 594 86 633 132 q 497 13 554 40 q 368 -14 440 -14 q 238 13 294 -14 q 142 86 182 40 q 83 194 103 132 q 63 326 63 256 m 222 910 l 354 910 l 410 729 l 354 729 l 222 910 z "},"ó":{"ha":736,"x_min":63,"x_max":674,"o":"m 542 326 q 529 438 542 386 q 494 528 517 490 q 439 589 471 567 q 368 611 407 611 q 297 589 329 611 q 242 528 265 567 q 207 438 219 490 q 194 326 194 386 q 207 215 194 267 q 242 124 219 163 q 297 64 265 86 q 368 42 329 42 q 439 64 407 42 q 494 124 471 86 q 529 215 517 163 q 542 326 542 267 m 63 326 q 83 459 63 397 q 142 567 103 521 q 238 640 182 613 q 368 667 294 667 q 497 640 440 667 q 594 567 554 613 q 653 459 633 521 q 674 326 674 397 q 653 194 674 256 q 594 86 633 132 q 497 13 554 40 q 368 -14 440 -14 q 238 13 294 -14 q 142 86 182 40 q 83 194 103 132 q 63 326 63 256 m 375 729 l 319 729 l 375 910 l 507 910 l 375 729 z "},"ô":{"ha":736,"x_min":63,"x_max":674,"o":"m 542 326 q 529 438 542 386 q 494 528 517 490 q 439 589 471 567 q 368 611 407 611 q 297 589 329 611 q 242 528 265 567 q 207 438 219 490 q 194 326 194 386 q 207 215 194 267 q 242 124 219 163 q 297 64 265 86 q 368 42 329 42 q 439 64 407 42 q 494 124 471 86 q 529 215 517 163 q 542 326 542 267 m 63 326 q 83 459 63 397 q 142 567 103 521 q 238 640 182 613 q 368 667 294 667 q 497 640 440 667 q 594 567 554 613 q 653 459 633 521 q 674 326 674 397 q 653 194 674 256 q 594 86 633 132 q 497 13 554 40 q 368 -14 440 -14 q 238 13 294 -14 q 142 86 182 40 q 83 194 103 132 q 63 326 63 256 m 368 847 l 250 736 l 181 736 l 292 896 l 444 896 l 556 736 l 486 736 l 368 847 z "},"õ":{"ha":736,"x_min":63,"x_max":674,"o":"m 542 326 q 529 438 542 386 q 494 528 517 490 q 439 589 471 567 q 368 611 407 611 q 297 589 329 611 q 242 528 265 567 q 207 438 219 490 q 194 326 194 386 q 207 215 194 267 q 242 124 219 163 q 297 64 265 86 q 368 42 329 42 q 439 64 407 42 q 494 124 471 86 q 529 215 517 163 q 542 326 542 267 m 63 326 q 83 459 63 397 q 142 567 103 521 q 238 640 182 613 q 368 667 294 667 q 497 640 440 667 q 594 567 554 613 q 653 459 633 521 q 674 326 674 397 q 653 194 674 256 q 594 86 633 132 q 497 13 554 40 q 368 -14 440 -14 q 238 13 294 -14 q 142 86 182 40 q 83 194 103 132 q 63 326 63 256 m 213 744 q 233 847 213 818 q 296 876 254 876 q 336 867 318 876 q 371 848 354 858 q 404 829 388 838 q 442 821 421 821 q 470 841 457 821 q 483 876 483 861 l 525 876 q 504 774 525 803 q 442 744 483 744 q 402 753 419 744 q 368 772 385 761 q 334 791 351 782 q 296 800 317 800 q 267 780 281 800 q 254 744 254 760 l 213 744 z "},"ö":{"ha":736,"x_min":63,"x_max":674,"o":"m 542 326 q 529 438 542 386 q 494 528 517 490 q 439 589 471 567 q 368 611 407 611 q 297 589 329 611 q 242 528 265 567 q 207 438 219 490 q 194 326 194 386 q 207 215 194 267 q 242 124 219 163 q 297 64 265 86 q 368 42 329 42 q 439 64 407 42 q 494 124 471 86 q 529 215 517 163 q 542 326 542 267 m 63 326 q 83 459 63 397 q 142 567 103 521 q 238 640 182 613 q 368 667 294 667 q 497 640 440 667 q 594 567 554 613 q 653 459 633 521 q 674 326 674 397 q 653 194 674 256 q 594 86 633 132 q 497 13 554 40 q 368 -14 440 -14 q 238 13 294 -14 q 142 86 182 40 q 83 194 103 132 q 63 326 63 256 m 549 806 q 531 761 549 779 q 486 743 513 743 q 442 761 460 743 q 424 806 424 779 q 442 850 424 832 q 486 868 460 868 q 531 850 513 868 q 549 806 549 832 m 313 806 q 294 761 313 779 q 250 743 276 743 q 206 761 224 743 q 188 806 188 779 q 206 850 188 832 q 250 868 224 868 q 294 850 276 868 q 313 806 313 832 z "},"÷":{"ha":783,"x_min":86,"x_max":697,"o":"m 86 417 l 86 500 l 697 500 l 697 417 l 86 417 m 454 264 q 436 219 454 238 q 392 201 418 201 q 347 219 365 201 q 329 264 329 238 q 347 308 329 290 q 392 326 365 326 q 436 308 418 326 q 454 264 454 290 m 454 653 q 436 608 454 626 q 392 590 418 590 q 347 608 365 590 q 329 653 329 626 q 347 697 329 679 q 392 715 365 715 q 436 697 418 715 q 454 653 454 679 z "},"ø":{"ha":736,"x_min":63,"x_max":674,"o":"m 90 0 l 146 81 q 84 190 106 128 q 63 326 63 253 q 83 459 63 397 q 142 567 103 521 q 238 640 182 613 q 368 667 294 667 q 453 656 414 667 q 525 625 493 644 l 544 653 l 646 653 l 589 571 q 651 462 629 525 q 674 326 674 399 q 653 194 674 256 q 594 86 633 132 q 497 13 554 40 q 368 -14 440 -14 q 283 -3 322 -14 q 210 28 243 8 l 192 0 l 90 0 m 542 326 q 536 403 542 367 q 519 471 531 439 l 260 99 q 368 42 304 42 q 439 64 407 42 q 494 124 471 86 q 529 215 517 163 q 542 326 542 267 m 194 326 q 200 250 194 286 q 217 182 206 214 l 476 554 q 368 611 431 611 q 297 589 329 611 q 242 528 265 567 q 207 438 219 490 q 194 326 194 386 z "},"ù":{"ha":743,"x_min":-10,"x_max":643,"o":"m 643 0 l 574 0 l 525 56 l 518 56 q 446 8 492 29 q 338 -14 400 -14 q 251 -3 293 -14 q 175 35 208 7 q 122 113 142 64 q 101 236 101 161 l 101 486 q 84 587 101 549 q 4 625 67 625 l -10 625 l -10 653 l 101 653 q 162 647 138 653 q 201 622 186 640 q 221 570 215 603 q 226 486 226 538 l 226 236 q 240 148 226 183 q 274 90 253 113 q 323 58 296 68 q 379 49 350 49 q 456 71 421 49 q 518 122 492 93 l 518 653 l 643 653 l 643 0 m 221 876 l 353 876 l 408 696 l 353 696 l 221 876 z "},"ú":{"ha":743,"x_min":-10,"x_max":643,"o":"m 643 0 l 574 0 l 525 56 l 518 56 q 446 8 492 29 q 338 -14 400 -14 q 251 -3 293 -14 q 175 35 208 7 q 122 113 142 64 q 101 236 101 161 l 101 486 q 84 587 101 549 q 4 625 67 625 l -10 625 l -10 653 l 101 653 q 162 647 138 653 q 201 622 186 640 q 221 570 215 603 q 226 486 226 538 l 226 236 q 240 148 226 183 q 274 90 253 113 q 323 58 296 68 q 379 49 350 49 q 456 71 421 49 q 518 122 492 93 l 518 653 l 643 653 l 643 0 m 389 696 l 333 696 l 389 876 l 521 876 l 389 696 z "},"û":{"ha":743,"x_min":-10,"x_max":643,"o":"m 643 0 l 574 0 l 525 56 l 518 56 q 446 8 492 29 q 338 -14 400 -14 q 251 -3 293 -14 q 175 35 208 7 q 122 113 142 64 q 101 236 101 161 l 101 486 q 84 587 101 549 q 4 625 67 625 l -10 625 l -10 653 l 101 653 q 162 647 138 653 q 201 622 186 640 q 221 570 215 603 q 226 486 226 538 l 226 236 q 240 148 226 183 q 274 90 253 113 q 323 58 296 68 q 379 49 350 49 q 456 71 421 49 q 518 122 492 93 l 518 653 l 643 653 l 643 0 m 358 847 l 240 736 l 171 736 l 282 896 l 435 896 l 546 736 l 476 736 l 358 847 z "},"ü":{"ha":743,"x_min":-10,"x_max":643,"o":"m 643 0 l 574 0 l 525 56 l 518 56 q 446 8 492 29 q 338 -14 400 -14 q 251 -3 293 -14 q 175 35 208 7 q 122 113 142 64 q 101 236 101 161 l 101 486 q 84 587 101 549 q 4 625 67 625 l -10 625 l -10 653 l 101 653 q 162 647 138 653 q 201 622 186 640 q 221 570 215 603 q 226 486 226 538 l 226 236 q 240 148 226 183 q 274 90 253 113 q 323 58 296 68 q 379 49 350 49 q 456 71 421 49 q 518 122 492 93 l 518 653 l 643 653 l 643 0 m 539 786 q 521 742 539 760 q 476 724 503 724 q 432 742 450 724 q 414 786 414 760 q 432 831 414 813 q 476 849 450 849 q 521 831 503 849 q 539 786 539 813 m 303 786 q 285 742 303 760 q 240 724 267 724 q 196 742 214 724 q 178 786 178 760 q 196 831 178 813 q 240 849 214 849 q 285 831 267 849 q 303 786 303 813 z "},"ý":{"ha":714,"x_min":-14,"x_max":674,"o":"m 361 -14 l 139 528 q 78 607 118 581 q -14 639 39 633 l -14 667 l 104 667 q 208 638 167 667 q 271 556 249 608 l 429 171 l 604 653 l 674 653 l 403 -90 q 359 -184 382 -147 q 310 -242 336 -221 q 254 -270 285 -262 q 188 -278 224 -278 l 146 -278 l 146 -236 q 204 -230 176 -236 q 255 -208 232 -224 q 297 -163 278 -192 q 333 -90 317 -135 l 361 -14 m 415 696 l 360 696 l 415 876 l 547 876 l 415 696 z "},"þ":{"ha":726,"x_min":-18,"x_max":663,"o":"m 225 83 q 291 55 257 68 q 357 42 325 42 q 437 64 404 42 q 490 124 469 86 q 521 215 511 163 q 531 326 531 267 q 522 438 531 386 q 492 528 513 490 q 442 589 472 567 q 371 611 413 611 q 319 604 342 611 q 280 585 297 597 q 249 558 263 574 q 225 528 235 543 l 225 83 m 225 590 q 290 642 246 617 q 413 667 335 667 q 522 640 475 667 q 599 567 568 613 q 647 459 631 521 q 663 326 663 397 q 647 194 663 256 q 598 86 631 132 q 516 13 565 40 q 399 -14 467 -14 q 299 -1 340 -14 q 225 28 257 13 l 225 -264 l 100 -264 l 100 750 q 83 851 100 813 q 3 889 65 889 l -18 889 l -18 917 l 100 917 q 160 910 136 917 q 199 885 185 904 q 219 834 214 867 q 225 750 225 801 l 225 667 l 225 590 z "},"ÿ":{"ha":714,"x_min":-14,"x_max":674,"o":"m 361 -14 l 139 528 q 78 607 118 581 q -14 639 39 633 l -14 667 l 104 667 q 208 638 167 667 q 271 556 249 608 l 429 171 l 604 653 l 674 653 l 403 -90 q 359 -184 382 -147 q 310 -242 336 -221 q 254 -270 285 -262 q 188 -278 224 -278 l 146 -278 l 146 -236 q 204 -230 176 -236 q 255 -208 232 -224 q 297 -163 278 -192 q 333 -90 317 -135 l 361 -14 m 583 786 q 565 742 583 760 q 521 724 547 724 q 476 742 494 724 q 458 786 458 760 q 476 831 458 813 q 521 849 494 849 q 565 831 547 849 q 583 786 583 813 m 347 786 q 329 742 347 760 q 285 724 311 724 q 240 742 258 724 q 222 786 222 760 q 240 831 222 813 q 285 849 258 849 q 329 831 311 849 q 347 786 347 813 z "},"Ğ":{"ha":1000,"x_min":61,"x_max":978,"o":"m 533 889 q 381 853 444 889 q 278 758 318 817 q 219 625 238 700 q 200 472 200 550 q 226 262 200 347 q 299 124 253 176 q 405 50 344 72 q 533 28 465 28 q 658 41 608 28 q 749 76 708 54 l 749 318 q 755 376 749 347 q 785 428 761 404 q 854 466 808 451 q 978 481 900 481 l 978 453 q 924 444 944 453 q 892 417 903 435 q 877 376 881 400 q 874 321 874 351 l 874 60 q 717 -7 799 14 q 533 -28 635 -28 q 342 11 429 -28 q 193 118 256 50 q 96 277 131 186 q 61 472 61 368 q 91 657 61 571 q 177 807 121 743 q 313 908 233 871 q 492 944 393 944 q 703 912 618 944 q 825 833 788 879 q 845 795 838 818 q 856 747 853 772 q 859 696 858 722 q 860 646 860 669 l 832 646 q 733 828 806 767 q 533 889 660 889 m 507 1097 q 602 1115 565 1097 q 660 1160 639 1133 l 688 1139 q 618 1047 661 1081 q 507 1014 575 1014 q 396 1047 439 1014 q 326 1139 353 1081 l 354 1160 q 412 1115 375 1133 q 507 1097 449 1097 z "},"ğ":{"ha":683,"x_min":36,"x_max":647,"o":"m 78 458 q 99 558 78 518 q 155 622 119 599 q 239 656 190 646 q 342 667 288 667 l 599 667 l 599 632 l 508 618 l 508 611 q 578 551 550 590 q 606 458 606 511 q 585 358 606 399 q 528 294 564 318 q 444 260 493 271 q 342 250 396 250 q 196 201 196 250 q 342 153 196 153 q 460 140 404 153 q 557 102 515 128 q 623 35 599 76 q 647 -62 647 -6 q 624 -163 647 -122 q 559 -230 600 -204 q 463 -267 518 -256 q 342 -278 407 -278 q 221 -267 276 -278 q 124 -230 165 -256 q 60 -163 83 -204 q 36 -62 36 -122 q 81 51 36 6 q 189 118 126 97 q 151 149 168 129 q 133 201 133 169 q 150 250 133 233 q 182 278 167 267 q 109 344 140 299 q 78 458 78 390 m 279 104 q 194 44 226 83 q 161 -62 161 6 q 212 -184 161 -146 q 342 -222 263 -222 q 472 -184 421 -222 q 522 -62 522 -146 q 356 97 522 76 l 279 104 m 481 458 q 440 580 481 542 q 342 618 400 618 q 288 610 313 618 q 244 583 263 601 q 214 533 225 564 q 203 458 203 503 q 214 383 203 414 q 244 334 225 353 q 288 307 263 315 q 342 299 313 299 q 396 307 371 299 q 440 334 421 315 q 469 383 458 353 q 481 458 481 414 m 342 821 q 437 839 400 821 q 494 883 474 857 l 522 863 q 453 771 496 804 q 342 738 410 738 q 231 771 274 738 q 161 863 188 804 l 189 883 q 247 839 210 857 q 342 821 283 821 z "},"İ":{"ha":396,"x_min":113,"x_max":374,"o":"m 124 917 l 249 917 l 249 167 q 266 66 249 104 q 346 28 283 28 l 374 28 l 374 0 l 249 0 q 188 6 213 0 q 149 31 164 13 q 129 82 135 50 q 124 167 124 114 l 124 917 m 254 1049 q 237 1003 254 1019 q 190 986 219 986 q 135 1013 158 986 q 113 1075 113 1039 q 130 1121 113 1104 q 176 1138 147 1138 q 231 1111 208 1138 q 254 1049 254 1085 z "},"ı":{"ha":342,"x_min":-4,"x_max":246,"o":"m 246 0 l 121 0 l 121 486 q 103 587 121 549 q 24 625 86 625 l -4 625 l -4 653 l 121 653 q 181 647 157 653 q 220 622 206 640 q 240 570 235 603 q 246 486 246 538 l 246 0 z "},"Œ":{"ha":1313,"x_min":64,"x_max":1272,"o":"m 64 458 q 94 649 64 560 q 180 803 124 738 q 316 907 236 869 q 494 944 396 944 q 574 938 536 944 q 647 917 611 932 l 1107 917 q 1166 907 1143 917 q 1202 882 1189 897 q 1220 847 1215 867 q 1225 806 1225 826 l 1225 701 l 1197 701 q 1152 823 1197 785 q 1024 861 1107 861 l 765 861 l 765 500 l 1140 500 l 1140 444 l 765 444 l 765 56 l 1008 56 q 1158 90 1103 56 q 1244 208 1213 125 l 1272 201 l 1224 69 q 1187 19 1213 38 q 1119 0 1161 0 l 647 0 q 574 -22 611 -15 q 494 -28 536 -28 q 316 10 396 -28 q 180 113 236 47 q 94 267 124 179 q 64 458 64 356 m 494 28 q 640 72 579 28 l 640 847 q 494 889 578 889 q 372 859 426 889 q 281 773 318 829 q 223 637 243 717 q 203 458 203 557 q 223 280 203 360 q 281 144 243 200 q 372 58 318 88 q 494 28 426 28 z "},"œ":{"ha":1104,"x_min":63,"x_max":1042,"o":"m 1039 306 l 625 306 q 638 200 625 249 q 674 116 650 151 q 733 61 699 81 q 813 42 768 42 q 926 71 881 42 q 1007 153 971 100 l 1035 132 q 926 19 988 53 q 785 -14 864 -14 q 665 10 717 -14 q 576 69 613 33 q 488 10 540 33 q 368 -14 436 -14 q 238 13 294 -14 q 142 86 182 40 q 83 194 103 132 q 63 326 63 256 q 83 459 63 397 q 142 567 103 521 q 238 640 182 613 q 368 667 294 667 q 578 585 503 667 q 658 645 611 624 q 764 667 704 667 q 974 588 906 667 q 1042 361 1042 508 l 1039 306 m 368 42 q 458 76 421 42 q 521 174 494 111 q 501 240 510 200 q 493 326 493 279 q 501 413 493 374 q 521 479 510 453 q 460 574 500 538 q 368 611 421 611 q 297 589 329 611 q 242 528 265 567 q 207 438 219 490 q 194 326 194 386 q 207 215 194 267 q 242 124 219 163 q 297 64 265 86 q 368 42 329 42 m 917 361 q 881 540 917 476 q 771 604 844 604 q 713 585 739 604 q 667 535 686 567 q 636 458 647 503 q 625 361 625 413 l 917 361 z "},"Ş":{"ha":740,"x_min":75,"x_max":681,"o":"m 681 233 q 660 128 681 175 q 603 47 640 81 q 512 -6 565 13 q 392 -24 458 -24 l 392 -56 l 406 -56 q 485 -81 453 -56 q 517 -157 517 -107 q 485 -232 517 -206 q 406 -258 453 -258 l 322 -258 l 322 -201 l 392 -201 q 447 -157 447 -201 q 392 -111 447 -111 l 329 -111 l 329 -19 q 233 0 279 -14 q 152 35 188 14 q 96 84 117 56 q 75 146 75 113 l 75 294 l 100 294 q 192 93 124 154 q 379 32 261 32 q 448 41 415 32 q 506 68 481 50 q 546 113 531 86 q 561 174 561 139 q 523 278 561 235 q 408 365 485 321 l 238 467 q 112 574 149 519 q 75 706 75 628 q 94 803 75 760 q 149 877 114 846 q 234 925 185 908 q 344 942 283 942 q 449 931 396 942 q 546 898 503 919 q 617 845 589 876 q 644 775 644 814 l 644 626 l 619 626 q 529 826 596 767 q 344 886 463 886 q 285 876 314 886 q 233 849 256 867 q 197 804 211 831 q 183 746 183 778 q 193 692 183 715 q 222 647 203 668 q 271 606 242 626 q 338 564 300 586 l 508 463 q 585 412 553 436 q 639 360 618 388 q 670 303 660 333 q 681 233 681 272 z "},"ş":{"ha":622,"x_min":69,"x_max":563,"o":"m 563 167 q 544 90 563 124 q 495 34 526 57 q 422 -1 464 11 q 329 -14 379 -12 l 329 -42 l 343 -42 q 422 -67 390 -42 q 454 -143 454 -93 q 422 -218 454 -192 q 343 -244 390 -244 l 260 -244 l 260 -187 l 329 -187 q 385 -143 385 -187 q 329 -97 385 -97 l 267 -97 l 267 -12 q 104 42 149 -4 q 74 101 78 68 q 69 188 69 135 l 97 188 q 156 81 108 119 q 292 42 203 42 q 408 69 371 42 q 444 139 444 97 q 413 209 444 181 q 319 264 382 238 l 236 299 q 113 374 157 331 q 69 486 69 418 q 87 564 69 531 q 135 620 104 597 q 207 655 165 643 q 299 667 249 667 q 429 652 378 667 q 507 611 481 638 q 538 551 533 585 q 542 465 542 518 l 514 465 q 456 572 503 533 q 326 611 410 611 q 223 583 258 611 q 188 514 188 556 q 217 448 188 478 q 299 396 246 418 l 382 361 q 517 282 471 325 q 563 167 563 239 z "},"Š":{"ha":740,"x_min":75,"x_max":681,"o":"m 681 233 q 660 128 681 175 q 603 47 640 81 q 512 -6 565 13 q 392 -24 458 -24 q 278 -12 335 -24 q 177 22 222 0 q 103 76 132 44 q 75 146 75 107 l 75 294 l 100 294 q 192 93 124 154 q 379 32 261 32 q 448 41 415 32 q 506 68 481 50 q 546 113 531 86 q 561 174 561 139 q 523 278 561 235 q 408 365 485 321 l 238 467 q 112 574 149 519 q 75 706 75 628 q 94 803 75 760 q 149 877 114 846 q 234 925 185 908 q 344 942 283 942 q 449 931 396 942 q 546 898 503 919 q 617 845 589 876 q 644 775 644 814 l 644 626 l 619 626 q 529 826 596 767 q 344 886 463 886 q 285 876 314 886 q 233 849 256 867 q 197 804 211 831 q 183 746 183 778 q 193 692 183 715 q 222 647 203 668 q 271 606 242 626 q 338 564 300 586 l 508 463 q 585 412 553 436 q 639 360 618 388 q 670 303 660 333 q 681 233 681 272 m 471 1160 l 540 1160 l 429 1000 l 276 1000 l 165 1160 l 235 1160 l 353 1049 l 471 1160 z "},"š":{"ha":619,"x_min":68,"x_max":561,"o":"m 561 167 q 542 89 561 122 q 492 33 524 56 q 415 -2 460 10 q 318 -14 369 -14 q 182 1 235 -14 q 103 42 129 15 q 72 101 76 68 q 68 188 68 135 l 96 188 q 154 81 107 119 q 290 42 201 42 q 406 69 369 42 q 443 139 443 97 q 412 209 443 181 q 318 264 381 238 l 235 299 q 112 374 156 331 q 68 486 68 418 q 85 564 68 531 q 133 620 103 597 q 206 655 164 643 q 297 667 247 667 q 428 652 376 667 q 506 611 479 638 q 536 551 532 585 q 540 465 540 518 l 513 465 q 455 572 501 533 q 325 611 408 611 q 222 583 257 611 q 186 514 186 556 q 215 448 186 478 q 297 396 244 418 l 381 361 q 515 282 469 325 q 561 167 561 239 m 415 882 l 485 882 l 374 722 l 221 722 l 110 882 l 179 882 l 297 771 l 415 882 z "},"Ÿ":{"ha":872,"x_min":-35,"x_max":853,"o":"m 500 451 l 790 917 l 853 917 l 528 389 l 528 0 l 403 0 l 403 379 l 167 736 q 126 794 146 767 q 82 841 106 821 q 30 874 58 861 q -35 889 1 886 l -35 917 l 90 917 q 160 903 129 917 q 215 869 190 890 q 260 820 240 847 q 299 764 281 793 l 500 451 m 674 1028 q 655 977 674 996 q 604 958 636 958 q 553 977 572 958 q 535 1028 535 996 q 553 1078 535 1060 q 604 1097 572 1097 q 655 1078 636 1097 q 674 1028 674 1060 m 438 1028 q 419 977 438 996 q 368 958 400 958 q 317 977 336 958 q 299 1028 299 996 q 317 1078 299 1060 q 368 1097 336 1097 q 419 1078 400 1097 q 438 1028 438 1060 z "},"Ž":{"ha":821,"x_min":33,"x_max":797,"o":"m 797 917 l 207 56 l 776 56 l 776 0 l 33 0 l 33 28 l 610 861 l 276 861 q 148 823 193 861 q 103 701 103 785 l 75 701 l 75 806 q 80 847 75 826 q 98 882 85 867 q 134 907 111 897 q 193 917 157 917 l 797 917 m 546 1146 l 615 1146 l 504 986 l 351 986 l 240 1146 l 310 1146 l 428 1035 l 546 1146 z "},"ž":{"ha":647,"x_min":61,"x_max":603,"o":"m 603 653 l 228 56 l 603 56 l 603 0 l 61 0 l 61 26 l 422 597 l 263 597 q 131 564 174 597 q 89 472 89 531 l 61 472 l 61 542 q 66 583 61 563 q 84 618 71 603 q 120 643 97 633 q 179 653 143 653 l 603 653 m 456 882 l 525 882 l 414 722 l 261 722 l 150 882 l 219 882 l 338 771 l 456 882 z "},"ƒ":{"ha":329,"x_min":0,"x_max":0,"o":""},"ˆ":{"ha":431,"x_min":28,"x_max":403,"o":"m 215 1028 l 97 917 l 28 917 l 139 1076 l 292 1076 l 403 917 l 333 917 l 215 1028 z "},"ˇ":{"ha":375,"x_min":0,"x_max":375,"o":"m 306 882 l 375 882 l 264 722 l 111 722 l 0 882 l 69 882 l 188 771 l 306 882 z "},"˘":{"ha":361,"x_min":0,"x_max":361,"o":"m 181 800 q 273 815 239 800 q 333 856 307 829 l 361 835 q 292 756 335 788 q 181 724 249 724 q 69 756 113 724 q 0 835 26 788 l 28 856 q 88 815 54 829 q 181 800 122 800 z "},"˚":{"ha":236,"x_min":0,"x_max":236,"o":"m 0 854 q 10 899 0 878 q 35 937 19 921 q 73 963 51 953 q 118 972 94 972 q 163 963 142 972 q 201 937 185 953 q 226 899 217 921 q 236 854 236 878 q 226 809 236 831 q 201 772 217 788 q 163 746 185 756 q 118 736 142 736 q 73 746 94 736 q 35 772 51 756 q 10 809 19 788 q 0 854 0 831 m 181 854 q 163 905 181 886 q 118 924 144 924 q 74 905 92 924 q 56 854 56 886 q 74 803 56 822 q 118 785 92 785 q 163 803 144 785 q 181 854 181 822 z "},"˜":{"ha":368,"x_min":28,"x_max":340,"o":"m 28 944 q 49 1047 28 1018 q 111 1076 69 1076 q 151 1067 133 1076 q 186 1048 169 1058 q 219 1029 203 1038 q 257 1021 236 1021 q 285 1041 272 1021 q 299 1076 299 1061 l 340 1076 q 319 974 340 1003 q 257 944 299 944 q 217 953 235 944 q 183 972 200 961 q 149 991 167 982 q 111 1000 132 1000 q 83 980 96 1000 q 69 944 69 960 l 28 944 z "},"Ё":{"ha":819,"x_min":22,"x_max":779,"o":"m 614 917 q 673 907 650 917 q 709 882 696 897 q 727 847 722 867 q 732 806 732 826 l 732 701 l 704 701 q 659 823 704 785 q 531 861 614 861 l 272 861 l 272 500 l 647 500 l 647 444 l 272 444 l 272 56 l 515 56 q 665 90 610 56 q 751 208 719 125 l 779 201 l 731 69 q 694 19 719 38 q 626 0 668 0 l 147 0 l 147 750 q 130 851 147 813 q 50 889 113 889 l 22 889 l 22 917 l 614 917 m 590 1083 q 572 1033 590 1051 q 521 1014 553 1014 q 470 1033 489 1014 q 451 1083 451 1051 q 470 1134 451 1115 q 521 1153 489 1153 q 572 1134 553 1153 q 590 1083 590 1115 m 354 1083 q 335 1033 354 1051 q 285 1014 317 1014 q 234 1033 253 1014 q 215 1083 215 1051 q 234 1134 215 1115 q 285 1153 253 1153 q 335 1134 317 1153 q 354 1083 354 1115 z "},"Ђ":{"ha":867,"x_min":-1,"x_max":818,"o":"m 693 278 q 677 406 693 356 q 635 484 661 456 q 573 524 608 513 q 499 535 538 535 q 391 517 446 535 q 304 479 336 500 l 304 0 l 179 0 l 179 861 l -1 861 l -1 917 l 485 917 l 485 861 l 304 861 l 304 542 q 401 580 336 563 q 540 597 467 597 q 645 585 594 597 q 734 539 696 574 q 795 442 772 504 q 818 278 818 379 q 806 123 818 186 q 765 20 794 60 q 686 -37 736 -19 q 561 -56 636 -56 l 561 -28 q 693 278 693 -28 z "},"Ѓ":{"ha":746,"x_min":22,"x_max":717,"o":"m 147 750 q 130 851 147 813 q 50 889 113 889 l 22 889 l 22 917 l 599 917 q 658 907 635 917 q 694 882 681 897 q 712 847 707 867 q 717 806 717 826 l 717 701 l 689 701 q 644 823 689 785 q 515 861 599 861 l 272 861 l 272 0 l 147 0 l 147 750 m 397 972 l 328 972 l 425 1132 l 543 1132 l 397 972 z "},"Є":{"ha":924,"x_min":61,"x_max":874,"o":"m 818 625 q 720 825 792 761 q 533 889 649 889 q 410 868 468 889 q 308 799 353 847 q 234 675 263 751 q 200 486 206 599 l 660 486 l 660 431 l 200 431 q 223 283 203 356 q 283 153 243 210 q 385 63 324 97 q 533 28 447 28 q 713 78 638 28 q 846 222 788 128 l 874 201 q 799 92 840 136 q 711 22 758 49 q 609 -17 664 -6 q 492 -28 554 -28 q 313 9 393 -28 q 177 110 233 46 q 91 260 121 174 q 61 444 61 346 q 95 640 61 549 q 188 799 129 731 q 324 906 246 867 q 492 944 403 944 q 690 912 607 944 q 811 833 774 879 q 842 744 838 801 q 846 625 846 688 l 818 625 z "},"Ѕ":{"ha":740,"x_min":75,"x_max":681,"o":"m 681 233 q 660 128 681 175 q 603 47 640 81 q 512 -6 565 13 q 392 -24 458 -24 q 278 -12 335 -24 q 177 22 222 0 q 103 76 132 44 q 75 146 75 107 l 75 294 l 100 294 q 192 93 124 154 q 379 32 261 32 q 448 41 415 32 q 506 68 481 50 q 546 113 531 86 q 561 174 561 139 q 523 278 561 235 q 408 365 485 321 l 238 467 q 112 574 149 519 q 75 706 75 628 q 94 803 75 760 q 149 877 114 846 q 234 925 185 908 q 344 942 283 942 q 449 931 396 942 q 546 898 503 919 q 617 845 589 876 q 644 775 644 814 l 644 626 l 619 626 q 529 826 596 767 q 344 886 463 886 q 285 876 314 886 q 233 849 256 867 q 197 804 211 831 q 183 746 183 778 q 193 692 183 715 q 222 647 203 668 q 271 606 242 626 q 338 564 300 586 l 508 463 q 585 412 553 436 q 639 360 618 388 q 670 303 660 333 q 681 233 681 272 z "},"І":{"ha":396,"x_min":124,"x_max":374,"o":"m 124 917 l 249 917 l 249 167 q 266 66 249 104 q 346 28 283 28 l 374 28 l 374 0 l 249 0 q 188 6 213 0 q 149 31 164 13 q 129 82 135 50 q 124 167 124 114 l 124 917 z "},"Ї":{"ha":396,"x_min":10,"x_max":374,"o":"m 124 917 l 249 917 l 249 167 q 266 66 249 104 q 346 28 283 28 l 374 28 l 374 0 l 249 0 q 188 6 213 0 q 149 31 164 13 q 129 82 135 50 q 124 167 124 114 l 124 917 m 363 1063 q 344 1012 363 1031 q 293 993 325 993 q 242 1012 261 993 q 224 1063 224 1031 q 242 1113 224 1094 q 293 1132 261 1132 q 344 1113 325 1132 q 363 1063 363 1094 m 149 1063 q 130 1012 149 1031 q 79 993 111 993 q 28 1012 47 993 q 10 1063 10 1031 q 28 1113 10 1094 q 79 1132 47 1132 q 130 1113 111 1132 q 149 1063 149 1094 z "},"Ј":{"ha":363,"x_min":-12,"x_max":244,"o":"m -12 -162 q 88 -90 56 -162 q 119 108 119 -18 l 119 917 l 244 917 l 244 108 q 233 -26 244 31 q 192 -119 221 -83 q 113 -173 163 -156 q -12 -190 63 -190 l -12 -162 z "},"Љ":{"ha":1339,"x_min":-8,"x_max":1304,"o":"m 1165 264 q 1099 426 1165 374 q 915 479 1032 479 q 849 474 883 479 q 783 458 815 469 l 783 69 q 849 53 815 58 q 915 49 883 49 q 1099 101 1032 49 q 1165 264 1165 154 m 783 917 l 783 528 l 936 528 q 1061 518 996 528 q 1181 479 1126 508 q 1269 399 1235 450 q 1304 264 1304 347 q 1269 129 1304 181 q 1181 49 1235 78 q 1061 10 1126 19 q 936 0 996 0 l 658 0 l 658 861 l 325 861 l 325 750 q 303 364 325 513 q 245 131 282 215 q 160 17 208 47 q 61 -14 113 -14 q 26 -10 46 -14 q -8 -1 7 -7 l -8 33 q 51 47 22 35 q 106 88 81 58 q 152 167 131 117 q 188 295 174 217 q 212 485 203 374 q 221 750 221 597 q 203 851 221 813 q 124 889 186 889 l 110 889 l 110 917 l 783 917 z "},"Њ":{"ha":1353,"x_min":22,"x_max":1321,"o":"m 800 500 l 953 500 q 1078 490 1013 500 q 1197 453 1143 481 q 1286 377 1251 426 q 1321 250 1321 328 q 1286 123 1321 172 q 1197 47 1251 74 q 1078 10 1143 19 q 953 0 1013 0 l 675 0 l 675 444 l 272 444 l 272 0 l 147 0 l 147 750 q 130 851 147 813 q 50 889 113 889 l 22 889 l 22 917 l 147 917 q 208 910 183 917 q 247 885 232 904 q 267 834 261 867 q 272 750 272 801 l 272 500 l 675 500 l 675 917 l 800 917 l 800 500 m 1182 250 q 1115 401 1182 350 q 932 451 1047 451 q 866 447 900 451 q 800 431 832 442 l 800 69 q 866 53 832 58 q 932 49 900 49 q 1115 99 1047 49 q 1182 250 1182 150 z "},"Ћ":{"ha":879,"x_min":-1,"x_max":818,"o":"m 304 0 l 179 0 l 179 861 l -1 861 l -1 917 l 485 917 l 485 861 l 304 861 l 304 542 q 401 580 336 563 q 540 597 467 597 q 645 587 594 597 q 734 548 696 576 q 795 471 772 519 q 818 347 818 422 l 818 0 l 693 0 l 693 347 q 677 435 693 399 q 635 493 661 471 q 573 525 608 515 q 499 535 538 535 q 391 517 446 535 q 304 479 336 500 l 304 0 z "},"Ќ":{"ha":940,"x_min":22,"x_max":953,"o":"m 147 917 q 208 910 183 917 q 247 885 232 904 q 267 834 261 867 q 272 750 272 801 l 272 479 l 564 771 q 615 823 590 797 q 666 869 639 849 q 726 903 693 890 q 800 917 758 917 l 869 917 l 869 882 q 769 862 813 882 q 668 785 725 842 l 397 514 l 717 181 q 776 125 746 151 q 837 78 807 99 q 897 44 867 57 q 953 26 926 31 l 953 0 q 916 -10 938 -6 q 863 -14 894 -14 q 802 -8 833 -14 q 734 17 771 -1 q 656 68 697 36 q 564 153 614 100 l 272 458 l 272 0 l 147 0 l 147 750 q 130 851 147 813 q 50 889 113 889 l 22 889 l 22 917 l 147 917 m 453 938 l 383 938 l 481 1097 l 599 1097 l 453 938 z "},"Ў":{"ha":843,"x_min":-39,"x_max":815,"o":"m 406 167 l 149 736 q 122 792 136 765 q 88 839 108 818 q 38 873 68 860 q -39 889 8 886 l -39 917 l 128 917 q 187 903 161 917 q 232 869 213 890 q 267 820 251 847 q 294 764 282 793 l 482 347 l 732 917 l 815 917 l 474 132 q 390 25 444 64 q 253 -14 336 -14 l 183 -14 l 183 28 q 246 33 214 28 q 306 49 278 38 q 357 80 335 60 q 392 132 379 100 l 406 167 m 482 1056 q 577 1074 540 1056 q 635 1118 614 1092 l 663 1097 q 593 1006 636 1039 q 482 972 550 972 q 371 1006 414 972 q 301 1097 328 1039 l 329 1118 q 387 1074 350 1092 q 482 1056 424 1056 z "},"Џ":{"ha":933,"x_min":22,"x_max":814,"o":"m 446 -243 l 425 0 l 147 0 l 147 750 q 130 851 147 813 q 50 889 113 889 l 22 889 l 22 917 l 147 917 q 208 910 183 917 q 247 885 232 904 q 267 834 261 867 q 272 750 272 801 l 272 56 l 689 56 l 689 917 l 814 917 l 814 0 l 536 0 l 515 -243 l 446 -243 z "},"А":{"ha":882,"x_min":31,"x_max":919,"o":"m 919 0 q 864 -7 896 -7 q 809 -1 840 -7 q 745 23 778 4 q 681 78 713 42 q 628 174 650 114 l 593 264 l 204 264 l 93 0 l 31 0 l 419 917 l 461 917 l 767 174 q 798 108 783 135 q 831 64 813 81 q 869 39 849 47 q 919 28 890 31 l 919 0 m 225 319 l 565 319 l 399 722 l 225 319 z "},"Б":{"ha":844,"x_min":22,"x_max":793,"o":"m 654 264 q 587 426 654 374 q 404 479 519 479 q 338 474 372 479 q 272 460 304 469 l 272 68 q 338 53 304 58 q 404 49 372 49 q 587 101 519 49 q 654 264 654 154 m 607 917 q 666 907 643 917 q 702 882 689 897 q 720 847 715 867 q 725 806 725 826 l 725 701 l 697 701 q 652 823 697 785 q 524 861 607 861 l 272 861 l 272 528 l 425 528 q 550 518 485 528 q 669 479 615 508 q 758 399 724 450 q 793 264 793 347 q 758 129 793 181 q 669 49 724 78 q 550 10 615 19 q 425 0 485 0 l 147 0 l 147 750 q 130 851 147 813 q 50 889 113 889 l 22 889 l 22 917 l 607 917 z "},"В":{"ha":864,"x_min":22,"x_max":807,"o":"m 272 438 l 272 68 q 338 53 304 58 q 404 49 372 49 q 599 99 531 49 q 668 243 668 149 q 601 388 668 338 q 404 438 535 438 l 272 438 m 404 493 q 485 505 446 493 q 556 540 525 517 q 607 599 588 564 q 626 681 626 633 q 603 766 626 731 q 543 824 579 801 q 463 858 507 847 q 376 868 418 868 q 322 864 350 868 q 272 854 293 860 l 272 493 l 404 493 m 383 917 q 503 909 438 917 q 626 876 569 901 q 720 802 682 850 q 758 674 758 754 q 715 558 758 611 q 578 472 672 504 q 690 441 646 461 q 760 392 733 421 q 797 328 786 364 q 807 250 807 292 q 772 123 807 172 q 681 47 736 74 q 558 10 626 19 q 425 0 490 0 l 147 0 l 147 750 q 130 851 147 813 q 50 889 113 889 l 22 889 l 22 917 l 383 917 z "},"Г":{"ha":746,"x_min":22,"x_max":717,"o":"m 147 750 q 130 851 147 813 q 50 889 113 889 l 22 889 l 22 917 l 599 917 q 658 907 635 917 q 694 882 681 897 q 712 847 707 867 q 717 806 717 826 l 717 701 l 689 701 q 644 823 689 785 q 515 861 599 861 l 272 861 l 272 0 l 147 0 l 147 750 z "},"Д":{"ha":954,"x_min":4,"x_max":928,"o":"m 678 56 l 678 861 l 317 861 q 311 603 317 721 q 292 388 306 486 q 258 208 279 290 q 206 56 236 126 l 678 56 m 879 56 q 914 42 900 56 q 928 7 928 28 l 928 -250 l 865 -250 q 843 -131 857 -179 q 808 -54 829 -83 q 757 -12 786 -25 q 692 0 728 0 l 240 0 q 175 -12 204 0 q 124 -54 146 -25 q 89 -131 103 -83 q 67 -250 75 -179 l 4 -250 l 4 7 q 18 42 4 28 q 53 56 32 56 l 108 56 q 201 377 176 203 q 226 750 226 551 q 209 851 226 813 q 129 889 192 889 l 108 889 l 108 917 l 803 917 l 803 56 l 879 56 z "},"Е":{"ha":819,"x_min":22,"x_max":779,"o":"m 614 917 q 673 907 650 917 q 709 882 696 897 q 727 847 722 867 q 732 806 732 826 l 732 701 l 704 701 q 659 823 704 785 q 531 861 614 861 l 272 861 l 272 500 l 647 500 l 647 444 l 272 444 l 272 56 l 515 56 q 665 90 610 56 q 751 208 719 125 l 779 201 l 731 69 q 694 19 719 38 q 626 0 668 0 l 147 0 l 147 750 q 130 851 147 813 q 50 889 113 889 l 22 889 l 22 917 l 614 917 z "},"Ж":{"ha":1318,"x_min":-12,"x_max":1331,"o":"m 474 514 l 258 785 q 165 863 211 844 q 71 882 118 882 l 71 917 l 140 917 q 207 905 176 917 q 265 873 238 893 q 315 826 292 853 q 363 771 339 800 l 599 479 l 599 917 l 719 917 l 719 479 l 956 771 q 1002 826 978 800 q 1053 873 1026 853 q 1111 905 1081 893 q 1178 917 1142 917 l 1247 917 l 1247 882 q 1153 863 1200 882 q 1060 785 1107 844 l 844 514 l 1108 181 q 1162 123 1133 150 q 1220 76 1190 96 q 1278 42 1250 56 q 1331 26 1307 29 l 1331 0 q 1294 -10 1315 -6 q 1240 -14 1272 -14 q 1185 -8 1217 -14 q 1116 16 1153 -1 q 1038 66 1079 33 q 956 153 997 99 l 719 458 l 719 0 l 599 0 l 599 458 l 363 153 q 280 66 321 99 q 202 16 239 33 q 133 -8 165 -1 q 78 -14 101 -14 q 24 -10 46 -14 q -12 0 3 -6 l -12 26 q 40 42 11 29 q 98 76 68 56 q 156 123 128 96 q 210 181 185 150 l 474 514 z "},"З":{"ha":792,"x_min":42,"x_max":736,"o":"m 229 493 l 333 493 q 423 506 381 493 q 498 544 465 519 q 550 607 531 569 q 569 694 569 644 q 551 781 569 744 q 504 841 533 817 q 438 877 475 865 q 361 889 400 889 q 192 830 261 889 q 97 667 124 771 l 69 667 q 74 772 69 729 q 104 847 78 815 q 152 888 122 869 q 218 918 182 906 q 293 938 254 931 q 368 944 332 944 q 478 935 419 944 q 587 899 538 926 q 669 822 636 872 q 701 688 701 771 q 654 562 701 619 q 507 472 607 504 q 616 438 572 460 q 687 385 660 415 q 725 317 714 356 q 736 236 736 279 q 701 104 736 156 q 613 24 667 53 q 496 -17 560 -6 q 375 -28 432 -28 q 188 10 271 -28 q 42 146 104 47 l 69 167 q 185 66 117 104 q 354 28 254 28 q 531 81 464 28 q 597 229 597 133 q 531 383 597 329 q 333 438 464 438 l 229 438 l 229 493 z "},"И":{"ha":961,"x_min":22,"x_max":842,"o":"m 717 792 l 272 0 l 147 0 l 147 750 q 130 851 147 813 q 50 889 113 889 l 22 889 l 22 917 l 147 917 q 208 910 183 917 q 247 885 232 904 q 267 834 261 867 q 272 750 272 801 l 272 125 l 717 917 l 842 917 l 842 0 l 717 0 l 717 792 z "},"Й":{"ha":961,"x_min":22,"x_max":842,"o":"m 717 792 l 272 0 l 147 0 l 147 750 q 130 851 147 813 q 50 889 113 889 l 22 889 l 22 917 l 147 917 q 208 910 183 917 q 247 885 232 904 q 267 834 261 867 q 272 750 272 801 l 272 125 l 717 917 l 842 917 l 842 0 l 717 0 l 717 792 m 494 1069 q 590 1088 553 1069 q 647 1132 626 1106 l 675 1111 q 606 1019 649 1053 q 494 986 563 986 q 383 1019 426 986 q 314 1111 340 1053 l 342 1132 q 399 1088 363 1106 q 494 1069 436 1069 z "},"К":{"ha":940,"x_min":22,"x_max":953,"o":"m 147 917 q 208 910 183 917 q 247 885 232 904 q 267 834 261 867 q 272 750 272 801 l 272 479 l 564 771 q 615 823 590 797 q 666 869 639 849 q 726 903 693 890 q 800 917 758 917 l 869 917 l 869 882 q 769 862 813 882 q 668 785 725 842 l 397 514 l 717 181 q 837 77 774 121 q 953 26 900 33 l 953 0 q 916 -10 938 -6 q 863 -14 894 -14 q 802 -8 833 -14 q 734 17 771 -1 q 656 68 697 36 q 564 153 614 100 l 272 458 l 272 0 l 147 0 l 147 750 q 130 851 147 813 q 50 889 113 889 l 22 889 l 22 917 l 147 917 z "},"Л":{"ha":917,"x_min":-8,"x_max":797,"o":"m 221 750 q 203 851 221 813 q 124 889 186 889 l 110 889 l 110 917 l 797 917 l 797 0 l 672 0 l 672 861 l 325 861 l 325 750 q 303 364 325 513 q 245 131 282 215 q 160 17 208 47 q 61 -14 113 -14 q 26 -10 46 -14 q -8 -1 7 -7 l -8 33 q 51 47 22 35 q 106 88 81 58 q 152 167 131 117 q 188 295 174 217 q 212 485 203 374 q 221 750 221 597 z "},"М":{"ha":1188,"x_min":119,"x_max":1168,"o":"m 1168 -62 q 1043 -45 1093 -62 q 964 8 993 -28 q 923 101 935 44 q 911 236 911 158 l 911 771 l 564 0 l 536 0 l 175 785 l 175 0 l 119 0 l 119 917 l 251 917 l 585 194 l 911 917 l 1036 917 l 1036 236 q 1068 38 1036 110 q 1168 -35 1100 -35 l 1168 -62 z "},"Н":{"ha":963,"x_min":22,"x_max":939,"o":"m 814 167 q 831 66 814 104 q 911 28 849 28 l 939 28 l 939 0 l 814 0 q 753 6 778 0 q 715 31 729 13 q 694 82 700 50 q 689 167 689 114 l 689 444 l 272 444 l 272 0 l 147 0 l 147 750 q 130 851 147 813 q 50 889 113 889 l 22 889 l 22 917 l 147 917 q 208 910 183 917 q 247 885 232 904 q 267 834 261 867 q 272 750 272 801 l 272 500 l 689 500 l 689 917 l 814 917 l 814 167 z "},"О":{"ha":989,"x_min":64,"x_max":925,"o":"m 786 458 q 766 637 786 557 q 708 773 746 717 q 617 859 671 829 q 494 889 563 889 q 372 859 426 889 q 281 773 318 829 q 223 637 243 717 q 203 458 203 557 q 223 280 203 360 q 281 144 243 200 q 372 58 318 88 q 494 28 426 28 q 617 58 563 28 q 708 144 671 88 q 766 280 746 200 q 786 458 786 360 m 64 458 q 94 649 64 560 q 180 803 124 738 q 316 907 236 869 q 494 944 396 944 q 673 907 593 944 q 809 803 753 869 q 895 649 865 738 q 925 458 925 560 q 895 267 925 356 q 809 113 865 179 q 673 10 753 47 q 494 -28 593 -28 q 316 10 396 -28 q 180 113 236 47 q 94 267 124 179 q 64 458 64 356 z "},"П":{"ha":933,"x_min":22,"x_max":814,"o":"m 814 0 l 689 0 l 689 861 l 272 861 l 272 0 l 147 0 l 147 750 q 130 851 147 813 q 50 889 113 889 l 22 889 l 22 917 l 814 917 l 814 0 z "},"Р":{"ha":767,"x_min":22,"x_max":731,"o":"m 376 424 q 442 435 406 424 q 513 472 479 446 q 569 541 546 499 q 592 646 592 583 q 569 751 592 708 q 513 819 546 793 q 442 857 479 846 q 376 868 406 868 q 322 864 350 868 q 272 854 293 860 l 272 438 q 322 428 293 432 q 376 424 350 424 m 272 0 l 147 0 l 147 750 q 130 851 147 813 q 50 889 113 889 l 22 889 l 22 917 l 383 917 q 488 908 428 917 q 601 872 547 900 q 693 788 656 843 q 731 639 731 732 q 713 537 731 579 q 668 465 696 494 q 606 418 640 436 q 538 391 572 400 q 474 378 504 382 q 425 375 444 375 l 272 375 l 272 0 z "},"С":{"ha":924,"x_min":61,"x_max":874,"o":"m 818 625 q 720 825 792 761 q 533 889 649 889 q 405 866 465 889 q 299 791 344 843 q 226 654 253 739 q 200 444 200 569 q 219 292 200 367 q 278 158 238 217 q 381 64 318 100 q 533 28 444 28 q 713 78 638 28 q 846 222 788 128 l 874 201 q 799 92 840 136 q 711 22 758 49 q 609 -17 664 -6 q 492 -28 554 -28 q 313 9 393 -28 q 177 110 233 46 q 91 260 121 174 q 61 444 61 346 q 95 640 61 549 q 188 799 129 731 q 324 906 246 867 q 492 944 403 944 q 690 912 607 944 q 811 833 774 879 q 842 744 838 801 q 846 625 846 688 l 818 625 z "},"Т":{"ha":810,"x_min":29,"x_max":793,"o":"m 793 917 l 793 861 l 481 861 l 481 0 l 356 0 l 356 861 l 231 861 q 102 823 147 861 q 57 701 57 785 l 29 701 l 29 806 q 34 847 29 826 q 52 882 39 867 q 88 907 65 897 q 147 917 111 917 l 793 917 z "},"У":{"ha":843,"x_min":-39,"x_max":815,"o":"m 406 167 l 149 736 q 122 792 136 765 q 88 839 108 818 q 38 873 68 860 q -39 889 8 886 l -39 917 l 128 917 q 187 903 161 917 q 232 869 213 890 q 267 820 251 847 q 294 764 282 793 l 482 347 l 732 917 l 815 917 l 474 132 q 390 25 444 64 q 253 -14 336 -14 l 183 -14 l 183 28 q 246 33 214 28 q 306 49 278 38 q 357 80 335 60 q 392 132 379 100 l 406 167 z "},"Ф":{"ha":1083,"x_min":49,"x_max":1035,"o":"m 188 438 q 202 309 188 369 q 250 203 217 249 q 340 131 283 157 q 479 104 396 104 l 479 771 q 340 744 396 771 q 250 672 283 718 q 202 566 217 626 q 188 438 188 506 m 896 438 q 881 566 896 506 q 833 672 867 626 q 744 744 800 718 q 604 771 688 771 l 604 104 q 744 131 688 104 q 833 203 800 157 q 881 309 867 249 q 896 438 896 369 m 604 826 q 794 799 714 826 q 928 720 875 771 q 1008 598 982 669 q 1035 438 1035 526 q 1008 277 1035 349 q 928 155 982 206 q 794 76 875 104 q 604 49 714 49 l 604 -42 l 479 -42 l 479 49 q 289 76 369 49 q 155 155 208 104 q 75 277 101 206 q 49 438 49 349 q 75 598 49 526 q 155 720 101 669 q 289 799 208 771 q 479 826 369 826 l 479 833 q 457 908 479 886 q 382 931 435 931 l 354 931 l 354 958 l 479 958 q 578 932 551 958 q 604 833 604 906 l 604 826 z "},"Х":{"ha":926,"x_min":-12,"x_max":946,"o":"m 126 0 l 57 0 l 404 451 l 210 736 q 172 788 192 763 q 128 835 153 814 q 69 872 103 857 q -12 889 35 886 l -12 917 l 154 917 q 216 903 188 917 q 268 867 244 889 q 311 817 292 844 q 349 764 331 790 l 488 556 l 765 917 l 835 917 l 522 507 l 744 181 q 783 128 763 154 q 829 81 804 103 q 883 45 854 60 q 946 28 913 31 l 946 0 l 800 0 q 738 14 767 0 q 686 50 710 28 q 642 99 663 72 q 606 153 622 126 l 439 403 l 126 0 z "},"Ц":{"ha":965,"x_min":22,"x_max":939,"o":"m 147 0 l 147 750 q 130 851 147 813 q 50 889 113 889 l 22 889 l 22 917 l 147 917 q 208 910 183 917 q 247 885 232 904 q 267 834 261 867 q 272 750 272 801 l 272 56 l 689 56 l 689 917 l 814 917 l 814 56 l 890 56 q 925 42 911 56 q 939 7 939 28 l 939 -250 l 876 -250 q 854 -131 868 -179 q 819 -54 840 -83 q 768 -12 797 -25 q 703 0 739 0 l 147 0 z "},"Ч":{"ha":889,"x_min":6,"x_max":769,"o":"m 464 403 q 557 409 506 403 q 644 431 608 415 l 644 917 l 769 917 l 769 0 l 644 0 l 644 375 q 603 362 626 367 q 553 353 579 357 q 503 349 528 350 q 457 347 478 347 q 324 358 386 347 q 217 399 263 368 q 144 488 171 431 q 117 639 117 544 l 117 750 q 99 851 117 813 q 19 889 82 889 l 6 889 l 6 917 l 131 917 q 191 910 167 917 q 230 885 215 904 q 250 834 244 867 q 256 750 256 801 l 256 625 q 269 514 256 557 q 308 446 282 471 q 372 412 333 421 q 464 403 411 403 z "},"Ш":{"ha":1294,"x_min":22,"x_max":1175,"o":"m 147 0 l 147 750 q 130 851 147 813 q 50 889 113 889 l 22 889 l 22 917 l 147 917 q 208 910 183 917 q 247 885 232 904 q 267 834 261 867 q 272 750 272 801 l 272 56 l 599 56 l 599 917 l 724 917 l 724 56 l 1050 56 l 1050 917 l 1175 917 l 1175 0 l 147 0 z "},"Щ":{"ha":1326,"x_min":22,"x_max":1300,"o":"m 147 0 l 147 750 q 130 851 147 813 q 50 889 113 889 l 22 889 l 22 917 l 147 917 q 208 910 183 917 q 247 885 232 904 q 267 834 261 867 q 272 750 272 801 l 272 56 l 599 56 l 599 917 l 724 917 l 724 56 l 1050 56 l 1050 917 l 1175 917 l 1175 56 l 1251 56 q 1286 42 1272 56 q 1300 7 1300 28 l 1300 -250 l 1238 -250 q 1215 -131 1229 -179 q 1180 -54 1201 -83 q 1129 -12 1158 -25 q 1064 0 1100 0 l 147 0 z "},"Ъ":{"ha":978,"x_min":40,"x_max":943,"o":"m 804 264 q 737 426 804 374 q 554 479 669 479 q 488 474 522 479 q 422 460 454 469 l 422 68 q 488 53 454 58 q 554 49 522 49 q 737 101 669 49 q 804 264 804 154 m 40 868 q 54 903 40 889 q 89 917 68 917 l 422 917 l 422 528 l 575 528 q 700 518 635 528 q 819 479 765 508 q 908 399 874 450 q 943 264 943 347 q 908 129 943 181 q 819 49 874 78 q 700 10 765 19 q 575 0 635 0 l 297 0 l 297 861 l 256 861 q 179 851 211 861 q 126 817 147 840 q 95 753 106 793 q 82 653 85 713 l 40 653 l 40 868 z "},"Ы":{"ha":1156,"x_min":22,"x_max":1133,"o":"m 272 528 l 425 528 q 538 518 476 528 q 651 479 599 508 q 738 399 703 450 q 772 264 772 347 q 738 129 772 181 q 651 49 703 78 q 538 10 599 19 q 425 0 476 0 l 147 0 l 147 750 q 130 851 147 813 q 50 889 113 889 l 22 889 l 22 917 l 147 917 q 208 910 183 917 q 247 885 232 904 q 267 834 261 867 q 272 750 272 801 l 272 528 m 633 264 q 616 359 633 318 q 568 426 599 400 q 496 466 538 453 q 404 479 454 479 q 338 474 372 479 q 272 460 304 469 l 272 68 q 338 53 304 58 q 404 49 372 49 q 496 62 454 49 q 568 101 538 75 q 616 169 599 128 q 633 264 633 210 m 883 917 l 1008 917 l 1008 167 q 1026 66 1008 104 q 1106 28 1043 28 l 1133 28 l 1133 0 l 1008 0 q 948 6 972 0 q 909 31 924 13 q 889 82 894 50 q 883 167 883 114 l 883 917 z "},"Ь":{"ha":828,"x_min":22,"x_max":793,"o":"m 654 264 q 587 426 654 374 q 404 479 519 479 q 338 474 372 479 q 272 460 304 469 l 272 68 q 338 53 304 58 q 404 49 372 49 q 587 101 519 49 q 654 264 654 154 m 272 528 l 425 528 q 550 518 485 528 q 669 479 615 508 q 758 399 724 450 q 793 264 793 347 q 758 129 793 181 q 669 49 724 78 q 550 10 615 19 q 425 0 485 0 l 147 0 l 147 750 q 130 851 147 813 q 50 889 113 889 l 22 889 l 22 917 l 147 917 q 208 910 183 917 q 247 885 232 904 q 267 834 261 867 q 272 750 272 801 l 272 528 z "},"Э":{"ha":924,"x_min":49,"x_max":861,"o":"m 76 625 q 81 744 76 688 q 111 833 85 801 q 232 912 149 879 q 431 944 315 944 q 598 906 519 944 q 735 799 676 867 q 827 640 793 731 q 861 444 861 549 q 831 260 861 346 q 745 110 801 174 q 609 9 689 46 q 431 -28 529 -28 q 313 -17 368 -28 q 211 22 258 -6 q 123 92 164 49 q 49 201 82 136 l 76 222 q 210 78 135 128 q 389 28 285 28 q 537 63 475 28 q 639 153 599 97 q 699 283 679 210 q 722 431 719 356 l 263 431 l 263 486 l 722 486 q 688 675 717 599 q 615 799 660 751 q 511 868 569 847 q 389 889 453 889 q 202 825 274 889 q 104 625 131 761 l 76 625 z "},"Ю":{"ha":1213,"x_min":22,"x_max":1147,"o":"m 758 944 q 913 910 842 944 q 1035 811 983 875 q 1117 658 1088 747 q 1147 458 1147 568 q 1117 259 1147 349 q 1035 106 1088 169 q 913 7 983 42 q 758 -28 842 -28 q 606 6 676 -28 q 484 102 536 40 q 402 251 432 164 q 369 444 372 338 l 272 444 l 272 0 l 147 0 l 147 750 q 130 851 147 813 q 50 889 113 889 l 22 889 l 22 917 l 147 917 q 208 910 183 917 q 247 885 232 904 q 267 834 261 867 q 272 750 272 801 l 272 500 l 371 500 q 410 683 378 601 q 492 824 442 765 q 611 913 543 882 q 758 944 679 944 m 758 889 q 660 860 706 889 q 581 778 615 832 q 528 643 547 724 q 508 458 508 563 q 528 274 508 354 q 581 139 547 193 q 660 56 615 85 q 758 28 706 28 q 856 56 810 28 q 935 139 901 85 q 989 274 969 193 q 1008 458 1008 354 q 989 643 1008 563 q 935 778 969 724 q 856 860 901 832 q 758 889 810 889 z "},"Я":{"ha":844,"x_min":19,"x_max":811,"o":"m 575 375 l 440 375 l 294 111 q 209 12 254 38 q 103 -14 164 -14 q 58 -9 82 -14 q 19 1 35 -4 l 19 28 q 108 63 72 33 q 172 139 144 92 l 318 389 q 249 414 285 397 q 183 460 213 431 q 135 533 154 489 q 117 639 117 576 q 154 788 117 732 q 246 872 192 843 q 360 908 300 900 q 464 917 419 917 l 811 917 l 811 889 l 797 889 q 717 851 735 889 q 700 750 700 813 l 700 0 l 575 0 l 575 375 m 471 424 q 526 428 497 424 q 575 438 554 432 l 575 854 q 526 864 554 860 q 471 868 497 868 q 405 857 442 868 q 335 819 368 846 q 278 751 301 793 q 256 646 256 708 q 278 541 256 583 q 335 472 301 499 q 405 435 368 446 q 471 424 442 424 z "},"а":{"ha":668,"x_min":54,"x_max":575,"o":"m 450 319 l 408 319 q 245 281 304 319 q 186 181 186 243 q 197 122 186 147 q 226 81 208 97 q 268 56 244 64 q 318 49 292 49 q 399 74 369 49 q 450 132 429 100 l 450 319 m 506 0 l 457 63 l 450 63 q 382 11 429 36 q 256 -14 335 -14 q 192 -5 226 -14 q 126 26 157 4 q 75 86 96 49 q 54 181 54 124 q 83 275 54 238 q 161 335 113 313 q 274 366 210 357 q 408 375 338 375 l 450 375 q 439 494 450 447 q 408 566 428 540 q 362 601 389 592 q 304 611 335 611 q 206 586 246 611 q 151 493 167 561 l 89 493 q 93 560 89 529 q 124 618 97 592 q 159 640 136 631 q 210 656 182 650 q 269 664 238 661 q 332 667 300 667 q 423 656 379 667 q 501 615 467 646 q 555 526 535 583 q 575 375 575 468 l 575 0 l 506 0 z "},"б":{"ha":733,"x_min":83,"x_max":667,"o":"m 375 556 q 315 543 343 556 q 264 500 286 531 q 228 420 242 469 q 215 299 215 371 q 228 174 215 224 q 264 94 242 124 q 315 53 286 65 q 375 42 343 42 q 435 53 406 42 q 486 94 464 65 q 522 174 508 124 q 535 299 535 224 q 522 420 535 371 q 486 500 508 469 q 435 543 464 531 q 375 556 406 556 m 340 736 q 262 706 296 725 q 203 652 228 688 q 165 560 179 617 q 146 417 151 503 l 153 417 q 239 566 179 521 q 403 611 299 611 q 502 592 454 611 q 587 535 550 574 q 645 438 624 497 q 667 299 667 379 q 644 159 667 218 q 583 62 622 100 q 491 5 544 24 q 375 -14 438 -14 q 259 5 313 -14 q 167 64 206 24 q 106 167 128 104 q 83 319 83 231 l 83 375 q 94 585 83 503 q 129 719 106 668 q 192 795 153 769 q 285 833 231 821 l 493 882 q 566 906 540 893 q 597 944 592 918 l 625 944 l 625 854 q 583 792 625 801 l 340 736 z "},"в":{"ha":696,"x_min":3,"x_max":635,"o":"m 239 313 l 239 63 q 281 53 254 57 q 329 49 308 49 q 458 81 413 49 q 503 181 503 113 q 315 313 503 313 l 239 313 m 239 368 l 315 368 q 432 398 389 368 q 475 486 475 428 q 433 574 475 544 q 329 604 392 604 q 281 600 308 604 q 239 590 254 596 l 239 368 m 343 653 q 442 644 394 653 q 527 617 490 636 q 585 565 564 597 q 607 486 607 533 q 574 392 607 428 q 468 340 542 356 q 591 284 547 325 q 635 181 635 243 q 613 93 635 128 q 551 38 590 58 q 459 8 513 17 q 343 0 406 0 l 114 0 l 114 486 q 97 587 114 549 q 17 625 79 625 l 3 625 l 3 653 l 343 653 z "},"г":{"ha":604,"x_min":3,"x_max":565,"o":"m 114 486 q 97 587 114 549 q 17 625 79 625 l 3 625 l 3 653 l 461 653 q 513 643 492 653 q 544 618 533 633 q 560 583 556 603 q 565 542 565 563 l 565 458 l 538 458 q 496 562 538 526 q 392 597 454 597 l 239 597 l 239 0 l 114 0 l 114 486 z "},"д":{"ha":792,"x_min":22,"x_max":758,"o":"m 196 486 q 178 587 196 549 q 99 625 161 625 l 99 653 l 654 653 l 654 56 l 710 56 q 744 42 731 56 q 758 7 758 28 l 758 -215 l 703 -215 q 658 -50 692 -100 q 557 0 625 0 l 224 0 q 122 -50 156 0 q 78 -215 89 -100 l 22 -215 l 22 7 q 36 42 22 28 q 71 56 50 56 l 113 56 q 152 163 136 107 q 178 276 168 219 q 192 385 188 332 q 196 486 196 439 m 529 56 l 529 597 l 286 597 q 269 290 286 419 q 210 56 251 160 l 529 56 z "},"е":{"ha":678,"x_min":63,"x_max":618,"o":"m 615 306 l 194 306 q 207 200 194 249 q 244 116 219 151 q 303 61 268 81 q 382 42 338 42 q 495 71 450 42 q 576 153 540 100 l 604 132 q 495 19 557 53 q 354 -14 433 -14 q 226 13 281 -14 q 135 86 172 40 q 81 194 99 132 q 63 326 63 256 q 81 459 63 397 q 136 567 100 521 q 224 640 172 613 q 340 667 275 667 q 550 588 482 667 q 618 361 618 508 l 615 306 m 486 361 q 450 547 486 482 q 340 611 414 611 q 282 592 308 611 q 236 540 256 574 q 206 461 217 507 q 194 361 194 415 l 486 361 z "},"ж":{"ha":953,"x_min":11,"x_max":942,"o":"m 414 653 l 539 653 l 539 319 l 685 563 q 754 629 711 606 q 865 653 797 653 l 900 653 l 900 618 q 823 603 858 618 q 768 556 788 588 l 636 340 l 782 139 q 856 60 818 88 q 942 26 894 33 l 942 0 q 912 -10 931 -6 q 872 -14 893 -14 q 773 13 819 -14 q 685 97 726 39 l 539 299 l 539 0 l 414 0 l 414 299 l 268 97 q 180 13 226 39 q 81 -14 133 -14 q 41 -10 60 -14 q 11 0 22 -6 l 11 26 q 97 60 58 33 q 171 139 135 88 l 317 340 l 185 556 q 130 603 165 588 q 53 618 94 618 l 53 653 l 88 653 q 199 629 156 653 q 268 563 242 606 l 414 319 l 414 653 z "},"з":{"ha":632,"x_min":50,"x_max":571,"o":"m 182 361 l 244 361 q 373 392 328 361 q 418 486 418 424 q 378 580 418 549 q 279 611 338 611 q 153 572 204 611 q 99 465 103 533 l 71 465 q 75 558 71 524 q 106 618 79 592 q 182 656 132 644 q 300 667 232 667 q 392 658 347 667 q 472 628 436 649 q 528 572 507 607 q 550 486 550 538 q 512 386 550 424 q 411 333 474 349 q 528 277 486 318 q 571 174 571 236 q 549 83 571 119 q 489 26 526 47 q 401 -5 451 4 q 293 -14 350 -14 q 209 -6 246 -14 q 143 18 172 3 q 91 53 114 33 q 50 97 68 74 l 78 118 q 107 92 90 106 q 146 67 124 78 q 197 49 168 56 q 265 42 226 42 q 394 74 349 42 q 439 174 439 106 q 244 306 439 306 l 182 306 l 182 361 z "},"и":{"ha":761,"x_min":1,"x_max":661,"o":"m 536 528 l 244 0 l 119 0 l 119 486 q 102 587 119 549 q 22 625 85 625 l 1 625 l 1 653 l 119 653 q 180 647 156 653 q 219 622 204 640 q 239 570 233 603 q 244 486 244 538 l 244 125 l 536 653 l 661 653 l 661 0 l 536 0 l 536 528 z "},"й":{"ha":761,"x_min":1,"x_max":661,"o":"m 536 528 l 244 0 l 119 0 l 119 486 q 102 587 119 549 q 22 625 85 625 l 1 625 l 1 653 l 119 653 q 180 647 156 653 q 219 622 204 640 q 239 570 233 603 q 244 486 244 538 l 244 125 l 536 653 l 661 653 l 661 0 l 536 0 l 536 528 m 390 800 q 483 815 449 800 q 543 856 517 829 l 571 835 q 501 756 544 788 q 390 724 458 724 q 279 756 322 724 q 210 835 236 788 l 238 856 q 298 815 264 829 q 390 800 332 800 z "},"к":{"ha":690,"x_min":-1,"x_max":679,"o":"m 249 319 l 422 563 q 494 628 453 604 q 603 653 535 653 l 638 653 l 638 618 q 572 605 606 618 q 513 556 539 592 l 360 340 l 519 139 q 594 63 556 92 q 679 26 632 33 l 679 0 q 649 -10 668 -6 q 610 -14 631 -14 q 506 13 557 -14 q 408 97 456 39 l 249 299 l 249 0 l 124 0 l 124 486 q 106 587 124 549 q 26 625 89 625 l -1 625 l -1 653 l 124 653 q 184 647 160 653 q 223 622 208 640 q 243 570 238 603 q 249 486 249 538 l 249 319 z "},"л":{"ha":758,"x_min":13,"x_max":658,"o":"m 289 486 q 271 232 289 329 q 224 80 253 135 q 157 6 194 25 q 81 -14 119 -14 q 47 -10 69 -14 q 13 -1 24 -6 l 13 33 q 78 51 46 33 q 137 117 111 68 q 178 254 163 165 q 193 486 193 343 q 190 542 193 517 q 176 587 186 568 q 146 615 165 606 q 94 625 126 625 l 94 653 l 658 653 l 658 0 l 533 0 l 533 597 l 289 597 l 289 486 z "},"м":{"ha":901,"x_min":100,"x_max":878,"o":"m 419 0 l 392 0 l 156 521 l 156 0 l 100 0 l 100 653 l 232 653 l 440 194 l 649 653 l 774 653 l 774 208 q 781 132 774 169 q 802 65 789 94 q 835 18 815 36 q 878 0 854 0 l 878 -28 q 769 -11 813 -28 q 698 36 725 6 q 660 110 671 67 q 649 208 649 154 l 649 507 l 419 0 z "},"н":{"ha":768,"x_min":1,"x_max":765,"o":"m 522 299 l 244 299 l 244 0 l 119 0 l 119 486 q 102 587 119 549 q 22 625 85 625 l 1 625 l 1 653 l 119 653 q 180 647 156 653 q 219 622 204 640 q 239 570 233 603 q 244 486 244 538 l 244 354 l 522 354 l 522 653 l 647 653 l 647 167 q 665 66 647 104 q 744 28 682 28 l 765 28 l 765 0 l 647 0 q 587 6 611 0 q 548 31 563 13 q 528 82 533 50 q 522 167 522 114 l 522 299 z "},"о":{"ha":736,"x_min":63,"x_max":674,"o":"m 542 326 q 529 438 542 386 q 494 528 517 490 q 439 589 471 567 q 368 611 407 611 q 297 589 329 611 q 242 528 265 567 q 207 438 219 490 q 194 326 194 386 q 207 215 194 267 q 242 124 219 163 q 297 64 265 86 q 368 42 329 42 q 439 64 407 42 q 494 124 471 86 q 529 215 517 163 q 542 326 542 267 m 63 326 q 83 459 63 397 q 142 567 103 521 q 238 640 182 613 q 368 667 294 667 q 497 640 440 667 q 594 567 554 613 q 653 459 633 521 q 674 326 674 397 q 653 194 674 256 q 594 86 633 132 q 497 13 554 40 q 368 -14 440 -14 q 238 13 294 -14 q 142 86 182 40 q 83 194 103 132 q 63 326 63 256 z "},"п":{"ha":742,"x_min":3,"x_max":642,"o":"m 642 0 l 517 0 l 517 597 l 239 597 l 239 0 l 114 0 l 114 486 q 97 587 114 549 q 17 625 79 625 l 3 625 l 3 653 l 642 653 l 642 0 z "},"р":{"ha":747,"x_min":-4,"x_max":683,"o":"m 246 83 q 312 55 278 68 q 378 42 346 42 q 458 64 425 42 q 511 124 490 86 q 542 215 532 163 q 551 326 551 267 q 542 438 551 386 q 513 528 533 490 q 463 589 493 567 q 392 611 433 611 q 340 604 363 611 q 301 585 318 597 q 269 558 283 574 q 246 528 256 543 l 246 83 m 121 486 q 103 587 121 549 q 24 625 86 625 l -4 625 l -4 653 l 121 653 q 201 638 174 653 q 239 590 228 622 l 246 590 q 311 642 267 617 q 433 667 356 667 q 542 640 496 667 q 620 567 589 613 q 667 459 651 521 q 683 326 683 397 q 667 194 683 256 q 619 86 651 132 q 537 13 586 40 q 419 -14 488 -14 q 319 -1 361 -14 q 246 28 278 13 l 246 -264 l 121 -264 l 121 486 z "},"с":{"ha":671,"x_min":63,"x_max":625,"o":"m 368 667 q 492 656 442 667 q 569 618 543 644 q 590 590 582 606 q 600 554 597 575 q 603 505 603 533 q 604 438 604 476 l 576 438 q 520 569 571 526 q 396 611 469 611 q 306 589 343 611 q 243 528 268 567 q 206 438 218 490 q 194 326 194 386 q 206 215 194 267 q 243 124 218 163 q 306 64 268 86 q 396 42 343 42 q 515 71 469 42 q 597 153 561 100 l 625 132 q 515 19 578 53 q 368 -14 451 -14 q 233 13 290 -14 q 138 86 175 40 q 81 194 100 132 q 63 326 63 256 q 81 459 63 397 q 138 567 100 521 q 233 640 175 613 q 368 667 290 667 z "},"т":{"ha":658,"x_min":40,"x_max":638,"o":"m 214 597 q 110 562 151 597 q 68 458 68 526 l 40 458 l 40 542 q 45 583 40 563 q 61 618 50 603 q 92 643 72 633 q 144 653 113 653 l 638 653 l 638 597 l 408 597 l 408 0 l 283 0 l 283 597 l 214 597 z "},"у":{"ha":714,"x_min":-14,"x_max":674,"o":"m 361 -14 l 139 528 q 78 607 118 581 q -14 639 39 633 l -14 667 l 104 667 q 208 638 167 667 q 271 556 249 608 l 429 171 l 604 653 l 674 653 l 403 -90 q 359 -184 382 -147 q 310 -242 336 -221 q 254 -270 285 -262 q 188 -278 224 -278 l 146 -278 l 146 -236 q 204 -230 176 -236 q 255 -208 232 -224 q 297 -163 278 -192 q 333 -90 317 -135 l 361 -14 z "},"ф":{"ha":919,"x_min":64,"x_max":856,"o":"m 521 35 q 675 123 626 46 q 724 326 724 200 q 675 530 724 453 q 521 618 626 607 l 521 35 m 397 750 q 380 851 397 813 q 300 889 363 889 l 279 889 l 279 917 l 397 917 q 458 910 433 917 q 497 885 482 904 q 517 834 511 867 q 522 750 522 801 l 522 667 q 668 637 606 664 q 772 564 731 610 q 835 458 814 518 q 856 326 856 397 q 835 195 856 256 q 772 89 814 135 q 668 16 731 43 q 522 -14 606 -11 l 522 -264 l 397 -264 l 397 -14 q 251 16 314 -11 q 147 89 189 43 q 85 195 106 135 q 64 326 64 256 q 85 458 64 397 q 147 564 106 518 q 251 637 189 610 q 397 667 314 664 l 397 750 m 399 618 q 244 530 293 607 q 196 326 196 453 q 244 123 196 200 q 399 35 293 46 l 399 618 z "},"х":{"ha":678,"x_min":11,"x_max":671,"o":"m 303 257 l 122 0 l 53 0 l 275 313 l 154 514 q 11 625 96 614 l 11 653 l 129 653 q 216 623 176 653 q 286 542 256 593 l 372 396 l 553 653 l 622 653 l 400 340 l 521 139 q 671 28 579 38 l 671 0 l 546 0 q 459 30 499 0 q 389 111 419 60 l 303 257 z "},"ц":{"ha":785,"x_min":1,"x_max":751,"o":"m 119 0 l 119 486 q 102 587 119 549 q 22 625 85 625 l 1 625 l 1 653 l 119 653 q 180 647 156 653 q 219 622 204 640 q 239 570 233 603 q 244 486 244 538 l 244 56 l 522 56 l 522 653 l 647 653 l 647 56 l 703 56 q 738 42 724 56 q 751 7 751 28 l 751 -215 l 696 -215 q 651 -50 685 -100 q 550 0 618 0 l 119 0 z "},"ч":{"ha":740,"x_min":15,"x_max":640,"o":"m 383 299 q 460 307 425 299 q 515 324 494 315 l 515 653 l 640 653 l 640 0 l 515 0 l 515 268 q 459 251 494 260 q 376 243 424 243 q 288 251 332 243 q 207 281 243 260 q 149 342 171 303 q 126 444 126 382 l 126 486 q 109 587 126 549 q 29 625 92 625 l 15 625 l 15 653 l 133 653 q 194 647 169 653 q 233 622 218 640 q 253 570 247 603 q 258 486 258 538 l 258 431 q 269 369 258 394 q 297 328 279 343 q 338 306 315 313 q 383 299 360 299 z "},"ш":{"ha":1025,"x_min":1,"x_max":925,"o":"m 119 0 l 119 486 q 102 587 119 549 q 22 625 85 625 l 1 625 l 1 653 l 119 653 q 180 647 156 653 q 219 622 204 640 q 239 570 233 603 q 244 486 244 538 l 244 56 l 460 56 l 460 653 l 585 653 l 585 56 l 800 56 l 800 653 l 925 653 l 925 0 l 119 0 z "},"щ":{"ha":1063,"x_min":1,"x_max":1029,"o":"m 119 0 l 119 486 q 102 587 119 549 q 22 625 85 625 l 1 625 l 1 653 l 119 653 q 180 647 156 653 q 219 622 204 640 q 239 570 233 603 q 244 486 244 538 l 244 56 l 460 56 l 460 653 l 585 653 l 585 56 l 800 56 l 800 653 l 925 653 l 925 56 l 981 56 q 1015 42 1001 56 q 1029 7 1029 28 l 1029 -215 l 974 -215 q 929 -50 963 -100 q 828 0 896 0 l 119 0 z "},"ъ":{"ha":811,"x_min":49,"x_max":771,"o":"m 382 63 q 424 53 397 57 q 472 49 451 49 q 595 82 551 49 q 639 194 639 115 q 595 307 639 274 q 472 340 551 340 q 424 336 451 340 q 382 326 397 332 l 382 63 m 49 604 q 63 639 49 625 q 97 653 76 653 l 382 653 l 382 389 l 486 389 q 598 380 546 389 q 688 349 650 371 q 749 289 726 326 q 771 194 771 251 q 749 100 771 138 q 688 40 726 63 q 598 9 650 18 q 486 0 546 0 l 257 0 l 257 597 l 243 597 q 129 554 169 597 q 83 417 89 511 l 49 417 l 49 604 z "},"ы":{"ha":956,"x_min":1,"x_max":953,"o":"m 244 63 q 287 53 260 57 q 335 49 314 49 q 445 82 403 49 q 488 194 488 115 q 445 307 488 274 q 335 340 403 340 q 287 336 314 340 q 244 326 260 332 l 244 63 m 244 389 l 349 389 q 452 380 403 389 q 539 349 501 371 q 598 289 576 326 q 619 194 619 251 q 598 100 619 138 q 539 40 576 63 q 452 9 501 18 q 349 0 403 0 l 119 0 l 119 486 q 102 587 119 549 q 22 625 85 625 l 1 625 l 1 653 l 119 653 q 180 647 156 653 q 219 622 204 640 q 239 570 233 603 q 244 486 244 538 l 244 389 m 710 653 l 835 653 l 835 167 q 852 66 835 104 q 932 28 869 28 l 953 28 l 953 0 l 835 0 q 774 6 799 0 q 735 31 750 13 q 715 82 721 50 q 710 167 710 114 l 710 653 z "},"ь":{"ha":674,"x_min":1,"x_max":633,"o":"m 244 63 q 287 53 260 57 q 335 49 314 49 q 458 82 414 49 q 501 194 501 115 q 458 307 501 274 q 335 340 414 340 q 287 336 314 340 q 244 326 260 332 l 244 63 m 244 389 l 349 389 q 460 380 408 389 q 551 349 513 371 q 611 289 589 326 q 633 194 633 251 q 611 100 633 138 q 551 40 589 63 q 460 9 513 18 q 349 0 408 0 l 119 0 l 119 486 q 102 587 119 549 q 22 625 85 625 l 1 625 l 1 653 l 119 653 q 180 647 156 653 q 219 622 204 640 q 239 570 233 603 q 244 486 244 538 l 244 389 z "},"э":{"ha":679,"x_min":54,"x_max":617,"o":"m 311 667 q 447 640 389 667 q 542 567 504 613 q 598 459 579 521 q 617 326 617 397 q 598 194 617 256 q 542 86 579 132 q 447 13 504 40 q 311 -14 389 -14 q 165 19 228 -14 q 54 132 101 53 l 82 153 q 164 71 118 100 q 283 42 210 42 q 367 60 331 42 q 429 113 404 79 q 468 192 454 146 q 485 292 482 238 l 193 292 l 193 347 l 485 347 q 469 450 482 401 q 431 534 456 499 q 369 590 406 569 q 283 611 333 611 q 159 569 210 611 q 103 438 108 526 l 75 438 q 76 505 75 476 q 79 554 76 533 q 90 590 82 575 q 110 618 97 606 q 187 656 136 644 q 311 667 238 667 z "},"ю":{"ha":960,"x_min":1,"x_max":897,"o":"m 613 667 q 731 642 678 667 q 820 572 783 617 q 877 465 857 528 q 897 326 897 401 q 877 188 897 251 q 820 81 857 125 q 731 11 783 36 q 613 -14 678 -14 q 499 8 550 -14 q 411 72 449 31 q 352 170 374 113 q 328 299 331 228 l 244 299 l 244 0 l 119 0 l 119 486 q 102 587 119 549 q 22 625 85 625 l 1 625 l 1 653 l 119 653 q 180 647 156 653 q 219 622 204 640 q 239 570 233 603 q 244 486 244 538 l 244 354 l 328 354 q 352 483 331 425 q 411 581 374 540 q 499 644 449 622 q 613 667 550 667 m 613 611 q 502 540 544 611 q 460 326 460 468 q 502 113 460 185 q 613 42 544 42 q 723 113 681 42 q 765 326 765 185 q 723 540 765 468 q 613 611 681 611 z "},"я":{"ha":708,"x_min":24,"x_max":683,"o":"m 586 0 l 461 0 l 461 278 l 353 278 l 269 111 q 199 17 238 49 q 100 -14 160 -14 q 59 -10 79 -14 q 24 0 39 -6 l 24 28 q 67 41 47 31 q 103 67 86 51 q 132 102 119 83 q 156 139 144 121 l 239 285 q 178 304 207 290 q 128 341 150 318 q 92 395 106 364 q 79 465 79 426 q 101 556 79 519 q 161 613 124 592 q 249 644 199 635 q 357 653 300 653 l 683 653 l 683 625 q 603 587 621 625 q 586 486 586 549 l 586 0 m 461 590 q 419 600 446 596 q 371 604 392 604 q 254 572 297 604 q 211 465 211 539 q 254 359 211 392 q 371 326 297 326 q 419 331 392 326 q 461 340 446 335 l 461 590 z "},"ё":{"ha":678,"x_min":63,"x_max":618,"o":"m 615 306 l 194 306 q 207 200 194 249 q 244 116 219 151 q 303 61 268 81 q 382 42 338 42 q 495 71 450 42 q 576 153 540 100 l 604 132 q 495 19 557 53 q 354 -14 433 -14 q 226 13 281 -14 q 135 86 172 40 q 81 194 99 132 q 63 326 63 256 q 81 459 63 397 q 136 567 100 521 q 224 640 172 613 q 340 667 275 667 q 550 588 482 667 q 618 361 618 508 l 615 306 m 486 361 q 450 547 486 482 q 340 611 414 611 q 282 592 308 611 q 236 540 256 574 q 206 461 217 507 q 194 361 194 415 l 486 361 m 528 806 q 510 761 528 779 q 465 743 492 743 q 421 761 439 743 q 403 806 403 779 q 421 850 403 832 q 465 868 439 868 q 510 850 492 868 q 528 806 528 832 m 292 806 q 274 761 292 779 q 229 743 256 743 q 185 761 203 743 q 167 806 167 779 q 185 850 167 832 q 229 868 203 868 q 274 850 256 868 q 292 806 292 832 z "},"ђ":{"ha":736,"x_min":3,"x_max":642,"o":"m 3 694 l 3 750 l 100 750 l 100 833 l 169 917 l 225 917 l 225 750 l 392 750 l 392 694 l 225 694 l 225 528 q 297 576 251 554 q 406 597 343 597 q 492 587 450 597 q 568 548 535 576 q 622 471 601 519 q 642 347 642 422 l 642 104 q 630 -31 642 26 q 589 -124 618 -87 q 510 -177 560 -160 q 385 -194 460 -194 l 385 -167 q 485 -94 453 -167 q 517 104 517 -22 l 517 347 q 503 435 517 399 q 469 493 490 471 q 420 525 447 515 q 364 535 393 535 q 287 513 322 535 q 225 461 251 490 l 225 0 l 100 0 l 100 694 l 3 694 z "},"ѓ":{"ha":604,"x_min":3,"x_max":565,"o":"m 114 486 q 97 587 114 549 q 17 625 79 625 l 3 625 l 3 653 l 461 653 q 513 643 492 653 q 544 618 533 633 q 560 583 556 603 q 565 542 565 563 l 565 458 l 538 458 q 496 562 538 526 q 392 597 454 597 l 239 597 l 239 0 l 114 0 l 114 486 m 308 710 l 253 710 l 308 890 l 440 890 l 308 710 z "},"є":{"ha":679,"x_min":63,"x_max":625,"o":"m 368 667 q 492 656 442 667 q 569 618 543 644 q 590 590 582 606 q 600 554 597 575 q 603 505 603 533 q 604 438 604 476 l 576 438 q 520 569 571 526 q 396 611 469 611 q 310 590 346 611 q 249 534 274 569 q 210 450 224 499 q 194 347 197 401 l 486 347 l 486 292 l 194 292 q 211 192 197 238 q 250 113 225 146 q 311 60 275 79 q 396 42 347 42 q 515 71 469 42 q 597 153 561 100 l 625 132 q 515 19 578 53 q 368 -14 451 -14 q 233 13 290 -14 q 138 86 175 40 q 81 194 100 132 q 63 326 63 256 q 81 459 63 397 q 138 567 100 521 q 233 640 175 613 q 368 667 290 667 z "},"ѕ":{"ha":619,"x_min":68,"x_max":561,"o":"m 561 167 q 542 89 561 122 q 492 33 524 56 q 415 -2 460 10 q 318 -14 369 -14 q 182 1 235 -14 q 103 42 129 15 q 72 101 76 68 q 68 188 68 135 l 96 188 q 154 81 107 119 q 290 42 201 42 q 406 69 369 42 q 443 139 443 97 q 412 209 443 181 q 318 264 381 238 l 235 299 q 112 374 156 331 q 68 486 68 418 q 85 564 68 531 q 133 620 103 597 q 206 655 164 643 q 297 667 247 667 q 428 652 376 667 q 506 611 479 638 q 536 551 532 585 q 540 465 540 518 l 513 465 q 455 572 501 533 q 325 611 408 611 q 222 583 257 611 q 186 514 186 556 q 215 448 186 478 q 297 396 244 418 l 381 361 q 515 282 469 325 q 561 167 561 239 z "},"і":{"ha":342,"x_min":-4,"x_max":246,"o":"m 246 0 l 121 0 l 121 486 q 103 587 121 549 q 24 625 86 625 l -4 625 l -4 653 l 121 653 q 181 647 157 653 q 220 622 206 640 q 240 570 235 603 q 246 486 246 538 l 246 0 m 238 799 q 220 753 238 769 q 174 736 203 736 q 119 763 142 736 q 96 825 96 789 q 113 871 96 854 q 160 888 131 888 q 215 861 192 888 q 238 799 238 835 z "},"ї":{"ha":342,"x_min":-6,"x_max":350,"o":"m 246 0 l 121 0 l 121 486 q 103 587 121 549 q 24 625 86 625 l -4 625 l -4 653 l 121 653 q 181 647 157 653 q 220 622 206 640 q 240 570 235 603 q 246 486 246 538 l 246 0 m 136 813 q 119 767 136 783 q 72 750 101 750 q 17 776 40 750 q -6 839 -6 803 q 12 885 -6 868 q 58 901 29 901 q 113 875 90 901 q 136 813 136 849 m 350 813 q 333 767 350 783 q 286 750 315 750 q 231 776 254 750 q 208 839 208 803 q 226 885 208 868 q 272 901 243 901 q 327 875 304 901 q 350 813 350 849 z "},"ј":{"ha":342,"x_min":-11,"x_max":246,"o":"m 121 486 q 103 587 121 549 q 24 625 86 625 l -4 625 l -4 653 l 121 653 q 181 647 157 653 q 220 622 206 640 q 240 570 235 603 q 246 486 246 538 l 246 35 q 234 -100 246 -43 q 193 -193 222 -157 q 114 -247 164 -229 q -11 -264 64 -264 l -11 -236 q 89 -164 57 -236 q 121 35 121 -92 l 121 486 m 238 799 q 220 753 238 769 q 174 736 203 736 q 119 763 142 736 q 96 825 96 789 q 113 871 96 854 q 160 888 131 888 q 215 861 192 888 q 238 799 238 835 z "},"љ":{"ha":1072,"x_min":13,"x_max":1032,"o":"m 643 63 q 685 53 658 57 q 733 49 713 49 q 856 82 813 49 q 900 194 900 115 q 856 307 900 274 q 733 340 813 340 q 685 336 713 340 q 643 326 658 332 l 643 63 m 643 653 l 643 389 l 747 389 q 859 380 807 389 q 949 349 911 371 q 1010 289 988 326 q 1032 194 1032 251 q 1010 100 1032 138 q 949 40 988 63 q 859 9 911 18 q 747 0 807 0 l 518 0 l 518 597 l 289 597 l 289 486 q 271 232 289 329 q 224 80 253 135 q 157 6 194 25 q 81 -14 119 -14 q 47 -10 69 -14 q 13 -1 24 -6 l 13 33 q 78 51 46 33 q 137 117 111 68 q 178 254 163 165 q 193 486 193 343 q 190 542 193 517 q 176 587 186 568 q 146 615 165 606 q 94 625 126 625 l 94 653 l 643 653 z "},"њ":{"ha":1060,"x_min":1,"x_max":1022,"o":"m 633 361 l 738 361 q 849 352 797 361 q 940 322 901 343 q 1000 267 978 301 q 1022 181 1022 232 q 1000 93 1022 128 q 940 38 978 58 q 849 8 901 17 q 738 0 797 0 l 508 0 l 508 306 l 244 306 l 244 0 l 119 0 l 119 486 q 102 587 119 549 q 22 625 85 625 l 1 625 l 1 653 l 119 653 q 180 647 156 653 q 219 622 204 640 q 239 570 233 603 q 244 486 244 538 l 244 361 l 508 361 l 508 653 l 633 653 l 633 361 m 633 63 q 676 53 649 57 q 724 49 703 49 q 847 81 803 49 q 890 181 890 113 q 847 281 890 249 q 724 313 803 313 q 676 308 703 313 q 633 299 649 304 l 633 63 z "},"ћ":{"ha":736,"x_min":3,"x_max":642,"o":"m 225 694 l 225 528 q 297 576 251 554 q 406 597 343 597 q 492 587 450 597 q 568 548 535 576 q 622 471 601 519 q 642 347 642 422 l 642 0 l 517 0 l 517 347 q 503 435 517 399 q 469 493 490 471 q 420 525 447 515 q 364 535 393 535 q 287 513 322 535 q 225 461 251 490 l 225 0 l 100 0 l 100 694 l 3 694 l 3 750 l 100 750 l 100 833 l 169 917 l 225 917 l 225 750 l 392 750 l 392 694 l 225 694 z "},"ќ":{"ha":690,"x_min":-1,"x_max":679,"o":"m 249 319 l 422 563 q 494 628 453 604 q 603 653 535 653 l 638 653 l 638 618 q 572 605 606 618 q 513 556 539 592 l 360 340 l 519 139 q 594 63 556 92 q 679 26 632 33 l 679 0 q 649 -10 668 -6 q 610 -14 631 -14 q 506 13 557 -14 q 408 97 456 39 l 249 299 l 249 0 l 124 0 l 124 486 q 106 587 124 549 q 26 625 89 625 l -1 625 l -1 653 l 124 653 q 184 647 160 653 q 223 622 208 640 q 243 570 238 603 q 249 486 249 538 l 249 319 m 346 676 l 290 676 l 346 857 l 478 857 l 346 676 z "},"ў":{"ha":714,"x_min":-14,"x_max":674,"o":"m 361 -14 l 139 528 q 78 607 118 581 q -14 639 39 633 l -14 667 l 104 667 q 208 638 167 667 q 271 556 249 608 l 429 171 l 604 653 l 674 653 l 403 -90 q 359 -184 382 -147 q 310 -242 336 -221 q 254 -270 285 -262 q 188 -278 224 -278 l 146 -278 l 146 -236 q 204 -230 176 -236 q 255 -208 232 -224 q 297 -163 278 -192 q 333 -90 317 -135 l 361 -14 m 417 788 q 509 802 475 788 q 569 843 543 817 l 597 822 q 528 743 571 775 q 417 711 485 711 q 306 743 349 711 q 236 822 263 775 l 264 843 q 324 802 290 817 q 417 788 358 788 z "},"џ":{"ha":747,"x_min":1,"x_max":647,"o":"m 119 0 l 119 486 q 102 587 119 549 q 22 625 85 625 l 1 625 l 1 653 l 119 653 q 180 647 156 653 q 219 622 204 640 q 239 570 233 603 q 244 486 244 538 l 244 56 l 522 56 l 522 653 l 647 653 l 647 0 l 432 0 l 411 -208 l 356 -208 l 335 0 l 119 0 z "},"Ґ":{"ha":743,"x_min":22,"x_max":717,"o":"m 272 861 l 272 0 l 147 0 l 147 750 q 130 851 147 813 q 50 889 113 889 l 22 889 l 22 917 l 515 917 q 644 955 599 917 q 689 1076 689 993 l 717 1076 l 717 924 q 699 879 717 897 q 654 861 681 861 l 272 861 z "},"ґ":{"ha":600,"x_min":3,"x_max":565,"o":"m 239 597 l 239 0 l 114 0 l 114 486 q 97 587 114 549 q 17 625 79 625 l 3 625 l 3 653 l 392 653 q 496 688 454 653 q 538 792 538 724 l 565 792 l 565 653 q 510 597 565 597 l 239 597 z "},"–":{"ha":847,"x_min":97,"x_max":750,"o":"m 750 319 l 97 319 l 97 403 l 750 403 l 750 319 z "},"—":{"ha":1211,"x_min":92,"x_max":1119,"o":"m 1119 319 l 92 319 l 92 403 l 1119 403 l 1119 319 z "},"‘":{"ha":314,"x_min":71,"x_max":244,"o":"m 238 924 q 156 843 185 888 q 126 736 126 799 l 168 750 q 222 728 200 750 q 244 674 244 706 q 221 614 244 638 q 161 590 197 590 q 95 615 119 590 q 71 688 71 640 q 110 840 71 776 q 224 944 150 903 l 238 924 z "},"’":{"ha":317,"x_min":79,"x_max":253,"o":"m 86 611 q 168 692 139 647 q 197 799 197 736 l 156 785 q 101 807 124 785 q 79 861 79 829 q 103 921 79 897 q 163 944 126 944 q 228 919 204 944 q 253 847 253 894 q 213 695 253 758 q 100 590 174 632 l 86 611 z "},"‚":{"ha":329,"x_min":78,"x_max":251,"o":"m 85 -194 q 167 -114 138 -158 q 196 -7 196 -69 l 154 -21 q 100 1 122 -21 q 78 56 78 24 q 101 115 78 92 q 161 139 125 139 q 227 114 203 139 q 251 42 251 89 q 212 -110 251 -47 q 99 -215 172 -174 l 85 -194 z "},"“":{"ha":564,"x_min":71,"x_max":494,"o":"m 488 924 q 406 843 435 888 q 376 736 376 799 l 418 750 q 472 728 450 750 q 494 674 494 706 q 471 614 494 638 q 411 590 447 590 q 345 615 369 590 q 321 688 321 640 q 360 840 321 776 q 474 944 400 903 l 488 924 m 238 924 q 156 843 185 888 q 126 736 126 799 l 168 750 q 222 728 200 750 q 244 674 244 706 q 221 614 244 638 q 161 590 197 590 q 95 615 119 590 q 71 688 71 640 q 110 840 71 776 q 224 944 150 903 l 238 924 z "},"”":{"ha":567,"x_min":79,"x_max":503,"o":"m 86 611 q 168 692 139 647 q 197 799 197 736 l 156 785 q 101 807 124 785 q 79 861 79 829 q 103 921 79 897 q 163 944 126 944 q 228 919 204 944 q 253 847 253 894 q 213 695 253 758 q 100 590 174 632 l 86 611 m 336 611 q 418 692 389 647 q 447 799 447 736 l 406 785 q 351 807 374 785 q 329 861 329 829 q 353 921 329 897 q 413 944 376 944 q 478 919 454 944 q 503 847 503 894 q 463 695 503 758 q 350 590 424 632 l 336 611 z "},"„":{"ha":579,"x_min":78,"x_max":501,"o":"m 85 -194 q 167 -114 138 -158 q 196 -7 196 -69 l 154 -21 q 100 1 122 -21 q 78 56 78 24 q 101 115 78 92 q 161 139 125 139 q 227 114 203 139 q 251 42 251 89 q 212 -110 251 -47 q 99 -215 172 -174 l 85 -194 m 335 -194 q 417 -114 388 -158 q 446 -7 446 -69 l 404 -21 q 350 1 372 -21 q 328 56 328 24 q 351 115 328 92 q 411 139 375 139 q 477 114 453 139 q 501 42 501 89 q 462 -110 501 -47 q 349 -215 422 -174 l 335 -194 z "},"†":{"ha":726,"x_min":38,"x_max":689,"o":"m 300 653 l 300 944 l 425 944 l 425 653 l 689 653 l 689 569 l 425 569 l 425 -264 l 300 -264 l 300 569 l 38 569 l 38 653 l 300 653 z "},"‡":{"ha":771,"x_min":60,"x_max":711,"o":"m 322 653 l 322 944 l 447 944 l 447 653 l 711 653 l 711 569 l 447 569 l 447 111 l 711 111 l 711 28 l 447 28 l 447 -264 l 322 -264 l 322 28 l 60 28 l 60 111 l 322 111 l 322 569 l 60 569 l 60 653 l 322 653 z "},"•":{"ha":472,"x_min":69,"x_max":403,"o":"m 236 625 q 356 578 310 625 q 403 458 403 532 q 356 338 403 385 q 236 292 310 292 q 116 338 163 292 q 69 458 69 385 q 116 578 69 532 q 236 625 163 625 z "},"…":{"ha":889,"x_min":78,"x_max":811,"o":"m 153 132 q 206 110 185 132 q 228 57 228 88 q 206 3 228 25 q 153 -19 183 -19 q 100 3 122 -19 q 78 57 78 25 q 100 110 78 88 q 153 132 122 132 m 444 132 q 498 110 476 132 q 519 57 519 88 q 497 3 519 25 q 444 -19 475 -19 q 392 3 414 -19 q 369 57 369 25 q 392 110 369 88 q 444 132 414 132 m 736 132 q 790 110 768 132 q 811 57 811 88 q 789 3 811 25 q 736 -19 767 -19 q 683 3 706 -19 q 661 57 661 25 q 683 110 661 88 q 736 132 706 132 z "},"‰":{"ha":1397,"x_min":51,"x_max":1357,"o":"m 107 0 l 739 917 l 843 917 l 211 0 l 107 0 m 815 181 q 697 319 815 319 q 579 181 579 319 q 697 42 579 42 q 815 181 815 42 m 899 181 q 845 42 899 92 q 697 -7 792 -7 q 549 42 603 -7 q 496 181 496 92 q 549 319 496 269 q 697 368 603 368 q 845 319 792 368 q 899 181 899 269 m 371 736 q 253 875 371 875 q 135 736 135 875 q 253 597 135 597 q 371 736 371 597 m 454 736 q 401 598 454 647 q 253 549 347 549 q 105 598 158 549 q 51 736 51 647 q 105 874 51 825 q 253 924 158 924 q 401 874 347 924 q 454 736 454 825 m 1274 181 q 1156 319 1274 319 q 1038 181 1038 319 q 1156 42 1038 42 q 1274 181 1274 42 m 1357 181 q 1303 42 1357 92 q 1156 -7 1250 -7 q 1008 42 1061 -7 q 954 181 954 92 q 1008 319 954 269 q 1156 368 1061 368 q 1303 319 1250 368 q 1357 181 1357 269 z "},"‹":{"ha":419,"x_min":47,"x_max":346,"o":"m 47 313 l 290 583 l 346 583 l 193 313 l 346 42 l 290 42 l 47 313 z "},"›":{"ha":419,"x_min":74,"x_max":372,"o":"m 129 42 l 74 42 l 226 313 l 74 583 l 129 583 l 372 313 l 129 42 z "},"€":{"ha":1011,"x_min":39,"x_max":949,"o":"m 525 354 l 281 354 q 314 229 290 289 q 378 125 338 169 q 475 54 418 81 q 608 28 532 28 q 788 78 713 28 q 921 222 863 128 l 949 201 q 874 92 915 136 q 786 22 833 49 q 684 -17 739 -6 q 567 -28 629 -28 q 407 1 479 -28 q 280 81 335 29 q 190 202 225 132 q 143 354 156 272 l 39 354 l 53 410 l 136 410 l 136 493 l 60 493 l 74 549 l 146 549 q 200 706 161 633 q 294 831 239 778 q 419 915 350 885 q 567 944 489 944 q 765 912 682 944 q 886 833 849 879 q 917 744 913 801 q 921 625 921 688 l 893 625 q 795 825 867 761 q 608 889 724 889 q 493 872 547 889 q 395 814 439 854 q 322 708 351 774 q 281 549 292 643 l 560 549 l 546 493 l 275 493 l 275 410 l 539 410 l 525 354 z "},"№":{"ha":1363,"x_min":19,"x_max":1318,"o":"m 1283 431 l 950 431 l 950 486 l 1283 486 l 1283 431 m 158 750 q 132 851 158 813 q 33 889 106 889 l 19 889 l 19 917 l 110 917 q 222 894 178 917 q 297 833 265 872 l 783 229 l 783 917 l 839 917 l 839 -14 l 811 -14 l 214 729 l 214 0 l 158 0 l 158 750 m 1235 743 q 1117 882 1235 882 q 999 743 999 882 q 1117 604 999 604 q 1235 743 1235 604 m 1318 743 q 1265 605 1318 654 q 1117 556 1213 556 q 968 605 1021 556 q 915 743 915 654 q 968 881 915 832 q 1117 931 1021 931 q 1265 881 1213 931 q 1318 743 1318 832 z "},"™":{"ha":1229,"x_min":74,"x_max":1164,"o":"m 203 875 q 125 849 156 875 q 94 771 94 822 l 74 771 l 74 833 q 89 891 74 865 q 151 917 104 917 l 531 917 l 531 875 l 349 875 l 349 426 l 256 426 l 256 875 l 203 875 m 817 426 l 796 426 l 619 818 l 619 426 l 578 426 l 578 917 l 676 917 l 832 572 l 988 917 l 1081 917 l 1081 583 q 1086 526 1081 554 q 1103 475 1092 497 q 1129 440 1114 453 q 1164 426 1144 426 l 1164 406 q 1080 418 1114 406 q 1025 453 1046 431 q 996 509 1004 476 q 988 583 988 542 l 988 808 l 817 426 z "},"":{"ha":361,"x_min":0,"x_max":361,"o":"m 181 1056 q 276 1074 239 1056 q 333 1118 313 1092 l 361 1097 q 292 1006 335 1039 q 181 972 249 972 q 69 1006 113 972 q 0 1097 26 1039 l 28 1118 q 85 1074 49 1092 q 181 1056 122 1056 z "}}}
